<svg width="456" height="398" viewBox="0 0 456 398" fill="none" xmlns="http://www.w3.org/2000/svg">
<g opacity="0.1">
<g opacity="0.0387116">
<path fill-rule="evenodd" clip-rule="evenodd" d="M28.5483 283.476L27.1892 270.546C26.8393 267.216 23.827 264.749 20.5348 265.095L3.86908 266.846C0.576607 267.192 -1.83078 270.2 -1.48083 273.529L0.290484 290.382C0.640431 293.712 3.62047 296.153 6.91295 295.807L19.2341 294.512C26.22 293.896 26.8703 295.557 27.5198 301.737L28.8526 314.418C29.2026 317.747 32.1827 320.188 35.4751 319.842L52.1406 318.091C55.433 317.745 57.8407 314.737 57.4908 311.408L55.7195 294.555C55.3695 291.225 52.3892 288.784 49.0967 289.13L38.3439 290.26C31.7414 290.954 29.3111 290.734 28.5483 283.476Z" fill="white"/>
<path fill-rule="evenodd" clip-rule="evenodd" d="M52.6804 265.64L53.8161 276.445C54.0404 278.58 52.4768 280.51 50.3416 280.734L39.534 281.87C37.3988 282.095 35.4684 280.532 35.244 278.397L34.1083 267.592C33.884 265.457 35.4473 263.527 37.5825 263.303L48.3901 262.167C50.5253 261.943 52.456 263.505 52.6804 265.64Z" fill="white"/>
<path fill-rule="evenodd" clip-rule="evenodd" d="M19.0279 315.526L18.0545 306.264C17.8622 304.434 16.2076 303.095 14.3772 303.287L5.11355 304.261C3.28344 304.453 1.94324 306.107 2.13558 307.937L3.10901 317.199C3.30132 319.029 4.95617 320.368 6.78628 320.176L16.0499 319.202C17.8803 319.01 19.2202 317.355 19.0279 315.526Z" fill="white"/>
</g>
<g opacity="0.443515">
<path fill-rule="evenodd" clip-rule="evenodd" d="M163.15 283.639L163.604 270.645C163.72 267.3 161.081 264.437 157.773 264.322L141.025 263.737C137.717 263.621 134.914 266.264 134.797 269.61L134.206 286.546C134.089 289.891 136.7 292.723 140.009 292.839L152.39 293.271C159.394 293.634 159.807 295.369 159.59 301.579L159.145 314.322C159.028 317.668 161.639 320.5 164.948 320.615L181.695 321.2C185.004 321.316 187.807 318.673 187.923 315.327L188.515 298.391C188.632 295.046 186.02 292.214 182.711 292.098L171.906 291.721C165.271 291.489 162.895 290.933 163.15 283.639Z" fill="white"/>
<path fill-rule="evenodd" clip-rule="evenodd" d="M189.529 269.335L189.15 280.194C189.075 282.339 187.258 284.032 185.113 283.957L174.252 283.578C172.106 283.503 170.412 281.687 170.487 279.542L170.866 268.684C170.941 266.539 172.758 264.845 174.904 264.92L185.764 265.299C187.91 265.374 189.604 267.19 189.529 269.335Z" fill="white"/>
<path fill-rule="evenodd" clip-rule="evenodd" d="M149.262 314.052L149.587 304.745C149.651 302.906 148.199 301.349 146.359 301.285L137.05 300.96C135.211 300.896 133.654 302.348 133.59 304.187L133.265 313.493C133.201 315.332 134.653 316.889 136.492 316.953L145.801 317.278C147.64 317.342 149.197 315.891 149.262 314.052Z" fill="white"/>
</g>
<g opacity="0.0916946">
<path fill-rule="evenodd" clip-rule="evenodd" d="M297.717 283.974L299.974 271.17C300.556 267.873 298.34 264.671 295.08 264.096L278.577 261.186C275.317 260.611 272.174 262.839 271.592 266.136L268.65 282.824C268.068 286.121 270.26 289.289 273.52 289.864L285.721 292.015C292.606 293.349 292.774 295.125 291.695 301.244L289.48 313.801C288.899 317.098 291.091 320.266 294.351 320.841L310.854 323.751C314.114 324.326 317.258 322.098 317.839 318.801L320.782 302.113C321.363 298.816 319.171 295.648 315.91 295.073L305.263 293.196C298.725 292.043 296.449 291.161 297.717 283.974Z" fill="white"/>
<path fill-rule="evenodd" clip-rule="evenodd" d="M325.83 273.481L323.943 284.181C323.571 286.294 321.536 287.719 319.421 287.346L308.719 285.459C306.605 285.086 305.18 283.052 305.553 280.938L307.439 270.238C307.812 268.124 309.847 266.7 311.961 267.073L322.663 268.96C324.778 269.333 326.203 271.367 325.83 273.481Z" fill="white"/>
<path fill-rule="evenodd" clip-rule="evenodd" d="M279.731 312.158L281.348 302.987C281.667 301.175 280.446 299.431 278.634 299.112L269.461 297.494C267.648 297.175 265.904 298.395 265.585 300.208L263.967 309.379C263.648 311.19 264.869 312.934 266.682 313.254L275.855 314.871C277.667 315.191 279.411 313.97 279.731 312.158Z" fill="white"/>
</g>
<g opacity="0.262059">
<path fill-rule="evenodd" clip-rule="evenodd" d="M432.225 284.474L436.243 272.109C437.277 268.925 435.529 265.446 432.381 264.423L416.443 259.245C413.295 258.222 409.872 259.99 408.838 263.174L403.601 279.29C402.566 282.474 404.296 285.916 407.445 286.939L419.227 290.768C425.86 293.046 425.778 294.829 423.858 300.738L419.918 312.865C418.883 316.049 420.613 319.491 423.761 320.514L439.698 325.692C442.847 326.715 446.27 324.947 447.304 321.763L452.541 305.647C453.575 302.463 451.846 299.021 448.697 297.998L438.414 294.656C432.1 292.605 429.97 291.416 432.225 284.474Z" fill="white"/>
<path fill-rule="evenodd" clip-rule="evenodd" d="M461.525 277.996L458.168 288.329C457.505 290.37 455.291 291.498 453.249 290.834L442.914 287.476C440.872 286.813 439.744 284.6 440.407 282.558L443.765 272.225C444.428 270.184 446.641 269.057 448.683 269.72L459.018 273.078C461.06 273.742 462.189 275.955 461.525 277.996Z" fill="white"/>
<path fill-rule="evenodd" clip-rule="evenodd" d="M410.492 309.881L413.369 301.024C413.938 299.274 412.971 297.378 411.221 296.809L402.362 293.931C400.612 293.362 398.715 294.328 398.146 296.078L395.269 304.935C394.7 306.685 395.667 308.581 397.417 309.15L406.276 312.028C408.026 312.597 409.923 311.631 410.492 309.881Z" fill="white"/>
</g>
<g opacity="0.13678">
<path fill-rule="evenodd" clip-rule="evenodd" d="M36.9553 224.748L49.4532 221.164C52.6714 220.241 54.5781 216.846 53.6657 213.664L49.0467 197.556C48.1342 194.374 44.7543 192.525 41.5362 193.448L25.2468 198.119C22.0286 199.041 20.1423 202.4 21.0548 205.582L24.4697 217.492C26.2894 224.264 24.7664 225.193 18.7932 226.906L6.53663 230.421C3.31845 231.343 1.43179 234.702 2.34432 237.884L6.96324 253.992C7.87577 257.175 11.2557 259.024 14.4739 258.101L30.7632 253.43C33.9814 252.507 35.8677 249.148 34.9551 245.966L31.9749 235.573C30.145 229.191 29.9397 226.76 36.9553 224.748Z" fill="white"/>
<path fill-rule="evenodd" clip-rule="evenodd" d="M58.7107 245.416L48.2668 248.411C46.2035 249.003 44.0313 247.798 43.4395 245.734L40.4441 235.288C39.8523 233.224 41.0562 231.052 43.1194 230.46L53.5634 227.465C55.6266 226.874 57.7988 228.078 58.3906 230.142L61.386 240.588C61.9778 242.652 60.774 244.825 58.7107 245.416Z" fill="white"/>
<path fill-rule="evenodd" clip-rule="evenodd" d="M3.73912 220.938L12.6909 218.371C14.4597 217.863 15.4916 216.001 14.9843 214.232L12.4168 205.278C11.9096 203.509 10.0477 202.477 8.27889 202.984L-0.672895 205.551C-2.44139 206.058 -3.47317 207.92 -2.96594 209.689L-0.39847 218.643C0.10884 220.412 1.97062 221.445 3.73912 220.938Z" fill="white"/>
</g>
<g opacity="0.685422">
<path fill-rule="evenodd" clip-rule="evenodd" d="M170.366 226.003L183.241 224.194C186.557 223.728 188.917 220.632 188.457 217.353L186.124 200.759C185.664 197.481 182.574 195.18 179.259 195.646L162.478 198.004C159.163 198.47 156.827 201.533 157.288 204.812L159.012 217.08C159.872 224.04 158.234 224.748 152.081 225.613L139.454 227.388C136.139 227.853 133.803 230.917 134.264 234.195L136.596 250.789C137.057 254.068 140.147 256.369 143.462 255.903L160.243 253.545C163.558 253.079 165.893 250.015 165.433 246.737L163.928 236.03C163.004 229.456 163.139 227.019 170.366 226.003Z" fill="white"/>
<path fill-rule="evenodd" clip-rule="evenodd" d="M189.033 249.499L178.274 251.011C176.149 251.309 174.165 249.814 173.867 247.688L172.354 236.927C172.055 234.8 173.55 232.817 175.675 232.518L186.435 231.006C188.56 230.707 190.543 232.202 190.842 234.328L192.355 245.09C192.653 247.216 191.159 249.2 189.033 249.499Z" fill="white"/>
<path fill-rule="evenodd" clip-rule="evenodd" d="M138.004 217.607L147.226 216.311C149.048 216.055 150.329 214.355 150.073 212.532L148.776 203.308C148.52 201.486 146.82 200.205 144.998 200.461L135.776 201.757C133.954 202.013 132.673 203.713 132.929 205.536L134.226 214.76C134.482 216.582 136.182 217.864 138.004 217.607Z" fill="white"/>
</g>
<g opacity="0.686027">
<path fill-rule="evenodd" clip-rule="evenodd" d="M303.772 227.474L316.772 227.474C320.119 227.474 322.887 224.77 322.887 221.502L322.887 204.955C322.887 201.686 320.148 199.012 316.801 199.012L299.858 199.012C296.511 199.012 293.772 201.686 293.772 204.955V217.188C293.654 224.112 291.935 224.579 285.722 224.579L272.973 224.579C269.626 224.579 266.887 227.253 266.887 230.522V247.068C266.887 250.337 269.626 253.012 272.973 253.012L289.916 253.012C293.264 253.012 296.002 250.337 296.002 247.068V236.393C296.002 229.837 296.475 227.474 303.772 227.474Z" fill="white"/>
<path fill-rule="evenodd" clip-rule="evenodd" d="M318.985 253.012H308.122C305.976 253.012 304.22 251.277 304.22 249.157V238.427C304.22 236.307 305.976 234.573 308.122 234.573H318.985C321.131 234.573 322.887 236.307 322.887 238.427V249.157C322.887 251.277 321.131 253.012 318.985 253.012Z" fill="white"/>
<path fill-rule="evenodd" clip-rule="evenodd" d="M272.898 214.817H282.209C284.049 214.817 285.554 213.33 285.554 211.513V202.316C285.554 200.499 284.049 199.012 282.209 199.012H272.898C271.059 199.012 269.554 200.499 269.554 202.316V211.513C269.554 213.33 271.059 214.817 272.898 214.817Z" fill="white"/>
</g>
<g opacity="0.0984959">
<path fill-rule="evenodd" clip-rule="evenodd" d="M370.155 227.871L383.125 228.778C386.464 229.011 389.417 226.473 389.648 223.171L390.817 206.454C391.048 203.152 388.504 200.259 385.165 200.025L368.26 198.843C364.92 198.61 361.999 201.121 361.768 204.423L360.904 216.782C360.298 223.769 358.549 224.121 352.35 223.687L339.63 222.798C336.291 222.564 333.369 225.075 333.138 228.378L331.969 245.094C331.738 248.397 334.282 251.29 337.622 251.524L354.526 252.706C357.866 252.939 360.787 250.428 361.018 247.125L361.772 236.34C362.236 229.717 362.874 227.362 370.155 227.871Z" fill="white"/>
<path fill-rule="evenodd" clip-rule="evenodd" d="M383.529 254.734L372.691 253.976C370.55 253.826 368.92 251.951 369.07 249.809L369.828 238.969C369.978 236.827 371.852 235.197 373.993 235.347L384.832 236.105C386.973 236.255 388.602 238.129 388.452 240.271L387.694 251.112C387.545 253.253 385.67 254.883 383.529 254.734Z" fill="white"/>
<path fill-rule="evenodd" clip-rule="evenodd" d="M340.245 212.93L349.535 213.579C351.371 213.708 352.977 212.311 353.105 210.475L353.755 201.183C353.884 199.347 352.487 197.74 350.651 197.612L341.362 196.962C339.526 196.834 337.92 198.231 337.791 200.067L337.142 209.359C337.013 211.195 338.41 212.802 340.245 212.93Z" fill="white"/>
</g>
<g opacity="0.403638">
<path fill-rule="evenodd" clip-rule="evenodd" d="M436.665 228.477L449.54 230.286C452.855 230.752 455.978 228.426 456.439 225.148L458.771 208.554C459.232 205.276 456.896 202.212 453.581 201.746L436.8 199.388C433.484 198.922 430.395 201.223 429.934 204.501L428.21 216.77C427.118 223.697 425.349 223.926 419.195 223.061L406.569 221.287C403.254 220.821 400.164 223.122 399.703 226.4L397.371 242.994C396.91 246.273 399.246 249.337 402.561 249.803L419.342 252.161C422.657 252.627 425.747 250.326 426.208 247.047L427.712 236.34C428.636 229.766 429.438 227.461 436.665 228.477Z" fill="white"/>
<path fill-rule="evenodd" clip-rule="evenodd" d="M448.133 256.207L437.374 254.695C435.248 254.396 433.754 252.412 434.053 250.286L435.565 239.525C435.864 237.399 437.847 235.904 439.973 236.202L450.732 237.715C452.857 238.013 454.352 239.997 454.053 242.123L452.541 252.885C452.242 255.011 450.258 256.506 448.133 256.207Z" fill="white"/>
<path fill-rule="evenodd" clip-rule="evenodd" d="M407.87 211.486L417.092 212.782C418.914 213.038 420.614 211.757 420.871 209.934L422.167 200.71C422.423 198.888 421.142 197.187 419.32 196.931L410.098 195.635C408.276 195.379 406.576 196.661 406.32 198.483L405.024 207.707C404.768 209.53 406.048 211.23 407.87 211.486Z" fill="white"/>
</g>
<g opacity="0.022014">
<path fill-rule="evenodd" clip-rule="evenodd" d="M96.639 167.874L101.51 179.929C102.764 183.033 106.339 184.574 109.409 183.334L124.946 177.057C128.015 175.817 129.501 172.262 128.246 169.158L121.898 153.446C120.644 150.342 117.107 148.817 114.037 150.057L102.55 154.698C96.005 157.216 94.922 155.799 92.5942 150.037L87.8178 138.215C86.5637 135.111 83.0261 133.586 79.9566 134.826L64.4196 141.103C61.35 142.343 59.8646 145.898 61.1187 149.002L67.4667 164.714C68.7208 167.818 72.2585 169.343 75.3281 168.103L85.3529 164.053C91.5082 161.566 93.905 161.107 96.639 167.874Z" fill="white"/>
<path fill-rule="evenodd" clip-rule="evenodd" d="M78.358 191.671L74.2879 181.597C73.4839 179.607 74.4549 177.321 76.4455 176.516L86.5214 172.445C88.512 171.641 90.7985 172.611 91.6025 174.602L95.6725 184.675C96.4766 186.665 95.5059 188.951 93.5152 189.756L83.4394 193.827C81.4487 194.631 79.162 193.661 78.358 191.671Z" fill="white"/>
<path fill-rule="evenodd" clip-rule="evenodd" d="M96.9564 134.442L100.445 143.076C101.134 144.782 103.094 145.614 104.8 144.924L113.437 141.435C115.143 140.746 115.975 138.786 115.286 137.08L111.797 128.445C111.108 126.74 109.148 125.908 107.442 126.598L98.8057 130.087C97.0992 130.776 96.2672 132.736 96.9564 134.442Z" fill="white"/>
</g>
<g opacity="0.428292">
<path fill-rule="evenodd" clip-rule="evenodd" d="M162.698 167.989L166.716 180.354C167.751 183.538 171.21 185.326 174.358 184.303L190.296 179.124C193.444 178.101 195.174 174.659 194.139 171.475L188.903 155.359C187.868 152.174 184.446 150.406 181.297 151.43L169.515 155.258C162.809 157.313 161.828 155.823 159.908 149.914L155.968 137.787C154.933 134.603 151.511 132.835 148.362 133.858L132.425 139.036C129.276 140.059 127.547 143.501 128.581 146.685L133.818 162.802C134.852 165.986 138.275 167.754 141.424 166.731L151.706 163.39C158.02 161.338 160.443 161.048 162.698 167.989Z" fill="white"/>
<path fill-rule="evenodd" clip-rule="evenodd" d="M142.802 190.453L139.445 180.12C138.781 178.078 139.909 175.865 141.951 175.202L152.287 171.844C154.329 171.18 156.542 172.308 157.205 174.349L160.562 184.682C161.226 186.723 160.098 188.936 158.056 189.6L147.721 192.958C145.679 193.621 143.465 192.494 142.802 190.453Z" fill="white"/>
<path fill-rule="evenodd" clip-rule="evenodd" d="M165.347 134.66L168.225 143.517C168.794 145.267 170.69 146.233 172.441 145.665L181.3 142.786C183.05 142.218 184.017 140.321 183.448 138.571L180.57 129.714C180.002 127.964 178.105 126.998 176.355 127.567L167.496 130.445C165.745 131.014 164.779 132.911 165.347 134.66Z" fill="white"/>
</g>
<g opacity="0.243947">
<path fill-rule="evenodd" clip-rule="evenodd" d="M228.751 168.061L231.897 180.676C232.707 183.925 236.033 185.949 239.245 185.148L255.505 181.094C258.717 180.293 260.682 176.98 259.873 173.731L255.773 157.289C254.963 154.04 251.672 152.038 248.46 152.839L236.439 155.836C229.607 157.418 228.732 155.864 227.228 149.835L224.144 137.463C223.334 134.214 220.043 132.212 216.831 133.013L200.571 137.066C197.359 137.867 195.393 141.181 196.203 144.429L200.303 160.872C201.113 164.12 204.404 166.122 207.616 165.321L218.107 162.706C224.549 161.1 226.986 160.979 228.751 168.061Z" fill="white"/>
<path fill-rule="evenodd" clip-rule="evenodd" d="M207.336 189.082L204.708 178.54C204.189 176.457 205.468 174.328 207.552 173.809L218.096 171.18C220.179 170.66 222.308 171.939 222.828 174.022L225.456 184.564C225.975 186.647 224.696 188.775 222.613 189.295L212.068 191.924C209.985 192.443 207.856 191.164 207.336 189.082Z" fill="white"/>
<path fill-rule="evenodd" clip-rule="evenodd" d="M233.719 134.998L235.972 144.034C236.417 145.819 238.242 146.916 240.027 146.47L249.065 144.217C250.851 143.772 251.948 141.947 251.503 140.162L249.25 131.126C248.805 129.341 246.98 128.244 245.194 128.69L236.156 130.943C234.37 131.388 233.274 133.213 233.719 134.998Z" fill="white"/>
</g>
<g opacity="0.675624">
<path fill-rule="evenodd" clip-rule="evenodd" d="M360.85 168.073L362.209 181.003C362.559 184.333 365.571 186.8 368.863 186.454L385.529 184.702C388.822 184.356 391.229 181.349 390.879 178.019L389.108 161.166C388.758 157.837 385.778 155.396 382.485 155.742L370.164 157.037C363.178 157.653 362.528 155.992 361.878 149.812L360.546 137.131C360.196 133.802 357.216 131.36 353.923 131.706L337.258 133.458C333.965 133.804 331.557 136.812 331.907 140.141L333.679 156.994C334.029 160.324 337.009 162.765 340.301 162.418L351.054 161.288C357.657 160.594 360.087 160.814 360.85 168.073Z" fill="white"/>
<path fill-rule="evenodd" clip-rule="evenodd" d="M336.718 185.909L335.582 175.103C335.358 172.969 336.921 171.039 339.057 170.814L349.864 169.678C351.999 169.454 353.93 171.017 354.154 173.151L355.29 183.957C355.514 186.091 353.951 188.021 351.816 188.246L341.008 189.382C338.873 189.606 336.942 188.043 336.718 185.909Z" fill="white"/>
<path fill-rule="evenodd" clip-rule="evenodd" d="M370.37 136.023L371.344 145.284C371.536 147.114 373.191 148.454 375.021 148.262L384.285 147.288C386.115 147.096 387.455 145.441 387.263 143.611L386.289 134.35C386.097 132.52 384.442 131.181 382.612 131.373L373.348 132.347C371.518 132.539 370.178 134.193 370.37 136.023Z" fill="white"/>
</g>
<g opacity="0.879925">
<path fill-rule="evenodd" clip-rule="evenodd" d="M426.902 168.013L427.355 181.007C427.472 184.352 430.305 187.024 433.613 186.908L450.361 186.323C453.669 186.208 456.281 183.376 456.164 180.03L455.572 163.094C455.456 159.749 452.653 157.106 449.344 157.221L436.963 157.654C429.951 157.781 429.418 156.078 429.201 149.868L428.756 137.125C428.64 133.78 425.837 131.137 422.528 131.252L405.781 131.837C402.473 131.952 399.861 134.785 399.978 138.13L400.569 155.066C400.686 158.412 403.489 161.055 406.798 160.939L417.603 160.562C424.238 160.33 426.647 160.719 426.902 168.013Z" fill="white"/>
<path fill-rule="evenodd" clip-rule="evenodd" d="M401.584 184.122L401.205 173.264C401.13 171.119 402.824 169.302 404.97 169.227L415.831 168.848C417.976 168.773 419.793 170.467 419.868 172.612L420.247 183.47C420.322 185.615 418.628 187.432 416.482 187.507L405.622 187.886C403.476 187.961 401.659 186.267 401.584 184.122Z" fill="white"/>
<path fill-rule="evenodd" clip-rule="evenodd" d="M438.635 136.705L438.96 146.012C439.024 147.851 440.581 149.303 442.42 149.239L451.729 148.913C453.568 148.849 455.021 147.292 454.956 145.454L454.631 136.147C454.567 134.308 453.01 132.856 451.171 132.921L441.862 133.246C440.022 133.31 438.57 134.867 438.635 136.705Z" fill="white"/>
</g>
<g opacity="0.605097">
<path fill-rule="evenodd" clip-rule="evenodd" d="M19.9455 96.4118L9.42702 104.054C6.71854 106.022 6.08791 109.864 8.03366 112.542L17.8835 126.099C19.8294 128.778 23.6377 129.359 26.3462 127.391L40.0556 117.43C42.7641 115.463 43.388 111.661 41.442 108.983L34.1599 98.9601C30.1335 93.2182 31.247 91.8244 36.2741 88.172L46.5895 80.6774C49.298 78.7096 49.9221 74.9081 47.9762 72.2298L38.1265 58.6729C36.1806 55.9946 32.3722 55.4132 29.6637 57.381L15.9543 67.3415C13.2458 69.3093 12.6221 73.1108 14.568 75.7892L20.9232 84.5363C24.8254 89.9072 25.85 92.1219 19.9455 96.4118Z" fill="white"/>
<path fill-rule="evenodd" clip-rule="evenodd" d="M-7.56685 84.4306L1.22296 78.0444C2.95945 76.7828 5.41274 77.1719 6.67469 78.9088L13.0623 87.7005C14.3242 89.4375 13.936 91.8907 12.1995 93.1523L3.40967 99.5385C1.67318 100.8 -0.77993 100.411 -2.04188 98.6743L-8.42945 89.8826C-9.6914 88.1457 -9.30334 85.6922 -7.56685 84.4306Z" fill="white"/>
<path fill-rule="evenodd" clip-rule="evenodd" d="M52.4616 88.6317L44.9276 94.1055C43.439 95.1871 43.1062 97.2897 44.188 98.7787L49.6631 106.314C50.7447 107.803 52.8474 108.137 54.3361 107.055L61.8701 101.581C63.3585 100.5 63.6911 98.3971 62.6095 96.9083L57.1344 89.3726C56.0526 87.8836 53.9501 87.5503 52.4616 88.6317Z" fill="white"/>
</g>
<g opacity="0.978256">
<path fill-rule="evenodd" clip-rule="evenodd" d="M59.7524 81.9686L68.9663 76.2111C70.7865 75.0737 73.2067 75.633 74.3444 77.4537L80.1032 86.6696C81.2409 88.4903 80.6825 90.9105 78.8622 92.0479L69.6483 97.8054C67.828 98.9428 65.408 98.3838 64.2703 96.563L58.5116 87.3471C57.3739 85.5264 57.9321 83.106 59.7524 81.9686Z" fill="white"/>
<path fill-rule="evenodd" clip-rule="evenodd" d="M119.342 90.3469L111.444 95.2818C109.884 96.2569 109.405 98.3312 110.38 99.892L115.316 107.791C116.291 109.352 118.366 109.831 119.926 108.856L127.824 103.921C129.384 102.946 129.862 100.872 128.887 99.3112L123.951 91.4119C122.976 89.8511 120.902 89.3719 119.342 90.3469Z" fill="white"/>
</g>
<g opacity="0.125574">
<path fill-rule="evenodd" clip-rule="evenodd" d="M219.318 94.6481L207.44 99.9363C204.382 101.298 202.966 104.925 204.312 107.949L211.128 123.258C212.475 126.283 216.079 127.643 219.137 126.281L234.618 119.389C237.677 118.027 239.077 114.438 237.731 111.414L232.692 100.096C229.947 93.6425 231.326 92.5107 237.003 89.9833L248.651 84.7972C251.709 83.4355 253.11 79.8469 251.764 76.8225L244.948 61.514C243.601 58.4896 239.997 57.1291 236.938 58.4908L221.458 65.3833C218.399 66.745 216.999 70.3337 218.345 73.3581L222.743 83.2354C225.443 89.3003 225.985 91.6796 219.318 94.6481Z" fill="white"/>
<path fill-rule="evenodd" clip-rule="evenodd" d="M194.897 77.2086L204.823 72.7895C206.784 71.9165 209.103 72.8071 209.976 74.7685L214.396 84.6961C215.269 86.6575 214.379 88.9763 212.419 89.8494L202.493 94.2685C200.532 95.1415 198.214 94.2511 197.34 92.2898L192.92 82.3621C192.047 80.4008 192.937 78.0816 194.897 77.2086Z" fill="white"/>
<path fill-rule="evenodd" clip-rule="evenodd" d="M252.741 93.7985L244.233 97.5863C242.552 98.3347 241.79 100.322 242.538 102.004L246.327 110.513C247.075 112.194 249.063 112.957 250.744 112.209L259.251 108.421C260.932 107.673 261.695 105.685 260.946 104.004L257.157 95.4947C256.409 93.8134 254.422 93.0502 252.741 93.7985Z" fill="white"/>
</g>
<g opacity="0.3">
<path fill-rule="evenodd" clip-rule="evenodd" d="M285.859 94.0343L273.641 98.4811C270.495 99.6262 268.83 103.146 269.962 106.257L275.694 122.003C276.826 125.114 280.326 126.723 283.472 125.578L299.396 119.782C302.542 118.637 304.19 115.155 303.057 112.044L298.82 100.402C296.532 93.7726 297.987 92.7398 303.826 90.6145L315.808 86.2536C318.954 85.1085 320.601 81.6264 319.469 78.5154L313.738 62.7688C312.605 59.6578 309.105 58.0492 305.959 59.1943L290.035 64.9901C286.889 66.1351 285.242 69.6174 286.374 72.7284L290.072 82.8884C292.342 89.1268 292.717 91.5382 285.859 94.0343Z" fill="white"/>
<path fill-rule="evenodd" clip-rule="evenodd" d="M262.715 74.9339L272.924 71.2179C274.941 70.4838 277.192 71.534 277.926 73.5515L281.643 83.7633C282.378 85.7808 281.328 88.032 279.311 88.7661L269.102 92.4821C267.085 93.2162 264.834 92.1662 264.099 90.1487L260.383 79.9369C259.648 77.9195 260.698 75.668 262.715 74.9339Z" fill="white"/>
<path fill-rule="evenodd" clip-rule="evenodd" d="M319.26 95.5183L310.509 98.7034C308.78 99.3327 307.88 101.262 308.51 102.992L311.696 111.745C312.325 113.474 314.254 114.374 315.983 113.745L324.734 110.56C326.463 109.93 327.363 108.001 326.733 106.271L323.547 97.5184C322.918 95.7889 320.989 94.8891 319.26 95.5183Z" fill="white"/>
</g>
<g opacity="0.222197">
<path fill-rule="evenodd" clip-rule="evenodd" d="M352.443 93.4125L339.945 96.9962C336.727 97.919 334.82 101.314 335.733 104.496L340.352 120.604C341.264 123.787 344.644 125.635 347.862 124.713L364.152 120.042C367.37 119.119 369.256 115.76 368.344 112.578L364.929 100.669C363.109 93.896 364.632 92.9671 370.605 91.2543L382.862 87.7398C386.08 86.817 387.967 83.4583 387.054 80.2759L382.435 64.1678C381.523 60.9855 378.143 59.1366 374.924 60.0594L358.635 64.7303C355.417 65.6531 353.531 69.012 354.443 72.1944L357.423 82.5876C359.253 88.9692 359.459 91.4008 352.443 93.4125Z" fill="white"/>
<path fill-rule="evenodd" clip-rule="evenodd" d="M330.688 72.7441L341.132 69.7494C343.195 69.1577 345.367 70.3624 345.959 72.4262L348.954 82.8724C349.546 84.9362 348.342 87.1087 346.279 87.7003L335.835 90.6951C333.772 91.2867 331.6 90.0823 331.008 88.0185L328.012 77.5723C327.421 75.5085 328.624 73.3358 330.688 72.7441Z" fill="white"/>
<path fill-rule="evenodd" clip-rule="evenodd" d="M385.659 97.2228L376.707 99.7896C374.939 100.297 373.907 102.159 374.414 103.928L376.982 112.882C377.489 114.651 379.351 115.683 381.119 115.176L390.071 112.609C391.84 112.102 392.871 110.24 392.364 108.471L389.797 99.5171C389.289 97.7479 387.428 96.7157 385.659 97.2228Z" fill="white"/>
</g>
<g opacity="0.438713">
<path fill-rule="evenodd" clip-rule="evenodd" d="M419.071 92.7856L406.353 95.4888C403.079 96.1849 400.94 99.4386 401.628 102.677L405.112 119.068C405.8 122.306 409.043 124.386 412.318 123.69L428.893 120.167C432.168 119.471 434.284 116.252 433.596 113.013L431.02 100.895C429.677 94.012 431.261 93.1916 437.339 91.8996L449.811 89.2487C453.086 88.5526 455.202 85.3337 454.514 82.0954L451.03 65.7044C450.342 62.4661 447.099 60.386 443.824 61.082L427.249 64.6052C423.974 65.3013 421.858 68.5205 422.546 71.7587L424.794 82.3345C426.174 88.8283 426.21 91.2682 419.071 92.7856Z" fill="white"/>
<path fill-rule="evenodd" clip-rule="evenodd" d="M398.81 70.65L409.438 68.3911C411.537 67.9448 413.62 69.2981 414.066 71.3982L416.326 82.0279C416.772 84.1279 415.42 86.2111 413.32 86.6574L402.693 88.9163C400.593 89.3626 398.51 88.0096 398.064 85.9095L395.805 75.2798C395.358 73.1798 396.711 71.0963 398.81 70.65Z" fill="white"/>
<path fill-rule="evenodd" clip-rule="evenodd" d="M451.94 98.9037L442.831 100.84C441.031 101.222 439.872 103.008 440.255 104.808L442.191 113.919C442.574 115.719 444.359 116.879 446.159 116.497L455.268 114.561C457.068 114.178 458.227 112.392 457.844 110.592L455.908 101.481C455.525 99.6808 453.74 98.5212 451.94 98.9037Z" fill="white"/>
</g>
<g opacity="0.548144">
<path fill-rule="evenodd" clip-rule="evenodd" d="M22.6409 18.4539L13.2883 9.42222C10.8801 7.09659 6.98659 7.14277 4.68706 9.524L-6.95371 21.5784C-9.25345 23.9598 -9.16445 27.8111 -6.7562 30.1367L5.43359 41.9083C7.84185 44.2339 11.6937 44.1882 13.9934 41.8068L22.5996 32.8949C27.5551 27.9325 29.1211 28.7871 33.591 33.1036L42.7629 41.9608C45.1712 44.2865 49.0232 44.241 51.323 41.8595L62.9635 29.8054C65.2633 27.4239 65.1745 23.5724 62.7662 21.2468L50.5764 9.47525C48.1682 7.14963 44.3161 7.19553 42.0164 9.57698L34.5057 17.3545C29.894 22.1301 27.8909 23.5237 22.6409 18.4539Z" fill="white"/>
<path fill-rule="evenodd" clip-rule="evenodd" d="M29.6626 -10.721L37.4781 -3.17371C39.0221 -1.68268 39.0649 0.800903 37.5735 2.34529L30.0245 10.1625C28.5331 11.7069 26.0498 11.7505 24.5058 10.2595L16.6903 2.71218C15.1463 1.22115 15.1032 -1.26222 16.5946 -2.8066L24.1436 -10.6238C25.635 -12.1682 28.1186 -12.2121 29.6626 -10.721Z" fill="white"/>
<path fill-rule="evenodd" clip-rule="evenodd" d="M35.9491 49.125L29.2502 42.656C27.9266 41.3777 25.7981 41.4151 24.5196 42.7391L18.0491 49.4395C16.7708 50.7632 16.8075 52.8919 18.1311 54.1701L24.83 60.6392C26.1534 61.9172 28.2821 61.8796 29.5604 60.5558L36.0309 53.8554C37.3094 52.5315 37.2725 50.403 35.9491 49.125Z" fill="white"/>
</g>
<g opacity="0.582335">
<path fill-rule="evenodd" clip-rule="evenodd" d="M89.8365 18.0973L81.1368 8.43524C78.8966 5.9473 75.0094 5.72176 72.5493 7.93678L60.096 19.1498C57.6358 21.365 57.4559 25.2131 59.6961 27.7011L71.035 40.2943C73.2752 42.7822 77.1208 43.0053 79.5811 40.7901L88.7879 32.5002C94.0775 27.8957 95.5801 28.8574 99.738 33.4752L108.27 42.9506C110.51 45.4386 114.356 45.6619 116.816 43.4467L129.269 32.2339C131.729 30.0187 131.909 26.1704 129.669 23.6824L118.33 11.0892C116.09 8.60129 112.244 8.37837 109.784 10.5936L101.749 17.8283C96.8155 22.2705 94.72 23.521 89.8365 18.0973Z" fill="white"/>
<path fill-rule="evenodd" clip-rule="evenodd" d="M98.8762 -10.5168L106.146 -2.44264C107.582 -0.847541 107.452 1.63298 105.856 3.06958L97.7805 10.3411C96.185 11.7777 93.7047 11.6481 92.2684 10.053L84.9984 1.97883C83.5622 0.383728 83.6925 -2.09659 85.288 -3.53318L93.3639 -10.8047C94.9594 -12.2413 97.44 -12.1119 98.8762 -10.5168Z" fill="white"/>
<path fill-rule="evenodd" clip-rule="evenodd" d="M100.973 49.622L94.7415 42.7015C93.5102 41.334 91.3843 41.2229 90.0165 42.4544L83.0944 48.6871C81.7269 49.9185 81.615 52.0445 82.8462 53.412L89.0775 60.3326C90.3086 61.6998 92.4347 61.8107 93.8023 60.5794L100.724 54.3467C102.092 53.1151 102.204 50.9893 100.973 49.622Z" fill="white"/>
</g>
<g opacity="0.396771">
<path fill-rule="evenodd" clip-rule="evenodd" d="M157.056 17.7778L149.051 7.53238C146.99 4.89423 143.128 4.39808 140.519 6.43611L127.314 16.7531C124.705 18.7913 124.258 22.6175 126.319 25.2557L136.752 38.6091C138.813 41.2473 142.634 41.7381 145.242 39.6999L155.005 32.0725C160.603 27.8481 162.035 28.9123 165.86 33.8089L173.71 43.8564C175.772 46.4946 179.592 46.9856 182.201 44.9474L195.406 34.6307C198.015 32.5924 198.463 28.766 196.402 26.1279L185.969 12.7744C183.908 10.1363 180.087 9.6456 177.478 11.6838L168.958 18.3404C163.727 22.4276 161.549 23.5289 157.056 17.7778Z" fill="white"/>
<path fill-rule="evenodd" clip-rule="evenodd" d="M168.069 -10.136L174.758 -1.57446C176.08 0.116946 175.777 2.58232 174.085 3.90412L165.521 10.5946C163.83 11.9164 161.364 11.614 160.043 9.92264L153.354 1.36105C152.032 -0.330349 152.335 -2.79554 154.027 -4.11733L162.591 -10.8078C164.282 -12.1296 166.748 -11.8274 168.069 -10.136Z" fill="white"/>
<path fill-rule="evenodd" clip-rule="evenodd" d="M165.966 50.0026L160.232 42.6642C159.1 41.2142 156.987 40.955 155.536 42.0881L148.196 47.8228C146.746 48.9557 146.486 51.0688 147.619 52.5188L153.352 59.8572C154.485 61.307 156.598 61.566 158.048 60.433L165.388 54.6983C166.839 53.5652 167.098 51.4523 165.966 50.0026Z" fill="white"/>
</g>
<g opacity="0.0279347">
<path fill-rule="evenodd" clip-rule="evenodd" d="M224.296 17.4968L217.026 6.71798C215.153 3.94247 211.335 3.17813 208.591 5.02923L194.698 14.3999C191.954 16.2512 191.24 20.0368 193.112 22.8124L202.588 36.8611C204.46 39.6366 208.237 40.3927 210.982 38.5415L221.253 31.6136C227.132 27.79 228.486 28.9515 231.961 34.103L239.091 44.6737C240.963 47.4492 244.74 48.2056 247.485 46.3543L261.377 36.9838C264.122 35.1325 264.836 31.3467 262.964 28.5712L253.488 14.5225C251.616 11.747 247.838 10.991 245.094 12.8423L236.13 18.8883C230.626 22.6007 228.377 23.5474 224.296 17.4968Z" fill="white"/>
<path fill-rule="evenodd" clip-rule="evenodd" d="M237.23 -9.5807L243.305 -0.573368C244.506 1.20609 244.031 3.64431 242.251 4.84487L233.242 10.9217C231.462 12.1223 229.024 11.6487 227.824 9.86921L221.748 0.861878C220.548 -0.917585 221.022 -3.35563 222.802 -4.55619L231.811 -10.633C233.591 -11.8336 236.03 -11.3602 237.23 -9.5807Z" fill="white"/>
<path fill-rule="evenodd" clip-rule="evenodd" d="M230.936 50.2646L225.729 42.5442C224.7 41.0187 222.61 40.6127 221.084 41.6419L213.362 46.8506C211.837 47.8796 211.43 49.9695 212.459 51.4949L217.666 59.2154C218.695 60.7406 220.785 61.1464 222.311 60.1174L230.033 54.9087C231.559 53.8795 231.965 51.7899 230.936 50.2646Z" fill="white"/>
</g>
<g opacity="0.121356">
<path fill-rule="evenodd" clip-rule="evenodd" d="M291.554 17.2557L285.054 5.99599C283.38 3.09665 279.624 2.06784 276.757 3.723L262.245 12.1018C259.378 13.7571 258.402 17.4837 260.076 20.383L268.549 35.0585C270.223 37.9579 273.938 38.9757 276.805 37.3204L287.534 31.1259C293.665 27.7217 294.935 28.9748 298.042 34.3561L304.417 45.3984C306.091 48.2977 309.807 49.3158 312.674 47.6605L327.186 39.2819C330.053 37.6266 331.029 33.8998 329.355 31.0005L320.883 16.325C319.209 13.4256 315.493 12.408 312.626 14.0633L303.263 19.4693C297.513 22.7887 295.203 23.5762 291.554 17.2557Z" fill="white"/>
<path fill-rule="evenodd" clip-rule="evenodd" d="M306.346 -8.85365L311.778 0.555542C312.851 2.4144 312.208 4.81358 310.349 5.88705L300.937 11.3206C299.078 12.3941 296.679 11.7516 295.606 9.89273L290.173 0.483532C289.1 -1.37532 289.743 -3.77435 291.602 -4.84783L301.014 -10.2814C302.873 -11.3549 305.272 -10.7125 306.346 -8.85365Z" fill="white"/>
<path fill-rule="evenodd" clip-rule="evenodd" d="M295.893 50.4069L291.237 42.342C290.317 40.7485 288.26 40.1978 286.666 41.118L278.6 45.7753C277.006 46.6954 276.454 48.7518 277.374 50.3454L282.031 58.4102C282.951 60.0035 285.007 60.5541 286.601 59.634L294.668 54.9767C296.262 54.0564 296.813 52.0002 295.893 50.4069Z" fill="white"/>
</g>
<g opacity="0.639427">
<path fill-rule="evenodd" clip-rule="evenodd" d="M358.828 17.0557L353.129 5.36999C351.661 2.36095 347.986 1.07268 345.011 2.52382L329.95 9.86984C326.974 11.3211 325.74 14.9706 327.208 17.9796L334.637 33.2104C336.104 36.2195 339.739 37.494 342.715 36.0427L353.85 30.6117C360.204 27.6435 361.383 28.9821 364.107 34.5671L369.697 46.0272C371.164 49.0362 374.8 50.311 377.775 48.8597L392.837 41.5138C395.812 40.0626 397.046 36.4129 395.578 33.4039L388.15 18.1731C386.682 15.1641 383.047 13.8897 380.071 15.341L370.353 20.0807C364.386 22.991 362.027 23.6154 358.828 17.0557Z" fill="white"/>
<path fill-rule="evenodd" clip-rule="evenodd" d="M375.405 -7.95816L380.168 1.80706C381.108 3.73625 380.299 6.0847 378.37 7.02587L368.602 11.7897C366.673 12.7309 364.324 11.9226 363.383 9.99336L358.62 0.228143C357.679 -1.70105 358.488 -4.04937 360.418 -4.99053L370.185 -9.75439C372.115 -10.6956 374.464 -9.88735 375.405 -7.95816Z" fill="white"/>
<path fill-rule="evenodd" clip-rule="evenodd" d="M360.844 50.4289L356.761 42.0588C355.955 40.405 353.942 39.7121 352.288 40.5189L343.916 44.6022C342.262 45.4089 341.568 47.4218 342.375 49.0756L346.457 57.4457C347.263 59.0993 349.277 59.792 350.931 58.9853L359.303 54.902C360.957 54.0952 361.65 52.0824 360.844 50.4289Z" fill="white"/>
</g>
<g opacity="0.714784">
<path fill-rule="evenodd" clip-rule="evenodd" d="M426.115 16.8978L421.244 4.84295C419.99 1.73886 416.414 0.197416 413.345 1.43748L397.808 7.71496C394.738 8.95514 393.253 12.5097 394.507 15.6138L400.855 31.3256C402.109 34.4297 405.647 35.9547 408.716 34.7145L420.203 30.0735C426.749 27.5558 427.832 28.9734 430.159 34.7348L434.936 46.5568C436.19 49.6609 439.727 51.1862 442.797 49.946L458.334 43.6686C461.404 42.4285 462.889 38.8738 461.635 35.7697L455.287 20.0578C454.033 16.9538 450.495 15.4289 447.425 16.6691L437.401 20.7194C431.245 23.2063 428.849 23.6647 426.115 16.8978Z" fill="white"/>
<path fill-rule="evenodd" clip-rule="evenodd" d="M444.396 -6.89883L448.466 3.17484C449.27 5.16497 448.299 7.45126 446.308 8.25552L436.232 12.3264C434.241 13.1307 431.955 12.1605 431.151 10.1704L427.081 0.0967163C426.277 -1.89341 427.248 -4.17958 429.238 -4.98384L439.314 -9.05476C441.305 -9.85903 443.592 -8.88895 444.396 -6.89883Z" fill="white"/>
<path fill-rule="evenodd" clip-rule="evenodd" d="M425.797 50.3302L422.309 41.6958C421.619 39.9897 419.66 39.1582 417.953 39.8476L409.317 43.337C407.611 44.0263 406.778 45.9859 407.468 47.692L410.956 56.3264C411.645 58.0322 413.605 58.8637 415.311 58.1743L423.948 54.685C425.654 53.9955 426.486 52.0361 425.797 50.3302Z" fill="white"/>
</g>
</g>
</svg>
