<svg width="456" height="470" viewBox="0 0 456 470" fill="none" xmlns="http://www.w3.org/2000/svg">
<g opacity="0.1">
<g opacity="0.985423">
<path fill-rule="evenodd" clip-rule="evenodd" d="M290.572 470.352L292.778 457.841C293.346 454.619 291.18 451.49 287.992 450.928L271.855 448.083C268.667 447.52 265.594 449.697 265.026 452.918L262.151 469.225C261.583 472.447 263.726 475.542 266.914 476.104L278.844 478.208C285.577 479.512 285.74 481.247 284.686 487.227L282.522 499.496C281.954 502.718 284.098 505.814 287.286 506.376L303.422 509.221C306.61 509.784 309.684 507.607 310.252 504.386L313.127 488.079C313.695 484.858 311.551 481.762 308.363 481.2L297.952 479.364C291.559 478.237 289.334 477.375 290.572 470.352Z" fill="white"/>
<path fill-rule="evenodd" clip-rule="evenodd" d="M318.06 460.102L316.217 470.557C315.853 472.622 313.863 474.014 311.796 473.649L301.331 471.804C299.263 471.44 297.87 469.452 298.234 467.386L300.078 456.931C300.442 454.866 302.431 453.474 304.499 453.839L314.963 455.684C317.031 456.048 318.425 458.036 318.06 460.102Z" fill="white"/>
</g>
<g opacity="0.597538">
<path fill-rule="evenodd" clip-rule="evenodd" d="M356.297 470.577L359.37 458.25C360.162 455.076 358.218 451.803 355.078 451.02L339.179 447.056C336.038 446.273 332.82 448.229 332.029 451.404L328.023 467.47C327.232 470.644 329.154 473.882 332.295 474.665L344.049 477.596C350.674 479.366 350.717 481.109 349.248 487L346.234 499.089C345.442 502.263 347.365 505.501 350.506 506.284L366.404 510.248C369.545 511.031 372.763 509.075 373.554 505.901L377.56 489.834C378.352 486.66 376.429 483.422 373.288 482.639L363.03 480.082C356.731 478.511 354.571 477.496 356.297 470.577Z" fill="white"/>
<path fill-rule="evenodd" clip-rule="evenodd" d="M384.433 462.269L381.865 472.57C381.357 474.605 379.275 475.855 377.238 475.347L366.928 472.776C364.891 472.268 363.64 470.188 364.147 468.153L366.715 457.852C367.223 455.817 369.304 454.567 371.341 455.075L381.652 457.646C383.689 458.154 384.94 460.234 384.433 462.269Z" fill="white"/>
</g>
<g opacity="0.949687">
<path fill-rule="evenodd" clip-rule="evenodd" d="M422.004 470.841L425.93 458.759C426.941 455.647 425.231 452.247 422.152 451.247L406.569 446.183C403.49 445.183 400.144 446.91 399.133 450.022L394.016 465.769C393.005 468.881 394.697 472.245 397.776 473.245L409.297 476.988C415.783 479.216 415.703 480.958 413.827 486.732L409.977 498.582C408.966 501.693 410.658 505.057 413.736 506.057L429.32 511.121C432.399 512.121 435.745 510.394 436.756 507.283L441.873 491.535C442.884 488.424 441.191 485.06 438.113 484.059L428.058 480.792C421.884 478.786 419.801 477.624 422.004 470.841Z" fill="white"/>
<path fill-rule="evenodd" clip-rule="evenodd" d="M450.651 464.516L447.371 474.613C446.723 476.608 444.559 477.709 442.562 477.06L432.456 473.776C430.46 473.128 429.356 470.965 430.004 468.97L433.285 458.874C433.933 456.879 436.097 455.778 438.093 456.427L448.2 459.71C450.196 460.359 451.3 462.522 450.651 464.516Z" fill="white"/>
</g>
<g opacity="0.0502465">
<path fill-rule="evenodd" clip-rule="evenodd" d="M35.7734 412.435L47.9855 408.934C51.1301 408.032 52.9927 404.713 52.1005 401.601L47.5839 385.85C46.6917 382.739 43.3886 380.93 40.244 381.832L24.3272 386.396C21.1826 387.298 19.3399 390.581 20.2322 393.693L23.5713 405.338C25.3508 411.961 23.8627 412.869 18.0261 414.542L6.04982 417.976C2.90524 418.878 1.06224 422.162 1.95452 425.274L6.47099 441.024C7.36328 444.136 10.6664 445.945 13.811 445.043L29.7278 440.479C32.8724 439.577 34.715 436.293 33.8227 433.181L30.9086 423.019C29.1193 416.779 28.9182 414.401 35.7734 412.435Z" fill="white"/>
<path fill-rule="evenodd" clip-rule="evenodd" d="M57.0361 432.648L46.831 435.575C44.8149 436.153 42.692 434.974 42.1134 432.956L39.1844 422.742C38.6058 420.724 39.7818 418.6 41.7979 418.022L52.0029 415.095C54.019 414.517 56.1419 415.695 56.7205 417.713L59.6495 427.928C60.2281 429.946 59.0522 432.07 57.0361 432.648Z" fill="white"/>
<path fill-rule="evenodd" clip-rule="evenodd" d="M3.3144 408.704L12.0615 406.196C13.7898 405.7 14.7978 403.88 14.3017 402.15L11.7912 393.394C11.2952 391.665 9.47566 390.655 7.74731 391.15L-0.999759 393.659C-2.72781 394.154 -3.7357 395.975 -3.23973 397.704L-0.729209 406.46C-0.233152 408.19 1.58634 409.199 3.3144 408.704Z" fill="white"/>
</g>
<g opacity="0.135909">
<path fill-rule="evenodd" clip-rule="evenodd" d="M231.249 414.276L243.922 413.39C247.186 413.161 249.698 410.302 249.472 407.073L248.329 390.727C248.103 387.498 245.248 385.042 241.985 385.271L225.467 386.426C222.203 386.654 219.718 389.483 219.944 392.712L220.789 404.797C221.153 411.644 219.508 412.223 213.451 412.647L201.023 413.516C197.76 413.744 195.274 416.573 195.5 419.802L196.643 436.148C196.869 439.377 199.724 441.833 202.987 441.604L219.505 440.449C222.768 440.221 225.253 437.392 225.028 434.163L224.29 423.616C223.837 417.141 224.135 414.773 231.249 414.276Z" fill="white"/>
<path fill-rule="evenodd" clip-rule="evenodd" d="M247.845 438.468L237.254 439.208C235.162 439.354 233.33 437.761 233.184 435.666L232.443 425.066C232.296 422.972 233.888 421.139 235.98 420.993L246.571 420.252C248.663 420.106 250.495 421.699 250.641 423.794L251.382 434.394C251.529 436.488 249.937 438.321 247.845 438.468Z" fill="white"/>
<path fill-rule="evenodd" clip-rule="evenodd" d="M200.275 403.877L209.353 403.242C211.146 403.117 212.511 401.546 212.385 399.751L211.75 390.665C211.624 388.87 210.054 387.503 208.261 387.629L199.183 388.264C197.39 388.389 196.026 389.96 196.151 391.755L196.787 400.841C196.912 402.637 198.482 404.002 200.275 403.877Z" fill="white"/>
</g>
<g opacity="0.293484">
<path fill-rule="evenodd" clip-rule="evenodd" d="M296.226 414.935H308.994C312.281 414.935 315 412.281 315 409.073V392.833C315 389.625 312.31 387 309.022 387H292.382C289.094 387 286.405 389.625 286.405 392.833V404.84C286.289 411.635 284.6 412.094 278.498 412.094H265.978C262.69 412.094 260 414.718 260 417.927V434.166C260 437.375 262.69 440 265.978 440H282.618C285.906 440 288.595 437.375 288.595 434.166V423.688C288.595 417.255 289.06 414.935 296.226 414.935Z" fill="white"/>
<path fill-rule="evenodd" clip-rule="evenodd" d="M311.168 440H300.499C298.391 440 296.667 438.297 296.667 436.217V425.685C296.667 423.605 298.391 421.902 300.499 421.902H311.168C313.276 421.902 315 423.605 315 425.685V436.217C315 438.297 313.276 440 311.168 440Z" fill="white"/>
<path fill-rule="evenodd" clip-rule="evenodd" d="M265.904 402.512H275.048C276.855 402.512 278.333 401.053 278.333 399.27V390.243C278.333 388.459 276.855 387 275.048 387H265.904C264.097 387 262.619 388.459 262.619 390.243V399.27C262.619 401.053 264.097 402.512 265.904 402.512Z" fill="white"/>
</g>
<g opacity="0.309301">
<path fill-rule="evenodd" clip-rule="evenodd" d="M361.353 415.487L374.026 416.373C377.289 416.602 380.175 414.12 380.401 410.891L381.544 394.545C381.769 391.316 379.284 388.487 376.021 388.259L359.503 387.104C356.239 386.875 353.385 389.331 353.159 392.56L352.314 404.645C351.721 411.476 350.012 411.821 343.955 411.397L331.526 410.528C328.263 410.3 325.408 412.755 325.182 415.984L324.039 432.33C323.814 435.559 326.299 438.388 329.562 438.617L346.08 439.772C349.344 440 352.198 437.544 352.424 434.315L353.162 423.768C353.614 417.293 354.239 414.99 361.353 415.487Z" fill="white"/>
<path fill-rule="evenodd" clip-rule="evenodd" d="M374.42 441.753L363.829 441.013C361.737 440.867 360.145 439.033 360.292 436.939L361.033 426.339C361.179 424.244 363.011 422.651 365.103 422.797L375.694 423.538C377.786 423.684 379.378 425.517 379.231 427.611L378.49 438.212C378.344 440.306 376.512 441.9 374.42 441.753Z" fill="white"/>
<path fill-rule="evenodd" clip-rule="evenodd" d="M332.128 400.879L341.205 401.514C342.999 401.639 344.568 400.273 344.694 398.478L345.329 389.392C345.455 387.597 344.09 386.026 342.297 385.9L333.219 385.266C331.426 385.14 329.856 386.506 329.731 388.301L329.095 397.387C328.97 399.183 330.334 400.754 332.128 400.879Z" fill="white"/>
</g>
<g opacity="0.692281">
<path fill-rule="evenodd" clip-rule="evenodd" d="M426.342 416.079L438.922 417.848C442.162 418.303 445.213 416.028 445.664 412.823L447.944 396.597C448.395 393.391 446.113 390.396 442.873 389.94L426.476 387.636C423.237 387.181 420.218 389.431 419.767 392.637L418.081 404.633C417.013 411.407 415.284 411.631 409.272 410.786L396.934 409.052C393.695 408.597 390.675 410.847 390.225 414.052L387.944 430.278C387.494 433.484 389.776 436.48 393.015 436.935L409.413 439.239C412.652 439.695 415.671 437.444 416.122 434.239L417.593 423.769C418.496 417.341 419.28 415.087 426.342 416.079Z" fill="white"/>
<path fill-rule="evenodd" clip-rule="evenodd" d="M437.545 443.193L427.032 441.716C424.955 441.424 423.495 439.484 423.787 437.405L425.266 426.882C425.558 424.803 427.496 423.341 429.573 423.633L440.086 425.111C442.163 425.403 443.623 427.342 443.331 429.421L441.852 439.944C441.56 442.023 439.622 443.485 437.545 443.193Z" fill="white"/>
<path fill-rule="evenodd" clip-rule="evenodd" d="M398.207 399.468L407.218 400.735C408.998 400.985 410.66 399.732 410.91 397.95L412.178 388.93C412.428 387.148 411.177 385.486 409.396 385.235L400.385 383.969C398.605 383.719 396.944 384.972 396.693 386.754L395.426 395.773C395.175 397.556 396.427 399.218 398.207 399.468Z" fill="white"/>
</g>
<g opacity="0.271926">
<path fill-rule="evenodd" clip-rule="evenodd" d="M287.721 357.026L289.927 369.537C290.495 372.759 293.601 374.958 296.789 374.396L312.926 371.551C316.114 370.988 318.257 367.892 317.689 364.671L314.814 348.364C314.246 345.143 311.173 342.967 307.985 343.529L296.055 345.632C289.282 346.71 288.535 345.135 287.481 339.156L285.317 326.886C284.749 323.664 281.676 321.488 278.488 322.05L262.351 324.896C259.163 325.458 257.02 328.554 257.588 331.775L260.463 348.082C261.031 351.304 264.104 353.479 267.292 352.917L277.704 351.081C284.097 349.954 286.483 350.003 287.721 357.026Z" fill="white"/>
<path fill-rule="evenodd" clip-rule="evenodd" d="M265.396 376.059L263.553 365.604C263.189 363.539 264.582 361.551 266.65 361.186L277.114 359.341C279.182 358.976 281.171 360.368 281.536 362.433L283.379 372.888C283.743 374.954 282.35 376.942 280.282 377.307L269.818 379.152C267.75 379.516 265.76 378.125 265.396 376.059Z" fill="white"/>
<path fill-rule="evenodd" clip-rule="evenodd" d="M294.825 325.135L296.405 334.096C296.717 335.867 298.422 337.06 300.195 336.747L309.164 335.165C310.936 334.853 312.131 333.149 311.819 331.378L310.239 322.417C309.927 320.647 308.221 319.454 306.449 319.766L297.479 321.348C295.707 321.66 294.513 323.364 294.825 325.135Z" fill="white"/>
</g>
<g opacity="0.828313">
<path fill-rule="evenodd" clip-rule="evenodd" d="M352.259 357.01L353.587 369.645C353.929 372.898 356.875 375.309 360.094 374.97L376.39 373.258C379.609 372.919 381.963 369.98 381.622 366.727L379.891 350.259C379.549 347.006 376.635 344.621 373.416 344.96L361.368 346.226C354.537 346.828 353.901 345.205 353.266 339.167L351.964 326.776C351.622 323.523 348.708 321.137 345.489 321.476L329.193 323.188C325.974 323.527 323.619 326.466 323.961 329.719L325.692 346.187C326.034 349.44 328.948 351.825 332.167 351.487L342.682 350.381C349.138 349.703 351.514 349.918 352.259 357.01Z" fill="white"/>
<path fill-rule="evenodd" clip-rule="evenodd" d="M328.661 374.44L327.552 363.882C327.332 361.796 328.861 359.91 330.949 359.69L341.517 358.58C343.605 358.36 345.493 359.887 345.712 361.973L346.821 372.531C347.041 374.617 345.512 376.503 343.424 376.723L332.856 377.833C330.768 378.053 328.881 376.526 328.661 374.44Z" fill="white"/>
<path fill-rule="evenodd" clip-rule="evenodd" d="M361.571 325.692L362.522 334.742C362.71 336.53 364.328 337.839 366.117 337.651L375.176 336.699C376.965 336.511 378.276 334.894 378.088 333.106L377.137 324.056C376.949 322.268 375.331 320.96 373.541 321.148L364.483 322.1C362.693 322.288 361.383 323.904 361.571 325.692Z" fill="white"/>
</g>
<g opacity="0.0506713">
<path fill-rule="evenodd" clip-rule="evenodd" d="M416.801 356.952L417.244 369.648C417.358 372.917 420.128 375.528 423.363 375.415L439.739 374.843C442.974 374.73 445.527 371.962 445.413 368.693L444.835 352.145C444.721 348.876 441.981 346.293 438.746 346.406L426.639 346.829C419.783 346.953 419.262 345.29 419.05 339.222L418.615 326.77C418.501 323.501 415.76 320.918 412.525 321.031L396.15 321.603C392.915 321.716 390.361 324.484 390.475 327.753L391.053 344.301C391.167 347.571 393.908 350.153 397.143 350.04L407.709 349.671C414.196 349.444 416.552 349.824 416.801 356.952Z" fill="white"/>
<path fill-rule="evenodd" clip-rule="evenodd" d="M392.044 372.693L391.674 362.083C391.601 359.987 393.257 358.212 395.355 358.139L405.975 357.768C408.073 357.695 409.85 359.35 409.923 361.446L410.293 372.056C410.366 374.152 408.71 375.926 406.612 376L395.992 376.37C393.894 376.444 392.117 374.789 392.044 372.693Z" fill="white"/>
<path fill-rule="evenodd" clip-rule="evenodd" d="M428.274 326.36L428.591 335.454C428.654 337.251 430.177 338.669 431.975 338.606L441.078 338.288C442.876 338.226 444.296 336.704 444.233 334.907L443.916 325.813C443.853 324.017 442.33 322.598 440.532 322.661L431.43 322.979C429.631 323.042 428.211 324.563 428.274 326.36Z" fill="white"/>
</g>
<g opacity="0.720749">
<path fill-rule="evenodd" clip-rule="evenodd" d="M213.965 285.218L202.359 290.385C199.37 291.715 197.988 295.262 199.304 298.219L205.969 313.188C207.286 316.145 210.808 317.476 213.797 316.145L228.923 309.41C231.912 308.08 233.28 304.572 231.963 301.614L227.036 290.548C224.352 284.237 225.699 283.131 231.246 280.661L242.628 275.594C245.616 274.263 246.984 270.755 245.668 267.798L239.003 252.829C237.686 249.871 234.164 248.54 231.175 249.871L216.048 256.606C213.06 257.936 211.692 261.445 213.009 264.402L217.309 274.06C219.949 279.991 220.479 282.317 213.965 285.218Z" fill="white"/>
<path fill-rule="evenodd" clip-rule="evenodd" d="M190.096 268.161L199.794 263.843C201.71 262.99 203.976 263.861 204.83 265.779L209.152 275.486C210.006 277.404 209.137 279.671 207.221 280.524L197.523 284.842C195.607 285.695 193.341 284.824 192.487 282.906L188.165 273.199C187.311 271.281 188.18 269.014 190.096 268.161Z" fill="white"/>
<path fill-rule="evenodd" clip-rule="evenodd" d="M246.627 284.396L238.314 288.097C236.672 288.828 235.927 290.771 236.659 292.415L240.363 300.736C241.095 302.379 243.038 303.126 244.68 302.395L252.993 298.694C254.635 297.963 255.38 296.019 254.648 294.376L250.944 286.055C250.212 284.411 248.269 283.664 246.627 284.396Z" fill="white"/>
</g>
<g opacity="0.397144">
<path fill-rule="evenodd" clip-rule="evenodd" d="M278.984 284.618L267.046 288.963C263.972 290.082 262.345 293.523 263.452 296.564L269.057 311.962C270.164 315.004 273.585 316.577 276.659 315.458L292.219 309.795C295.293 308.676 296.902 305.272 295.795 302.23L291.651 290.847C289.414 284.364 290.835 283.355 296.541 281.278L308.249 277.017C311.323 275.898 312.932 272.494 311.825 269.452L306.221 254.054C305.113 251.012 301.692 249.439 298.618 250.558L283.059 256.221C279.985 257.34 278.375 260.744 279.483 263.786L283.099 273.721C285.319 279.821 285.685 282.179 278.984 284.618Z" fill="white"/>
<path fill-rule="evenodd" clip-rule="evenodd" d="M256.363 265.937L266.339 262.306C268.31 261.589 270.51 262.616 271.228 264.589L274.862 274.574C275.58 276.547 274.555 278.748 272.584 279.465L262.608 283.096C260.637 283.814 258.438 282.787 257.72 280.814L254.085 270.829C253.367 268.856 254.392 266.655 256.363 265.937Z" fill="white"/>
<path fill-rule="evenodd" clip-rule="evenodd" d="M311.624 286.076L303.073 289.188C301.384 289.803 300.505 291.69 301.121 293.381L304.236 301.939C304.851 303.63 306.737 304.511 308.426 303.896L316.977 300.784C318.666 300.169 319.545 298.282 318.929 296.591L315.814 288.033C315.199 286.341 313.313 285.461 311.624 286.076Z" fill="white"/>
</g>
<g opacity="0.0418853">
<path fill-rule="evenodd" clip-rule="evenodd" d="M344.046 284.01L331.833 287.512C328.689 288.414 326.826 291.733 327.718 294.844L332.235 310.595C333.127 313.707 336.43 315.515 339.575 314.613L355.492 310.049C358.636 309.148 360.479 305.864 359.587 302.752L356.248 291.107C354.468 284.485 355.956 283.577 361.793 281.903L373.769 278.469C376.914 277.567 378.757 274.284 377.864 271.172L373.348 255.421C372.456 252.309 369.153 250.501 366.008 251.403L350.091 255.967C346.947 256.868 345.104 260.152 345.996 263.264L348.91 273.427C350.7 279.667 350.901 282.044 344.046 284.01Z" fill="white"/>
<path fill-rule="evenodd" clip-rule="evenodd" d="M322.783 263.797L332.988 260.871C335.004 260.293 337.127 261.471 337.706 263.489L340.635 273.704C341.213 275.722 340.037 277.846 338.021 278.424L327.816 281.35C325.8 281.928 323.677 280.75 323.098 278.732L320.17 268.518C319.591 266.5 320.767 264.375 322.783 263.797Z" fill="white"/>
<path fill-rule="evenodd" clip-rule="evenodd" d="M376.505 287.742L367.758 290.25C366.029 290.746 365.021 292.566 365.517 294.296L368.028 303.051C368.524 304.781 370.343 305.791 372.072 305.295L380.819 302.787C382.547 302.292 383.555 300.471 383.059 298.741L380.548 289.986C380.052 288.256 378.233 287.246 376.505 287.742Z" fill="white"/>
</g>
<g opacity="0.12321">
<path fill-rule="evenodd" clip-rule="evenodd" d="M409.15 283.398L396.723 286.039C393.523 286.719 391.434 289.9 392.107 293.066L395.514 309.094C396.187 312.261 399.355 314.295 402.555 313.615L418.752 310.172C421.952 309.492 424.019 306.345 423.346 303.178L420.827 291.329C419.514 284.598 421.062 283.796 427.001 282.534L439.188 279.943C442.387 279.263 444.455 276.116 443.782 272.95L440.375 256.922C439.702 253.756 436.533 251.721 433.333 252.402L417.137 255.844C413.937 256.524 411.87 259.672 412.543 262.838L414.741 273.179C416.091 279.529 416.125 281.915 409.15 283.398Z" fill="white"/>
<path fill-rule="evenodd" clip-rule="evenodd" d="M389.349 261.751L399.733 259.543C401.785 259.107 403.82 260.431 404.257 262.484L406.466 272.878C406.903 274.932 405.581 276.969 403.53 277.405L393.145 279.612C391.094 280.048 389.058 278.725 388.622 276.671L386.413 266.277C385.976 264.224 387.297 262.187 389.349 261.751Z" fill="white"/>
<path fill-rule="evenodd" clip-rule="evenodd" d="M441.269 289.384L432.369 291.276C430.61 291.65 429.478 293.396 429.852 295.156L431.745 304.065C432.119 305.825 433.864 306.96 435.623 306.586L444.524 304.694C446.282 304.32 447.414 302.574 447.04 300.814L445.147 291.905C444.772 290.145 443.028 289.011 441.269 289.384Z" fill="white"/>
</g>
<g opacity="0.2">
<path fill-rule="evenodd" clip-rule="evenodd" d="M87.4458 210.371L78.945 200.93C76.7561 198.499 72.9563 198.28 70.5508 200.446L58.3738 211.41C55.9681 213.576 55.791 217.338 57.9799 219.769L69.0595 232.074C71.2485 234.505 75.0075 234.722 77.4132 232.556L86.4159 224.45C91.5881 219.947 93.0565 220.887 97.1193 225.399L105.456 234.658C107.645 237.089 111.404 237.306 113.81 235.14L125.987 224.176C128.392 222.009 128.57 218.248 126.381 215.817L115.301 203.512C113.112 201.081 109.353 200.864 106.947 203.03L99.0906 210.104C94.2664 214.448 92.2176 215.671 87.4458 210.371Z" fill="white"/>
<path fill-rule="evenodd" clip-rule="evenodd" d="M96.292 182.4L103.396 190.289C104.799 191.848 104.671 194.272 103.111 195.677L95.2138 202.787C93.6537 204.192 91.2292 204.066 89.8258 202.508L82.7221 194.618C81.3187 193.06 81.4469 190.635 83.007 189.23L90.9038 182.12C92.4639 180.715 94.8886 180.841 96.292 182.4Z" fill="white"/>
<path fill-rule="evenodd" clip-rule="evenodd" d="M98.3208 241.181L92.232 234.419C91.0289 233.083 88.9509 232.975 87.6135 234.179L80.8448 240.273C79.5077 241.477 79.3976 243.556 80.6006 244.892L86.6895 251.654C87.8923 252.99 89.9706 253.098 91.3078 251.894L98.0764 245.799C99.4138 244.595 99.5237 242.517 98.3208 241.181Z" fill="white"/>
</g>
<g opacity="0.413883">
<path fill-rule="evenodd" clip-rule="evenodd" d="M153.128 210.059L145.306 200.048C143.292 197.47 139.517 196.987 136.966 198.98L124.054 209.068C121.503 211.061 121.064 214.8 123.078 217.378L133.272 230.426C135.286 233.004 139.021 233.483 141.572 231.49L151.118 224.031C156.592 219.901 157.991 220.94 161.73 225.725L169.4 235.543C171.414 238.121 175.149 238.599 177.7 236.606L190.612 226.518C193.163 224.525 193.602 220.785 191.588 218.207L181.394 205.159C179.38 202.582 175.645 202.103 173.094 204.096L164.763 210.605C159.647 214.602 157.518 215.679 153.128 210.059Z" fill="white"/>
<path fill-rule="evenodd" clip-rule="evenodd" d="M163.904 182.773L170.44 191.139C171.731 192.791 171.434 195.201 169.779 196.494L161.406 203.036C159.752 204.328 157.342 204.033 156.051 202.381L149.514 194.015C148.223 192.362 148.52 189.953 150.174 188.66L158.548 182.118C160.202 180.826 162.612 181.12 163.904 182.773Z" fill="white"/>
<path fill-rule="evenodd" clip-rule="evenodd" d="M161.827 241.553L156.225 234.382C155.118 232.965 153.053 232.712 151.634 233.82L144.457 239.428C143.039 240.536 142.784 242.601 143.891 244.018L149.494 251.189C150.6 252.605 152.666 252.858 154.084 251.75L161.261 246.142C162.679 245.034 162.934 242.969 161.827 241.553Z" fill="white"/>
</g>
<g opacity="0.418195">
<path fill-rule="evenodd" clip-rule="evenodd" d="M218.83 209.785L211.726 199.252C209.897 196.54 206.165 195.794 203.481 197.605L189.897 206.767C187.213 208.578 186.514 212.278 188.343 214.99L197.603 228.717C199.432 231.429 203.124 232.167 205.808 230.357L215.851 223.583C221.6 219.844 222.923 220.979 226.318 226.012L233.285 236.341C235.115 239.053 238.807 239.791 241.491 237.981L255.075 228.818C257.759 227.008 258.458 223.308 256.629 220.596L247.369 206.868C245.54 204.156 241.847 203.419 239.164 205.229L230.399 211.141C225.017 214.771 222.818 215.697 218.83 209.785Z" fill="white"/>
<path fill-rule="evenodd" clip-rule="evenodd" d="M231.483 183.316L237.42 192.118C238.593 193.857 238.128 196.24 236.388 197.414L227.578 203.356C225.838 204.53 223.454 204.067 222.282 202.329L216.345 193.527C215.172 191.789 215.637 189.406 217.377 188.232L226.186 182.29C227.927 181.116 230.311 181.578 231.483 183.316Z" fill="white"/>
<path fill-rule="evenodd" clip-rule="evenodd" d="M225.312 241.808L220.223 234.264C219.218 232.774 217.175 232.377 215.683 233.384L208.132 238.477C206.64 239.483 206.242 241.526 207.248 243.016L212.336 250.56C213.341 252.051 215.384 252.447 216.876 251.44L224.427 246.347C225.919 245.341 226.317 243.298 225.312 241.808Z" fill="white"/>
</g>
<g opacity="0.566988">
<path fill-rule="evenodd" clip-rule="evenodd" d="M284.551 209.549L278.199 198.547C276.563 195.714 272.892 194.71 270.089 196.328L255.898 204.521C253.095 206.14 252.139 209.782 253.775 212.615L262.054 226.955C263.69 229.788 267.322 230.781 270.125 229.163L280.616 223.106C286.612 219.777 287.853 221.001 290.889 226.26L297.118 237.049C298.754 239.882 302.386 240.876 305.189 239.258L319.379 231.065C322.183 229.446 323.138 225.804 321.503 222.971L313.224 208.631C311.588 205.798 307.956 204.804 305.152 206.423L295.997 211.709C290.375 214.955 288.116 215.725 284.551 209.549Z" fill="white"/>
<path fill-rule="evenodd" clip-rule="evenodd" d="M299.019 184.028L304.327 193.222C305.376 195.038 304.746 197.383 302.928 198.433L293.726 203.746C291.908 204.796 289.562 204.168 288.514 202.352L283.205 193.158C282.157 191.342 282.786 188.997 284.604 187.947L293.807 182.634C295.625 181.585 297.971 182.212 299.019 184.028Z" fill="white"/>
<path fill-rule="evenodd" clip-rule="evenodd" d="M288.782 241.947L284.233 234.066C283.334 232.509 281.323 231.972 279.765 232.871L271.877 237.425C270.319 238.325 269.779 240.335 270.678 241.892L275.228 249.772C276.127 251.329 278.137 251.867 279.695 250.967L287.583 246.413C289.142 245.513 289.681 243.504 288.782 241.947Z" fill="white"/>
</g>
<g opacity="0.692395">
<path fill-rule="evenodd" clip-rule="evenodd" d="M350.286 209.354L344.717 197.935C343.283 194.995 339.691 193.737 336.781 195.156L322.054 202.339C319.144 203.758 317.937 207.325 319.371 210.265L326.63 225.148C328.064 228.088 331.618 229.332 334.527 227.913L345.416 222.603C351.628 219.7 352.781 221.008 355.443 226.465L360.904 237.664C362.338 240.604 365.892 241.849 368.802 240.429L383.529 233.246C386.439 231.827 387.646 228.26 386.212 225.32L378.953 210.438C377.519 207.498 373.965 206.253 371.056 207.672L361.553 212.307C355.719 215.152 353.412 215.763 350.286 209.354Z" fill="white"/>
<path fill-rule="evenodd" clip-rule="evenodd" d="M366.5 184.904L371.153 194.446C372.073 196.331 371.281 198.626 369.394 199.547L359.844 204.205C357.957 205.125 355.661 204.336 354.741 202.451L350.087 192.909C349.168 191.024 349.96 188.729 351.846 187.808L361.397 183.15C363.284 182.23 365.58 183.019 366.5 184.904Z" fill="white"/>
<path fill-rule="evenodd" clip-rule="evenodd" d="M352.248 241.968L348.259 233.789C347.47 232.173 345.503 231.496 343.885 232.285L335.699 236.278C334.082 237.067 333.403 239.034 334.191 240.65L338.18 248.829C338.968 250.444 340.936 251.121 342.554 250.332L350.74 246.339C352.357 245.55 353.036 243.583 352.248 241.968Z" fill="white"/>
</g>
<g opacity="0.532348">
<path fill-rule="evenodd" clip-rule="evenodd" d="M416.034 209.2L411.275 197.42C410.049 194.387 406.553 192.882 403.552 194.094L388.36 200.233C385.358 201.445 383.905 204.919 385.131 207.952L391.333 223.305C392.559 226.338 396.017 227.827 399.019 226.615L410.251 222.077C416.651 219.615 417.71 221 419.984 226.629L424.651 238.181C425.877 241.214 429.335 242.704 432.337 241.491L447.529 235.353C450.53 234.14 451.984 230.666 450.758 227.633L444.555 212.281C443.33 209.248 439.871 207.758 436.87 208.971L427.067 212.931C421.049 215.363 418.705 215.812 416.034 209.2Z" fill="white"/>
<path fill-rule="evenodd" clip-rule="evenodd" d="M433.913 185.94L437.89 195.784C438.676 197.728 437.726 199.963 435.779 200.749L425.927 204.73C423.981 205.516 421.745 204.569 420.96 202.624L416.983 192.781C416.197 190.836 417.147 188.602 419.093 187.815L428.946 183.835C430.892 183.048 433.128 183.996 433.913 185.94Z" fill="white"/>
<path fill-rule="evenodd" clip-rule="evenodd" d="M415.715 241.871L412.307 233.434C411.633 231.767 409.717 230.955 408.049 231.629L399.604 235.041C397.935 235.715 397.121 237.63 397.795 239.297L401.203 247.734C401.877 249.401 403.793 250.213 405.461 249.539L413.906 246.127C415.575 245.453 416.389 243.538 415.715 241.871Z" fill="white"/>
</g>
<g opacity="0.3">
<path fill-rule="evenodd" clip-rule="evenodd" d="M33.0832 146.189L40.1873 135.656C42.0166 132.944 41.3099 129.204 38.6265 127.394L25.042 118.231C22.3582 116.421 18.6657 117.159 16.8365 119.871L7.57718 133.599C5.74789 136.311 6.44696 140.011 9.1307 141.821L19.1739 148.595C24.7939 152.524 24.2375 154.177 20.8423 159.21L13.8753 169.539C12.046 172.251 12.7449 175.951 15.4287 177.762L29.0129 186.924C31.6966 188.734 35.3894 187.996 37.2187 185.284L46.4779 171.557C48.3072 168.845 47.6079 165.145 44.9242 163.335L36.1594 157.423C30.7776 153.793 29.0953 152.101 33.0832 146.189Z" fill="white"/>
<path fill-rule="evenodd" clip-rule="evenodd" d="M62.364 148.005L56.4274 156.806C55.2546 158.545 52.8709 159.007 51.1305 157.833L42.321 151.891C40.5806 150.717 40.1162 148.334 41.289 146.595L47.2256 137.794C48.3984 136.055 50.7818 135.593 52.5222 136.767L61.3317 142.709C63.0721 143.883 63.5368 146.266 62.364 148.005Z" fill="white"/>
<path fill-rule="evenodd" clip-rule="evenodd" d="M5.81961 164.194L10.908 156.65C11.9135 155.16 11.5155 153.117 10.0235 152.111L2.47253 147.018C0.980785 146.012 -1.06228 146.407 -2.0677 147.898L-7.15612 155.442C-8.16138 156.932 -7.76313 158.975 -6.27138 159.981L1.27954 165.074C2.77154 166.081 4.81435 165.685 5.81961 164.194Z" fill="white"/>
</g>
<g opacity="0.234001">
<path fill-rule="evenodd" clip-rule="evenodd" d="M98.6669 146.627L106.488 136.615C108.502 134.038 108.058 130.258 105.508 128.265L92.5955 118.177C90.0446 116.184 86.3096 116.662 84.2956 119.24L74.1013 132.288C72.0873 134.866 72.5266 138.606 75.0775 140.599L84.6236 148.057C89.9559 152.369 89.2856 153.978 85.5475 158.763L77.877 168.58C75.863 171.158 76.3021 174.898 78.853 176.891L91.765 186.979C94.3159 188.972 98.0511 188.494 100.065 185.916L110.259 172.868C112.273 170.29 111.834 166.55 109.283 164.557L100.952 158.048C95.8366 154.051 94.2764 152.246 98.6669 146.627Z" fill="white"/>
<path fill-rule="evenodd" clip-rule="evenodd" d="M127.75 150.481L121.214 158.847C119.922 160.5 117.512 160.794 115.858 159.502L107.484 152.96C105.83 151.667 105.533 149.258 106.824 147.605L113.36 139.239C114.652 137.586 117.062 137.292 118.716 138.584L127.089 145.126C128.744 146.419 129.041 148.828 127.75 150.481Z" fill="white"/>
<path fill-rule="evenodd" clip-rule="evenodd" d="M70.2138 162.686L75.816 155.516C76.923 154.099 76.6684 152.034 75.2503 150.926L68.073 145.318C66.6551 144.211 64.5894 144.463 63.4824 145.88L57.8802 153.05C56.7734 154.467 57.0282 156.532 58.4461 157.64L65.6234 163.248C67.0415 164.356 69.107 164.103 70.2138 162.686Z" fill="white"/>
</g>
<g opacity="0.3768">
<path fill-rule="evenodd" clip-rule="evenodd" d="M164.219 147.094L172.72 137.653C174.909 135.221 174.729 131.42 172.324 129.254L160.147 118.289C157.741 116.123 153.982 116.34 151.793 118.771L140.713 131.077C138.525 133.508 138.702 137.269 141.108 139.435L150.11 147.541C155.129 152.214 154.348 153.773 150.285 158.285L141.948 167.544C139.759 169.975 139.937 173.736 142.342 175.902L154.519 186.866C156.925 189.032 160.684 188.816 162.873 186.385L173.953 174.079C176.142 171.648 175.964 167.887 173.559 165.721L165.702 158.647C160.878 154.303 159.447 152.393 164.219 147.094Z" fill="white"/>
<path fill-rule="evenodd" clip-rule="evenodd" d="M192.962 152.968L185.858 160.857C184.455 162.416 182.03 162.541 180.47 161.137L172.573 154.026C171.013 152.622 170.885 150.197 172.288 148.639L179.392 140.749C180.795 139.19 183.22 139.065 184.78 140.469L192.677 147.58C194.237 148.984 194.365 151.409 192.962 152.968Z" fill="white"/>
<path fill-rule="evenodd" clip-rule="evenodd" d="M134.715 161.13L140.804 154.367C142.007 153.031 141.897 150.953 140.559 149.749L133.791 143.654C132.454 142.45 130.375 142.558 129.172 143.894L123.083 150.657C121.881 151.993 121.991 154.071 123.328 155.275L130.096 161.369C131.434 162.573 133.512 162.466 134.715 161.13Z" fill="white"/>
</g>
<g opacity="0.0374312">
<path fill-rule="evenodd" clip-rule="evenodd" d="M295.221 148.105L304.953 139.939C307.459 137.836 307.811 134.047 305.73 131.567L295.197 119.015C293.116 116.535 289.364 116.227 286.858 118.329L274.173 128.973C271.667 131.076 271.319 134.825 273.4 137.305L281.187 146.585C285.506 151.911 284.516 153.346 279.865 157.248L270.321 165.257C267.815 167.36 267.467 171.109 269.548 173.589L280.08 186.141C282.161 188.621 285.914 188.929 288.42 186.827L301.104 176.183C303.61 174.08 303.958 170.331 301.877 167.851L295.081 159.752C290.909 154.779 289.758 152.689 295.221 148.105Z" fill="white"/>
<path fill-rule="evenodd" clip-rule="evenodd" d="M322.867 157.922L314.734 164.746C313.128 166.094 310.709 165.881 309.359 164.273L302.529 156.133C301.18 154.525 301.39 152.106 302.997 150.758L311.129 143.934C312.736 142.586 315.154 142.799 316.504 144.407L323.334 152.547C324.684 154.155 324.473 156.574 322.867 157.922Z" fill="white"/>
<path fill-rule="evenodd" clip-rule="evenodd" d="M264.05 157.899L271.021 152.049C272.399 150.894 272.579 148.821 271.422 147.442L265.568 140.465C264.411 139.086 262.338 138.904 260.961 140.06L253.99 145.909C252.613 147.064 252.433 149.138 253.589 150.516L259.444 157.493C260.601 158.872 262.673 159.054 264.05 157.899Z" fill="white"/>
</g>
<g opacity="0.266013">
<path fill-rule="evenodd" clip-rule="evenodd" d="M360.667 148.645L370.945 141.178C373.592 139.255 374.207 135.499 372.304 132.88L362.673 119.624C360.77 117.005 357.048 116.436 354.401 118.358L341.005 128.091C338.359 130.014 337.75 133.73 339.653 136.349L346.774 146.149C350.711 151.764 349.623 153.126 344.711 156.695L334.631 164.018C331.985 165.941 331.376 169.657 333.279 172.276L342.91 185.532C344.813 188.151 348.535 188.72 351.182 186.798L364.578 177.065C367.224 175.142 367.833 171.426 365.93 168.807L359.716 160.254C355.9 155.002 354.898 152.837 360.667 148.645Z" fill="white"/>
<path fill-rule="evenodd" clip-rule="evenodd" d="M387.561 160.367L378.972 166.607C377.275 167.84 374.877 167.458 373.644 165.76L367.398 157.163C366.164 155.465 366.542 153.067 368.239 151.834L376.828 145.594C378.525 144.361 380.922 144.742 382.156 146.44L388.402 155.037C389.636 156.736 389.258 159.134 387.561 160.367Z" fill="white"/>
<path fill-rule="evenodd" clip-rule="evenodd" d="M328.89 156.24L336.251 150.892C337.706 149.835 338.03 147.779 336.973 146.323L331.619 138.955C330.561 137.499 328.506 137.172 327.052 138.229L319.69 143.578C318.235 144.634 317.911 146.69 318.969 148.146L324.322 155.514C325.38 156.97 327.435 157.297 328.89 156.24Z" fill="white"/>
</g>
<g opacity="0.641975">
<path fill-rule="evenodd" clip-rule="evenodd" d="M426.075 149.204L436.849 142.472C439.623 140.738 440.499 137.034 438.784 134.289L430.1 120.393C428.385 117.648 424.711 116.821 421.937 118.554L407.895 127.329C405.121 129.062 404.255 132.726 405.97 135.472L412.39 145.745C415.926 151.621 414.745 152.904 409.596 156.121L399.03 162.723C396.256 164.457 395.39 168.121 397.105 170.867L405.788 184.762C407.504 187.508 411.177 188.336 413.951 186.602L427.994 177.828C430.768 176.094 431.634 172.429 429.919 169.684L424.316 160.718C420.876 155.213 420.027 152.983 426.075 149.204Z" fill="white"/>
<path fill-rule="evenodd" clip-rule="evenodd" d="M452.086 162.773L443.083 168.399C441.304 169.51 438.938 168.963 437.826 167.183L432.195 158.171C431.082 156.391 431.628 154.025 433.406 152.913L442.409 147.288C444.188 146.176 446.553 146.724 447.666 148.504L453.297 157.515C454.409 159.296 453.864 161.662 452.086 162.773Z" fill="white"/>
<path fill-rule="evenodd" clip-rule="evenodd" d="M393.845 154.564L401.562 149.742C403.087 148.789 403.554 146.761 402.6 145.235L397.774 137.511C396.82 135.985 394.793 135.516 393.268 136.469L385.551 141.291C384.027 142.243 383.56 144.271 384.513 145.797L389.34 153.521C390.293 155.048 392.321 155.517 393.845 154.564Z" fill="white"/>
</g>
<g opacity="0.879642">
<path fill-rule="evenodd" clip-rule="evenodd" d="M34.3712 92.2177L45.9771 97.385C48.9656 98.7155 52.5259 97.3702 53.8425 94.4132L60.5072 79.444C61.8239 76.4867 60.4558 72.9784 57.4673 71.6479L42.3406 64.913C39.3521 63.5825 35.8299 64.9134 34.5132 67.8707L29.5859 78.9376C26.6921 85.1546 24.9685 84.8936 19.4217 82.424L8.0399 77.3565C5.05142 76.0259 1.52888 77.3567 0.212202 80.314L-6.4524 95.2829C-7.76907 98.2402 -6.40113 101.749 -3.41265 103.079L11.7141 109.814C14.7026 111.145 18.225 109.814 19.5416 106.856L23.8417 97.198C26.4821 91.2677 27.8563 89.3171 34.3712 92.2177Z" fill="white"/>
<path fill-rule="evenodd" clip-rule="evenodd" d="M37.6668 121.369L27.9683 117.051C26.0523 116.198 25.1834 113.931 26.0373 112.013L30.3594 102.305C31.2132 100.388 33.4794 99.5164 35.3954 100.369L45.0939 104.688C47.0099 105.541 47.8788 107.808 47.025 109.725L42.7029 119.433C41.8491 121.351 39.5828 122.222 37.6668 121.369Z" fill="white"/>
<path fill-rule="evenodd" clip-rule="evenodd" d="M11.9049 68.4949L20.2178 72.196C21.8603 72.9273 23.8026 72.1807 24.5346 70.5366L28.2392 62.216C28.9711 60.5722 28.2264 58.6289 26.5838 57.8976L18.271 54.1965C16.6287 53.4653 14.6863 54.2122 13.9544 55.856L10.2498 64.1766C9.51781 65.8207 10.2626 67.7637 11.9049 68.4949Z" fill="white"/>
</g>
<g opacity="0.757494">
<path fill-rule="evenodd" clip-rule="evenodd" d="M99.1675 92.7182L110.385 98.6825C113.273 100.218 116.919 99.1246 118.438 96.2666L126.131 81.7987C127.651 78.9405 126.531 75.3454 123.642 73.8096L109.022 66.0359C106.134 64.5002 102.527 65.5821 101.008 68.4404L95.3203 79.1366C91.9999 85.1366 90.2987 84.756 84.9377 81.9055L73.9371 76.0564C71.0487 74.5206 67.4419 75.6024 65.9221 78.4607L58.2296 92.9282C56.7098 95.7865 57.8297 99.3819 60.7181 100.918L75.3382 108.691C78.2266 110.227 81.8332 109.145 83.353 106.287L88.3164 96.9518C91.364 91.2202 92.8709 89.3702 99.1675 92.7182Z" fill="white"/>
<path fill-rule="evenodd" clip-rule="evenodd" d="M100.422 122.028L91.048 117.044C89.1962 116.06 88.4876 113.737 89.4732 111.884L94.4619 102.501C95.4474 100.648 97.7688 99.937 99.6207 100.922L108.994 105.906C110.846 106.89 111.555 109.212 110.569 111.066L105.581 120.448C104.595 122.302 102.274 123.013 100.422 122.028Z" fill="white"/>
<path fill-rule="evenodd" clip-rule="evenodd" d="M78.4107 67.4861L86.4452 71.7581C88.0327 72.6022 90.0224 71.9929 90.8673 70.4039L95.1432 62.3619C95.988 60.7732 95.3807 58.7827 93.7931 57.9386L85.7587 53.6666C84.1714 52.8226 82.1816 53.4322 81.3369 55.0209L77.0609 63.0629C76.216 64.6519 76.8235 66.6421 78.4107 67.4861Z" fill="white"/>
</g>
<g opacity="0.203978">
<path fill-rule="evenodd" clip-rule="evenodd" d="M163.93 93.1925L174.704 99.9247C177.478 101.658 181.191 100.822 182.906 98.0765L191.589 84.1805C193.305 81.4353 192.438 77.7708 189.664 76.0372L175.622 67.2627C172.847 65.5292 169.174 66.3569 167.459 69.1022L161.039 79.3757C157.308 85.1294 155.638 84.6311 150.489 81.4135L139.923 74.8113C137.149 73.0778 133.475 73.9054 131.76 76.6507L123.077 90.5464C121.361 93.2917 122.228 96.9564 125.002 98.6899L139.044 107.464C141.818 109.198 145.492 108.37 147.207 105.625L152.81 96.6589C156.25 91.1538 157.882 89.4134 163.93 93.1925Z" fill="white"/>
<path fill-rule="evenodd" clip-rule="evenodd" d="M163.136 122.519L154.133 116.893C152.354 115.782 151.81 113.416 152.922 111.635L158.553 102.624C159.666 100.843 162.031 100.296 163.809 101.408L172.813 107.033C174.591 108.145 175.136 110.511 174.024 112.291L168.393 121.302C167.28 123.083 164.915 123.63 163.136 122.519Z" fill="white"/>
<path fill-rule="evenodd" clip-rule="evenodd" d="M144.984 66.5739L152.701 71.3959C154.225 72.3487 156.253 71.8797 157.206 70.3535L162.033 62.6294C162.986 61.1035 162.519 59.0755 160.995 58.1227L153.278 53.3006C151.753 52.348 149.726 52.8173 148.772 54.3432L143.946 62.0673C142.992 63.5935 143.459 65.6213 144.984 66.5739Z" fill="white"/>
</g>
<g opacity="0.36733">
<path fill-rule="evenodd" clip-rule="evenodd" d="M228.66 93.6385L238.938 101.106C241.584 103.029 245.347 102.453 247.249 99.8343L256.881 86.5779C258.783 83.959 258.175 80.243 255.528 78.3201L242.132 68.5874C239.486 66.6646 235.764 67.2341 233.861 69.853L226.74 79.6537C222.617 85.1331 220.986 84.5195 216.073 80.9506L205.994 73.6274C203.347 71.7046 199.625 72.2739 197.722 74.8929L188.091 88.149C186.188 90.768 186.797 94.4842 189.444 96.407L202.839 106.14C205.486 108.063 209.208 107.493 211.111 104.874L217.325 96.3208C221.141 91.069 222.89 89.4467 228.66 93.6385Z" fill="white"/>
<path fill-rule="evenodd" clip-rule="evenodd" d="M225.823 122.838L217.234 116.598C215.537 115.365 215.159 112.967 216.393 111.268L222.638 102.672C223.872 100.973 226.27 100.592 227.967 101.825L236.556 108.065C238.253 109.298 238.631 111.696 237.397 113.395L231.151 121.991C229.917 123.69 227.519 124.071 225.823 122.838Z" fill="white"/>
<path fill-rule="evenodd" clip-rule="evenodd" d="M211.617 65.763L218.979 71.1116C220.433 72.1685 222.488 71.842 223.546 70.386L228.9 63.0174C229.957 61.5617 229.633 59.5061 228.178 58.4493L220.817 53.1007C219.362 52.044 217.307 52.3707 216.249 53.8264L210.896 61.195C209.838 62.651 210.162 64.7064 211.617 65.763Z" fill="white"/>
</g>
<g opacity="0.117312">
<path fill-rule="evenodd" clip-rule="evenodd" d="M293.36 94.0539L303.092 102.22C305.598 104.323 309.391 104.011 311.472 101.531L322.004 88.9791C324.085 86.4993 323.737 82.7499 321.231 80.6471L308.547 70.0037C306.041 67.9009 302.288 68.2094 300.207 70.6892L292.421 79.9693C287.925 85.1478 286.34 84.4218 281.689 80.5189L272.145 72.5105C269.639 70.4077 265.886 70.7161 263.805 73.1959L253.273 85.7479C251.192 88.2277 251.54 91.9774 254.046 94.0801L266.73 104.724C269.236 106.826 272.989 106.518 275.07 104.038L281.866 95.939C286.038 90.9662 287.897 89.4699 293.36 94.0539Z" fill="white"/>
<path fill-rule="evenodd" clip-rule="evenodd" d="M288.493 122.984L280.36 116.16C278.754 114.812 278.543 112.393 279.893 110.785L286.723 102.645C288.072 101.037 290.491 100.824 292.098 102.172L300.23 108.996C301.837 110.345 302.047 112.763 300.698 114.371L293.867 122.511C292.518 124.12 290.099 124.333 288.493 122.984Z" fill="white"/>
<path fill-rule="evenodd" clip-rule="evenodd" d="M278.303 65.0576L285.273 70.9066C286.651 72.0624 288.724 71.88 289.88 70.5014L295.735 63.5242C296.892 62.1458 296.711 60.0726 295.334 58.9169L288.363 53.0678C286.986 51.9122 284.913 52.0948 283.757 53.4732L277.902 60.4504C276.745 61.829 276.926 63.902 278.303 65.0576Z" fill="white"/>
</g>
<g opacity="0.0725138">
<path fill-rule="evenodd" clip-rule="evenodd" d="M358.032 94.4368L367.171 103.262C369.524 105.534 373.33 105.488 375.578 103.16L386.961 91.3725C389.21 89.0439 389.124 85.2793 386.771 83.0069L374.86 71.5045C372.507 69.2321 368.742 69.2781 366.493 71.6067L358.078 80.321C353.232 85.1733 351.702 84.3385 347.334 80.1207L338.372 71.466C336.019 69.1936 332.253 69.2393 330.005 71.568L318.622 83.3547C316.373 85.6834 316.459 89.4481 318.812 91.7206L330.723 103.223C333.076 105.495 336.842 105.449 339.09 103.121L346.434 95.5155C350.944 90.8459 352.902 89.4829 358.032 94.4368Z" fill="white"/>
<path fill-rule="evenodd" clip-rule="evenodd" d="M351.159 122.957L343.522 115.583C342.013 114.126 341.972 111.698 343.431 110.188L350.812 102.544C352.27 101.034 354.698 100.99 356.207 102.447L363.843 109.822C365.352 111.279 365.393 113.706 363.935 115.217L356.553 122.86C355.095 124.371 352.667 124.414 351.159 122.957Z" fill="white"/>
<path fill-rule="evenodd" clip-rule="evenodd" d="M345.034 64.4607L351.58 70.7818C352.873 72.0308 354.954 71.9935 356.204 70.699L362.531 64.1472C363.781 62.8528 363.746 60.772 362.453 59.523L355.907 53.2019C354.614 51.9532 352.533 51.9907 351.283 53.285L344.956 59.8368C343.706 61.1314 343.741 63.2119 345.034 64.4607Z" fill="white"/>
</g>
<g opacity="0.250402">
<path fill-rule="evenodd" clip-rule="evenodd" d="M422.679 94.7852L431.18 104.226C433.368 106.657 437.168 106.876 439.574 104.711L451.751 93.7463C454.156 91.5802 454.334 87.8188 452.145 85.3878L441.065 73.0826C438.876 70.6515 435.117 70.4347 432.711 72.6008L423.709 80.7068C418.536 85.2093 417.068 84.2698 413.005 79.7576L404.669 70.4988C402.48 68.0678 398.72 67.8508 396.315 70.0169L384.138 80.981C381.732 83.147 381.555 86.9086 383.744 89.3397L394.823 101.645C397.012 104.076 400.772 104.292 403.177 102.126L411.034 95.0522C415.858 90.7085 417.907 89.4855 422.679 94.7852Z" fill="white"/>
<path fill-rule="evenodd" clip-rule="evenodd" d="M413.833 122.757L406.729 114.867C405.325 113.309 405.454 110.884 407.014 109.479L414.911 102.369C416.471 100.964 418.895 101.09 420.299 102.649L427.402 110.538C428.806 112.097 428.678 114.521 427.118 115.926L419.221 123.036C417.661 124.441 415.236 124.315 413.833 122.757Z" fill="white"/>
<path fill-rule="evenodd" clip-rule="evenodd" d="M411.804 63.9754L417.892 70.7377C419.096 72.0739 421.174 72.1818 422.511 70.9776L429.28 64.8831C430.617 63.6791 430.727 61.6009 429.524 60.2648L423.435 53.5025C422.232 52.1665 420.154 52.0588 418.817 53.2628L412.048 59.3573C410.711 60.5615 410.601 62.6395 411.804 63.9754Z" fill="white"/>
</g>
<g opacity="0.477906">
<path fill-rule="evenodd" clip-rule="evenodd" d="M23.5222 30.2242L20.4488 42.5511C19.6574 45.7252 21.6005 48.9979 24.7412 49.7809L40.6404 53.745C43.7814 54.5282 46.9988 52.5717 47.7902 49.3976L51.796 33.3311C52.5874 30.157 50.665 26.9194 47.524 26.1362L35.7696 23.2055C29.1446 21.4353 29.1023 19.6926 30.5712 13.8012L33.5853 1.71232C34.3767 -1.46181 32.4545 -4.69974 29.3134 -5.48288L13.4146 -9.4469C10.2736 -10.23 7.05594 -8.27364 6.26454 -5.09951L2.25873 10.9669C1.46733 14.141 3.38996 17.3787 6.53098 18.1619L16.7892 20.7196C23.0879 22.29 25.2475 23.3046 23.5222 30.2242Z" fill="white"/>
<path fill-rule="evenodd" clip-rule="evenodd" d="M-4.614 38.5319L-2.04567 28.231C-1.53828 26.1959 0.543631 24.9466 2.5806 25.4545L12.8911 28.0252C14.9281 28.533 16.1795 30.6135 15.6721 32.6485L13.1038 42.9495C12.5964 44.9845 10.5147 46.2339 8.47777 45.7261L-1.83273 43.1554C-3.8697 42.6475 -5.12139 40.567 -4.614 38.5319Z" fill="white"/>
<path fill-rule="evenodd" clip-rule="evenodd" d="M42.9834 3.97979L40.782 12.8091C40.347 14.5537 41.4195 16.3368 43.1658 16.7722L52.0033 18.9756C53.7492 19.4109 55.5336 18.3401 55.9686 16.5955L58.17 7.76624C58.6049 6.02195 57.532 4.23873 55.7861 3.80342L46.9486 1.59998C45.2024 1.1646 43.4183 2.23549 42.9834 3.97979Z" fill="white"/>
</g>
<g opacity="0.328244">
<path fill-rule="evenodd" clip-rule="evenodd" d="M88.1202 29.96L84.1944 42.0424C83.1835 45.1536 84.8936 48.5539 87.9721 49.5541L103.556 54.6176C106.635 55.6179 109.981 53.8907 110.992 50.7795L116.108 35.0316C117.119 31.9204 115.427 28.5566 112.349 27.5562L100.827 23.8127C94.342 21.5847 94.4214 19.8432 96.2977 14.0687L100.148 2.21952C101.159 -0.891675 99.4669 -4.25581 96.3881 -5.25615L80.8046 -10.3196C77.7258 -11.3199 74.3795 -9.59272 73.3686 -6.48153L68.2518 9.26633C67.241 12.3775 68.933 15.7415 72.0118 16.7418L82.0666 20.0088C88.2404 22.0148 90.3239 23.1776 88.1202 29.96Z" fill="white"/>
<path fill-rule="evenodd" clip-rule="evenodd" d="M59.473 36.2847L62.7537 26.188C63.4018 24.1933 65.5658 23.0922 67.5623 23.741L77.6684 27.0246C79.665 27.6734 80.7682 29.836 80.1201 31.8307L76.8395 41.9274C76.1914 43.9221 74.0276 45.0233 72.0311 44.3745L61.925 41.0909C59.9284 40.4422 58.8249 38.2794 59.473 36.2847Z" fill="white"/>
<path fill-rule="evenodd" clip-rule="evenodd" d="M109.365 5.137L106.553 13.7912C105.997 15.5012 106.943 17.3548 108.654 17.911L117.317 20.7255C119.028 21.2815 120.883 20.3378 121.438 18.6278L124.25 9.9736C124.806 8.26389 123.86 6.41017 122.149 5.85414L113.486 3.03959C111.775 2.48346 109.92 3.42729 109.365 5.137Z" fill="white"/>
</g>
<g opacity="0.118787">
<path fill-rule="evenodd" clip-rule="evenodd" d="M152.738 29.6577L147.979 41.4369C146.754 44.47 148.222 47.9813 151.223 49.1938L166.416 55.3321C169.418 56.5447 172.876 55.0551 174.101 52.022L180.304 36.6694C181.53 33.6363 180.077 30.1626 177.075 28.95L165.843 24.4119C159.529 21.7369 159.73 20.0052 162.004 14.3756L166.671 2.82388C167.897 -0.209222 166.444 -3.68317 163.442 -4.89584L148.25 -11.034C145.249 -12.2466 141.79 -10.7571 140.564 -7.72398L134.362 7.62858C133.136 10.6617 134.589 14.1355 137.591 15.3481L147.393 19.3086C153.412 21.7403 155.41 23.0456 152.738 29.6577Z" fill="white"/>
<path fill-rule="evenodd" clip-rule="evenodd" d="M123.719 33.9688L127.696 24.1255C128.482 22.1809 130.718 21.2335 132.664 22.0199L142.516 26.0005C144.463 26.7869 145.413 29.0213 144.627 30.9659L140.65 40.8092C139.864 42.7538 137.629 43.7014 135.683 42.9149L125.83 38.9343C123.884 38.1479 122.934 35.9134 123.719 33.9688Z" fill="white"/>
<path fill-rule="evenodd" clip-rule="evenodd" d="M175.662 6.37721L172.254 14.8142C171.58 16.4813 172.394 18.3963 174.063 19.0705L182.507 22.4824C184.176 23.1565 186.092 22.3444 186.765 20.6774L190.174 12.2404C190.848 10.5736 190.033 8.65842 188.365 7.98436L179.92 4.57242C178.252 3.89825 176.336 4.71042 175.662 6.37721Z" fill="white"/>
</g>
<g opacity="0.478208">
<path fill-rule="evenodd" clip-rule="evenodd" d="M217.378 29.3189L211.809 40.7374C210.375 43.6777 211.595 47.2828 214.505 48.7017L229.232 55.8848C232.142 57.3039 235.695 56.0591 237.13 53.1189L244.388 38.2364C245.822 35.2962 244.615 31.7296 241.705 30.3105L230.817 25C224.705 21.8911 225.026 20.1776 227.688 14.7204L233.149 3.52234C234.583 0.582116 233.376 -2.98472 230.467 -4.40381L215.74 -11.5868C212.83 -13.0058 209.276 -11.7612 207.842 -8.82095L200.583 6.06153C199.149 9.00175 200.357 12.5685 203.266 13.9875L212.768 18.6221C218.603 21.4678 220.504 22.9092 217.378 29.3189Z" fill="white"/>
<path fill-rule="evenodd" clip-rule="evenodd" d="M188.13 31.5952L192.783 22.0533C193.703 20.1682 195.999 19.379 197.886 20.2993L207.437 24.9575C209.323 25.8778 210.115 28.1729 209.196 30.058L204.542 39.5999C203.622 41.485 201.326 42.2743 199.44 41.354L189.889 36.6958C188.002 35.7755 187.21 33.4803 188.13 31.5952Z" fill="white"/>
<path fill-rule="evenodd" clip-rule="evenodd" d="M241.871 7.69421L237.882 15.8729C237.094 17.4889 237.772 19.4561 239.389 20.245L247.576 24.2377C249.193 25.0265 251.161 24.3501 251.949 22.734L255.938 14.5554C256.726 12.9396 256.048 10.9723 254.43 10.1835L246.244 6.19083C244.627 5.40191 242.659 6.07845 241.871 7.69421Z" fill="white"/>
</g>
<g opacity="0.307678">
<path fill-rule="evenodd" clip-rule="evenodd" d="M282.043 28.9451L275.691 39.9473C274.056 42.7803 275.021 46.4618 277.825 48.0803L292.015 56.2732C294.819 57.8918 298.451 56.8979 300.086 54.0649L308.365 39.725C310.001 36.892 309.046 33.2499 306.242 31.6313L295.751 25.5742C289.871 22.0464 290.31 20.3596 293.346 15.1013L299.576 4.31151C301.211 1.47848 300.256 -2.16387 297.452 -3.78246L283.262 -11.9752C280.459 -13.5938 276.826 -12.6001 275.191 -9.76708L266.912 4.5728C265.276 7.40584 266.232 11.0481 269.035 12.6667L278.191 17.9528C283.813 21.1986 285.609 22.7691 282.043 28.9451Z" fill="white"/>
<path fill-rule="evenodd" clip-rule="evenodd" d="M252.707 29.1756L258.015 19.9815C259.064 18.1652 261.41 17.5381 263.228 18.5878L272.43 23.9008C274.248 24.9505 274.878 27.2953 273.829 29.1116L268.521 38.3056C267.472 40.122 265.127 40.7492 263.309 39.6996L254.106 34.3865C252.288 33.3368 251.659 30.9919 252.707 29.1756Z" fill="white"/>
<path fill-rule="evenodd" clip-rule="evenodd" d="M307.985 9.08162L303.435 16.9621C302.536 18.5192 303.075 20.5289 304.634 21.4287L312.522 25.9828C314.08 26.8824 316.09 26.345 316.989 24.7879L321.539 16.9074C322.438 15.3505 321.898 13.3407 320.34 12.441L312.452 7.88697C310.894 6.98714 308.883 7.52477 307.985 9.08162Z" fill="white"/>
</g>
<g opacity="0.300184">
<path fill-rule="evenodd" clip-rule="evenodd" d="M346.736 28.5382L339.632 39.0706C337.802 41.7826 338.509 45.5225 341.192 47.3325L354.777 56.4954C357.461 58.3056 361.153 57.5675 362.982 54.8555L372.242 41.128C374.071 38.416 373.372 34.7161 370.688 32.9059L360.645 26.1317C355.025 22.2024 355.581 20.5503 358.977 15.5166L365.944 5.18765C367.773 2.47562 367.074 -1.2245 364.39 -3.0347L350.806 -12.1974C348.122 -14.0076 344.429 -13.2697 342.6 -10.5576L333.341 3.16979C331.512 5.88182 332.211 9.58185 334.895 11.3921L343.659 17.304C349.041 20.934 350.724 22.626 346.736 28.5382Z" fill="white"/>
<path fill-rule="evenodd" clip-rule="evenodd" d="M317.455 26.7218L323.391 17.9205C324.564 16.1817 326.948 15.7198 328.688 16.8937L337.498 22.8357C339.238 24.0097 339.703 26.3926 338.53 28.1314L332.593 36.9328C331.42 38.6715 329.037 39.1336 327.297 37.9597L318.487 32.0176C316.747 30.8437 316.282 28.4606 317.455 26.7218Z" fill="white"/>
<path fill-rule="evenodd" clip-rule="evenodd" d="M373.999 10.5326L368.911 18.0765C367.905 19.5671 368.303 21.6096 369.795 22.6159L377.346 27.7091C378.838 28.7153 380.881 28.3194 381.887 26.8288L386.975 19.2849C387.98 17.7945 387.582 15.7519 386.09 14.7457L378.539 9.65254C377.047 8.64617 375.004 9.04227 373.999 10.5326Z" fill="white"/>
</g>
<g opacity="0.728945">
<path fill-rule="evenodd" clip-rule="evenodd" d="M411.458 28.1003L403.636 38.1114C401.622 40.6892 402.066 44.4692 404.617 46.4621L417.529 56.5502C420.08 58.5432 423.815 58.0645 425.829 55.4867L436.023 42.4386C438.037 39.8608 437.598 36.1211 435.047 34.1281L425.501 26.6699C420.169 22.3581 420.839 20.7488 424.577 15.9642L432.248 6.14641C434.262 3.56859 433.822 -0.171263 431.271 -2.16427L418.36 -12.2522C415.809 -14.2452 412.073 -13.7667 410.059 -11.1889L399.865 1.85922C397.851 4.43704 398.291 8.17684 400.841 10.1699L409.173 16.6788C414.288 20.6754 415.848 22.4806 411.458 28.1003Z" fill="white"/>
<path fill-rule="evenodd" clip-rule="evenodd" d="M382.375 24.2456L388.911 15.8799C390.202 14.2271 392.612 13.9326 394.267 15.2251L402.64 21.7672C404.294 23.0597 404.591 25.4692 403.3 27.1219L396.764 35.4877C395.473 37.1404 393.063 37.4352 391.409 36.1427L383.035 29.6006C381.381 28.3081 381.084 25.8984 382.375 24.2456Z" fill="white"/>
<path fill-rule="evenodd" clip-rule="evenodd" d="M439.911 12.0404L434.308 19.2109C433.202 20.6278 433.456 22.693 434.874 23.801L442.052 29.4085C443.469 30.5163 445.535 30.2638 446.642 28.847L452.244 21.6764C453.351 20.2598 453.096 18.1944 451.678 17.0866L444.501 11.4791C443.083 10.3711 441.018 10.6238 439.911 12.0404Z" fill="white"/>
</g>
</g>
</svg>
