<svg width="67" height="92" viewBox="0 0 67 92" fill="none" xmlns="http://www.w3.org/2000/svg">
<path d="M41.1462 22.2586L40.4642 22.99L41.9269 24.354L42.6089 23.6226L41.1462 22.2586ZM63.3369 0.965101C63.3176 0.413152 62.8545 -0.0186653 62.3026 0.000609171L53.3081 0.314704C52.7561 0.333978 52.3243 0.797046 52.3436 1.34899C52.3628 1.90094 52.8259 2.33276 53.3779 2.31349L61.373 2.03429L61.6522 10.0294C61.6715 10.5814 62.1345 11.0132 62.6865 10.9939C63.2384 10.9746 63.6702 10.5116 63.651 9.95962L63.3369 0.965101ZM1.82362 64.4782C1.83383 65.0304 2.28975 65.4698 2.84194 65.4596L11.8404 65.2932C12.3926 65.283 12.832 64.8271 12.8217 64.2749C12.8115 63.7227 12.3556 63.2834 11.8034 63.2936L3.8048 63.4414L3.65693 55.4428C3.64672 54.8906 3.19081 54.4513 2.63862 54.4615C2.08643 54.4717 1.64706 54.9276 1.65727 55.4798L1.82362 64.4782ZM24.3638 43.5491L25.0577 42.829L23.6176 41.4412L22.9237 42.1613L24.3638 43.5491ZM43.9325 41.2648L43.2011 40.5828L41.8372 42.0455L42.5685 42.7275L43.9325 41.2648ZM65.226 63.4555C65.778 63.4363 66.2098 62.9732 66.1905 62.4212L65.8764 53.4267C65.8571 52.8748 65.3941 52.443 64.8421 52.4622C64.2902 52.4815 63.8584 52.9446 63.8776 53.4965L64.1568 61.4916L56.1617 61.7708C55.6098 61.7901 55.1779 62.2532 55.1972 62.8051C55.2165 63.3571 55.6796 63.7889 56.2315 63.7696L65.226 63.4555ZM0.981516 1.26028C0.429326 1.27049 -0.0100374 1.7264 0.000170836 2.27859L0.166523 11.2771C0.176731 11.8292 0.632646 12.2686 1.18484 12.2584C1.73703 12.2482 2.17639 11.7923 2.16618 11.2401L2.01831 3.24146L10.0169 3.09359C10.5691 3.08338 11.0085 2.62747 10.9983 2.07528C10.9881 1.52308 10.5322 1.08372 9.97998 1.09393L0.981516 1.26028ZM21.9107 23.8005L22.6307 24.4944L24.0186 23.0543L23.2985 22.3603L21.9107 23.8005ZM42.6089 23.6226L63.0688 1.682L61.6061 0.318002L41.1462 22.2586L42.6089 23.6226ZM3.54351 65.1537L24.3638 43.5491L22.9237 42.1613L2.1034 63.7658L3.54351 65.1537ZM42.5685 42.7275L64.5091 63.1875L65.8731 61.7248L43.9325 41.2648L42.5685 42.7275ZM0.306084 2.98017L21.9107 23.8005L23.2985 22.3603L1.69392 1.54006L0.306084 2.98017Z" fill="white"/>
</svg>
