<svg width="456" height="470" viewBox="0 0 456 470" fill="none" xmlns="http://www.w3.org/2000/svg">
<g opacity="0.1">
<g opacity="0.170708">
<path fill-rule="evenodd" clip-rule="evenodd" d="M-12.6631 467.537L-3.9633 457.875C-1.72314 455.387 -1.90517 451.498 -4.3652 449.282L-16.8185 438.07C-19.2787 435.854 -23.1246 436.078 -25.3648 438.566L-36.7037 451.159C-38.9439 453.647 -38.7638 457.495 -36.3035 459.71L-27.0967 468C-21.9644 472.779 -22.7638 474.374 -26.9217 478.992L-35.4534 488.467C-37.6936 490.955 -37.5137 494.803 -35.0535 497.018L-22.6004 508.231C-20.1402 510.447 -16.2941 510.223 -14.0539 507.735L-2.71497 495.142C-0.474809 492.654 -0.655115 488.806 -3.11538 486.591L-11.1503 479.356C-16.0839 474.914 -17.5466 472.961 -12.6631 467.537Z" fill="white"/>
<path fill-rule="evenodd" clip-rule="evenodd" d="M16.7391 473.536L9.46917 481.61C8.03294 483.205 5.55236 483.335 3.95686 481.898L-4.11903 474.627C-5.71453 473.19 -5.84483 470.71 -4.40859 469.115L2.86138 461.041C4.29762 459.446 6.77797 459.316 8.37346 460.752L16.4494 468.024C18.0449 469.461 18.1754 471.941 16.7391 473.536Z" fill="white"/>
</g>
<g opacity="0.823948">
<path fill-rule="evenodd" clip-rule="evenodd" d="M54.3891 468.042L63.7416 459.011C66.1499 456.685 66.2396 452.792 63.9401 450.411L52.2993 438.357C49.9996 435.975 46.1475 435.93 43.7393 438.255L31.5495 450.027C29.1412 452.352 29.0525 456.204 31.3522 458.585L39.9583 467.497C44.7447 472.623 43.836 474.158 39.3662 478.474L30.1942 487.332C27.7859 489.657 27.6969 493.509 29.9967 495.89L41.6372 507.944C43.937 510.326 47.7893 510.371 50.1975 508.046L62.3873 496.274C64.7956 493.948 64.8841 490.097 62.5844 487.716L55.0737 479.938C50.462 475.163 49.1391 473.112 54.3891 468.042Z" fill="white"/>
<path fill-rule="evenodd" clip-rule="evenodd" d="M83.3012 476.078L75.4857 483.625C73.9417 485.116 71.4582 485.072 69.9668 483.528L62.4178 475.711C60.9264 474.166 60.9694 471.683 62.5134 470.192L70.3289 462.645C71.8729 461.154 74.3563 461.197 75.8477 462.742L83.3966 470.559C84.888 472.103 84.8452 474.587 83.3012 476.078Z" fill="white"/>
<path fill-rule="evenodd" clip-rule="evenodd" d="M23.2722 480.272L29.9711 473.803C31.2947 472.525 31.3316 470.396 30.0531 469.072L23.5826 462.372C22.3043 461.048 20.1756 461.011 18.852 462.289L12.1531 468.758C10.8297 470.036 10.793 472.164 12.0713 473.488L18.5418 480.189C19.8203 481.513 21.9488 481.55 23.2722 480.272Z" fill="white"/>
</g>
<g opacity="0.763678">
<path fill-rule="evenodd" clip-rule="evenodd" d="M121.405 468.572L131.365 460.215C133.929 458.063 134.29 454.186 132.163 451.65L121.391 438.813C119.263 436.277 115.424 435.963 112.859 438.115L99.8777 449.008C97.3131 451.16 96.9559 454.995 99.0839 457.531L107.047 467.022C111.465 472.469 110.451 473.937 105.691 477.931L95.9235 486.127C93.3588 488.279 93.0014 492.115 95.1294 494.651L105.901 507.487C108.029 510.024 111.868 510.338 114.433 508.186L127.414 497.293C129.979 495.141 130.336 491.306 128.208 488.77L121.258 480.487C116.991 475.401 115.814 473.264 121.405 468.572Z" fill="white"/>
<path fill-rule="evenodd" clip-rule="evenodd" d="M149.686 478.605L141.363 485.589C139.719 486.969 137.244 486.752 135.864 485.107L128.879 476.782C127.499 475.137 127.715 472.663 129.36 471.283L137.682 464.3C139.327 462.92 141.801 463.137 143.181 464.781L150.166 473.106C151.546 474.751 151.33 477.225 149.686 478.605Z" fill="white"/>
<path fill-rule="evenodd" clip-rule="evenodd" d="M89.5108 478.602L96.6446 472.616C98.0542 471.433 98.2395 469.312 97.0564 467.902L91.0691 460.767C89.8862 459.357 87.7653 459.171 86.3557 460.354L79.2219 466.34C77.8126 467.522 77.6275 469.643 78.8103 471.053L84.7977 478.189C85.9807 479.598 88.1014 479.784 89.5108 478.602Z" fill="white"/>
</g>
<g opacity="0.266349">
<path fill-rule="evenodd" clip-rule="evenodd" d="M188.383 469.125L198.902 461.483C201.61 459.515 202.241 455.672 200.295 452.994L190.445 439.437C188.499 436.759 184.691 436.178 181.982 438.146L168.273 448.106C165.565 450.074 164.941 453.875 166.887 456.553L174.169 466.576C178.195 472.318 177.082 473.712 172.054 477.365L161.739 484.859C159.031 486.827 158.406 490.628 160.352 493.307L170.202 506.864C172.148 509.542 175.956 510.123 178.665 508.155L192.374 498.195C195.083 496.227 195.707 492.426 193.761 489.747L187.405 481C183.503 475.629 182.479 473.415 188.383 469.125Z" fill="white"/>
<path fill-rule="evenodd" clip-rule="evenodd" d="M215.895 481.106L207.106 487.492C205.369 488.754 202.916 488.365 201.654 486.628L195.266 477.836C194.004 476.099 194.393 473.646 196.129 472.384L204.919 465.998C206.655 464.736 209.109 465.125 210.37 466.862L216.758 475.654C218.02 477.391 217.632 479.844 215.895 481.106Z" fill="white"/>
<path fill-rule="evenodd" clip-rule="evenodd" d="M155.867 476.905L163.401 471.431C164.89 470.349 165.222 468.247 164.141 466.758L158.666 459.222C157.584 457.733 155.481 457.4 153.993 458.481L146.459 463.955C144.97 465.037 144.638 467.139 145.719 468.628L151.194 476.164C152.276 477.653 154.379 477.986 155.867 476.905Z" fill="white"/>
</g>
<g opacity="0.442085">
<path fill-rule="evenodd" clip-rule="evenodd" d="M255.322 469.697L266.348 462.807C269.187 461.033 270.084 457.244 268.33 454.437L259.45 440.225C257.696 437.418 253.937 436.572 251.098 438.347L236.727 447.326C233.888 449.101 233 452.849 234.755 455.657L241.32 466.163C244.936 472.172 243.728 473.485 238.458 476.777L227.645 483.534C224.806 485.308 223.918 489.057 225.673 491.864L234.553 506.075C236.307 508.883 240.066 509.729 242.905 507.954L257.276 498.975C260.115 497.2 261.002 493.452 259.248 490.644L253.518 481.475C250 475.845 249.133 473.564 255.322 469.697Z" fill="white"/>
<path fill-rule="evenodd" clip-rule="evenodd" d="M281.932 483.568L272.718 489.325C270.897 490.463 268.477 489.903 267.34 488.083L261.581 478.867C260.443 477.046 261.002 474.626 262.822 473.489L272.036 467.731C273.856 466.594 276.276 467.153 277.414 468.973L283.172 478.189C284.31 480.01 283.752 482.43 281.932 483.568Z" fill="white"/>
<path fill-rule="evenodd" clip-rule="evenodd" d="M222.342 475.19L230.24 470.255C231.8 469.28 232.279 467.205 231.304 465.645L226.368 457.745C225.392 456.185 223.318 455.705 221.758 456.68L213.86 461.615C212.3 462.59 211.821 464.665 212.797 466.225L217.733 474.125C218.708 475.685 220.782 476.165 222.342 475.19Z" fill="white"/>
</g>
<g opacity="0.794511">
<path fill-rule="evenodd" clip-rule="evenodd" d="M322.22 470.286L333.7 464.182C336.656 462.61 337.815 458.893 336.261 455.97L328.394 441.174C326.84 438.251 323.149 437.145 320.193 438.717L305.231 446.673C302.275 448.244 301.128 451.922 302.683 454.845L308.499 465.784C311.687 472.03 310.39 473.255 304.904 476.173L293.646 482.159C290.69 483.73 289.543 487.408 291.097 490.331L298.964 505.127C300.518 508.05 304.209 509.156 307.165 507.584L322.127 499.628C325.083 498.057 326.23 494.379 324.675 491.456L319.599 481.909C316.483 476.048 315.776 473.712 322.22 470.286Z" fill="white"/>
<path fill-rule="evenodd" clip-rule="evenodd" d="M347.797 485.979L338.204 491.08C336.309 492.087 333.934 491.361 332.926 489.465L327.824 479.87C326.816 477.974 327.542 475.599 329.437 474.591L339.03 469.491C340.926 468.483 343.301 469.209 344.309 471.105L349.41 480.7C350.418 482.596 349.693 484.971 347.797 485.979Z" fill="white"/>
<path fill-rule="evenodd" clip-rule="evenodd" d="M288.938 473.465L297.16 469.093C298.785 468.229 299.407 466.193 298.543 464.568L294.17 456.343C293.306 454.719 291.27 454.096 289.646 454.96L281.423 459.332C279.799 460.195 279.177 462.231 280.041 463.856L284.414 472.081C285.278 473.706 287.313 474.328 288.938 473.465Z" fill="white"/>
</g>
<g opacity="0.182434">
<path fill-rule="evenodd" clip-rule="evenodd" d="M389.077 470.888L400.955 465.6C404.013 464.238 405.429 460.611 404.082 457.587L397.266 442.278C395.92 439.254 392.316 437.894 389.257 439.255L373.776 446.148C370.718 447.51 369.317 451.098 370.664 454.122L375.703 465.44C378.448 471.894 377.069 473.026 371.392 475.553L359.744 480.739C356.685 482.101 355.285 485.69 356.631 488.714L363.447 504.022C364.793 507.047 368.398 508.407 371.456 507.046L386.937 500.153C389.995 498.791 391.396 495.203 390.049 492.178L385.652 482.301C382.951 476.236 382.41 473.857 389.077 470.888Z" fill="white"/>
<path fill-rule="evenodd" clip-rule="evenodd" d="M413.497 488.328L403.572 492.747C401.611 493.62 399.292 492.729 398.419 490.768L393.999 480.84C393.125 478.879 394.015 476.56 395.976 475.687L405.902 471.268C407.862 470.395 410.181 471.285 411.054 473.247L415.474 483.174C416.348 485.136 415.458 487.455 413.497 488.328Z" fill="white"/>
<path fill-rule="evenodd" clip-rule="evenodd" d="M355.654 471.738L364.161 467.95C365.842 467.202 366.605 465.214 365.856 463.533L362.068 455.023C361.319 453.342 359.332 452.579 357.651 453.327L349.143 457.115C347.463 457.863 346.7 459.851 347.449 461.532L351.237 470.042C351.986 471.723 353.973 472.486 355.654 471.738Z" fill="white"/>
</g>
<g opacity="0.874295">
<path fill-rule="evenodd" clip-rule="evenodd" d="M455.891 471.502L468.109 467.055C471.255 465.91 472.92 462.391 471.788 459.28L466.056 443.533C464.924 440.422 461.423 438.814 458.278 439.959L442.354 445.755C439.208 446.9 437.56 450.382 438.693 453.493L442.93 465.135C445.218 471.764 443.763 472.797 437.924 474.922L425.942 479.283C422.796 480.428 421.149 483.91 422.281 487.021L428.012 502.768C429.144 505.879 432.645 507.487 435.791 506.342L451.715 500.546C454.861 499.401 456.508 495.919 455.376 492.808L451.678 482.648C449.407 476.41 449.033 473.998 455.891 471.502Z" fill="white"/>
<path fill-rule="evenodd" clip-rule="evenodd" d="M422.49 470.018L431.241 466.833C432.97 466.204 433.87 464.274 433.24 462.545L430.054 453.792C429.425 452.063 427.496 451.163 425.767 451.792L417.016 454.977C415.287 455.606 414.387 457.536 415.017 459.265L418.203 468.018C418.832 469.748 420.761 470.647 422.49 470.018Z" fill="white"/>
</g>
<g opacity="0.194496">
<path fill-rule="evenodd" clip-rule="evenodd" d="M-12.9575 412.421L-1.93156 419.311C0.907588 421.085 4.70641 420.23 6.4606 417.423L15.3407 403.211C17.0951 400.404 16.2073 396.655 13.3682 394.881L-1.00269 385.901C-3.84184 384.127 -7.60001 384.973 -9.35437 387.78L-15.9196 398.287C-19.7351 404.171 -21.4445 403.661 -26.7142 400.368L-37.5272 393.611C-40.3664 391.837 -44.1248 392.682 -45.8792 395.49L-54.7591 409.701C-56.5135 412.508 -55.6259 416.257 -52.7867 418.031L-38.4159 427.011C-35.5767 428.785 -31.8184 427.94 -30.064 425.132L-24.3345 415.963C-20.8165 410.333 -19.1469 408.553 -12.9575 412.421Z" fill="white"/>
</g>
<g opacity="0.332287">
<path fill-rule="evenodd" clip-rule="evenodd" d="M53.2876 412.877L63.8061 420.519C66.5146 422.487 70.3638 421.9 72.3095 419.222L82.1593 405.664C84.1053 402.986 83.4811 399.185 80.7727 397.217L67.0632 387.256C64.3547 385.288 60.5467 385.87 58.6008 388.548L51.3187 398.571C47.102 404.175 45.4324 403.547 40.4052 399.894L30.0899 392.4C27.3814 390.432 23.5731 391.013 21.6272 393.691L11.7775 407.248C9.83162 409.926 10.4556 413.728 13.1641 415.696L26.8735 425.656C29.582 427.624 33.3902 427.043 35.3361 424.364L41.6913 415.617C45.5934 410.246 47.3831 408.587 53.2876 412.877Z" fill="white"/>
<path fill-rule="evenodd" clip-rule="evenodd" d="M50.3946 442.745L41.6048 436.359C39.8683 435.098 39.4802 432.644 40.7422 430.907L47.1298 422.116C48.3917 420.379 50.8448 419.99 52.5813 421.251L61.3711 427.638C63.1076 428.899 63.4959 431.352 62.2339 433.089L55.8463 441.881C54.5844 443.618 52.1311 444.007 50.3946 442.745Z" fill="white"/>
<path fill-rule="evenodd" clip-rule="evenodd" d="M35.8403 384.357L43.3743 389.831C44.863 390.912 46.9655 390.579 48.0473 389.09L53.5224 381.554C54.604 380.065 54.2714 377.962 52.7827 376.881L45.2487 371.407C43.7603 370.326 41.6576 370.659 40.576 372.148L35.1009 379.684C34.0191 381.173 34.3519 383.275 35.8403 384.357Z" fill="white"/>
</g>
<g opacity="0.101247">
<path fill-rule="evenodd" clip-rule="evenodd" d="M119.502 413.302L129.462 421.66C132.026 423.812 135.907 423.494 138.035 420.958L148.807 408.121C150.935 405.585 150.577 401.749 148.012 399.597L135.031 388.705C132.467 386.553 128.627 386.867 126.499 389.403L118.536 398.894C113.939 404.19 112.317 403.446 107.557 399.452L97.7892 391.256C95.2246 389.104 91.3851 389.418 89.257 391.954L78.4857 404.791C76.3577 407.327 76.7149 411.163 79.2795 413.315L92.2608 424.208C94.8254 426.36 98.6649 426.045 100.793 423.509L107.743 415.227C112.01 410.141 113.911 408.611 119.502 413.302Z" fill="white"/>
<path fill-rule="evenodd" clip-rule="evenodd" d="M114.533 442.896L106.21 435.912C104.565 434.533 104.349 432.058 105.729 430.413L112.715 422.089C114.095 420.444 116.569 420.227 118.213 421.607L126.536 428.591C128.18 429.97 128.397 432.445 127.017 434.089L120.031 442.414C118.651 444.059 116.177 444.276 114.533 442.896Z" fill="white"/>
<path fill-rule="evenodd" clip-rule="evenodd" d="M104.087 383.634L111.22 389.62C112.63 390.803 114.751 390.617 115.934 389.207L121.921 382.072C123.104 380.662 122.919 378.541 121.509 377.359L114.375 371.373C112.966 370.19 110.845 370.376 109.662 371.786L103.675 378.921C102.492 380.331 102.677 382.452 104.087 383.634Z" fill="white"/>
</g>
<g opacity="0.222174">
<path fill-rule="evenodd" clip-rule="evenodd" d="M185.688 413.694L195.04 422.726C197.449 425.051 201.342 425.005 203.642 422.624L215.282 410.57C217.582 408.188 217.493 404.337 215.085 402.011L202.895 390.24C200.487 387.914 196.635 387.96 194.335 390.341L185.729 399.253C180.774 404.216 179.208 403.361 174.738 399.044L165.566 390.187C163.157 387.862 159.305 387.907 157.006 390.289L145.365 402.343C143.065 404.724 143.154 408.576 145.562 410.901L157.752 422.673C160.16 424.998 164.013 424.953 166.312 422.571L173.823 414.794C178.435 410.018 180.438 408.624 185.688 413.694Z" fill="white"/>
<path fill-rule="evenodd" clip-rule="evenodd" d="M178.666 442.869L170.851 435.322C169.307 433.831 169.264 431.347 170.755 429.803L178.304 421.986C179.796 420.441 182.279 420.398 183.823 421.889L191.638 429.436C193.182 430.927 193.225 433.41 191.734 434.955L184.185 442.772C182.694 444.316 180.21 444.36 178.666 442.869Z" fill="white"/>
<path fill-rule="evenodd" clip-rule="evenodd" d="M172.38 383.023L179.078 389.492C180.402 390.77 182.531 390.733 183.809 389.409L190.28 382.709C191.558 381.385 191.521 379.256 190.198 377.978L183.499 371.509C182.175 370.231 180.047 370.269 178.768 371.592L172.298 378.293C171.019 379.617 171.056 381.745 172.38 383.023Z" fill="white"/>
</g>
<g opacity="0.01">
<path fill-rule="evenodd" clip-rule="evenodd" d="M251.847 414.051L260.547 423.713C262.787 426.201 266.675 426.426 269.135 424.211L281.588 412.998C284.048 410.783 284.228 406.935 281.988 404.447L270.649 391.854C268.409 389.366 264.563 389.143 262.103 391.358L252.896 399.648C247.606 404.252 246.104 403.291 241.946 398.673L233.414 389.197C231.174 386.709 227.328 386.486 224.868 388.701L212.415 399.914C209.955 402.129 209.775 405.978 212.015 408.466L223.354 421.059C225.594 423.547 229.44 423.77 231.9 421.554L239.935 414.32C244.868 409.878 246.964 408.627 251.847 414.051Z" fill="white"/>
<path fill-rule="evenodd" clip-rule="evenodd" d="M242.808 442.665L235.538 434.591C234.102 432.996 234.232 430.515 235.828 429.078L243.903 421.807C245.499 420.37 247.979 420.5 249.416 422.095L256.686 430.169C258.122 431.764 257.991 434.245 256.396 435.681L248.32 442.953C246.725 444.389 244.244 444.26 242.808 442.665Z" fill="white"/>
<path fill-rule="evenodd" clip-rule="evenodd" d="M240.711 382.526L246.942 389.447C248.174 390.814 250.3 390.925 251.667 389.694L258.59 383.461C259.957 382.23 260.069 380.104 258.838 378.736L252.606 371.816C251.375 370.448 249.249 370.337 247.882 371.569L240.959 377.801C239.592 379.033 239.48 381.159 240.711 382.526Z" fill="white"/>
</g>
<g opacity="0.962647">
<path fill-rule="evenodd" clip-rule="evenodd" d="M317.984 414.37L325.988 424.616C328.049 427.254 331.911 427.75 334.52 425.712L347.725 415.395C350.334 413.357 350.782 409.531 348.721 406.892L338.288 393.539C336.226 390.901 332.406 390.41 329.797 392.448L320.034 400.076C314.436 404.3 313.005 403.236 309.179 398.339L301.329 388.292C299.268 385.654 295.447 385.162 292.838 387.201L279.633 397.517C277.024 399.556 276.576 403.382 278.637 406.02L289.07 419.374C291.131 422.012 294.952 422.502 297.561 420.464L306.081 413.808C311.313 409.72 313.49 408.619 317.984 414.37Z" fill="white"/>
<path fill-rule="evenodd" clip-rule="evenodd" d="M306.97 442.284L300.281 433.723C298.959 432.031 299.263 429.566 300.954 428.244L309.518 421.553C311.21 420.232 313.675 420.534 314.996 422.225L321.685 430.787C323.007 432.478 322.704 434.944 321.012 436.265L312.449 442.956C310.757 444.278 308.291 443.976 306.97 442.284Z" fill="white"/>
<path fill-rule="evenodd" clip-rule="evenodd" d="M309.073 382.146L314.807 389.484C315.94 390.934 318.053 391.193 319.503 390.06L326.843 384.325C328.293 383.192 328.553 381.079 327.42 379.629L321.687 372.291C320.554 370.841 318.441 370.582 316.991 371.715L309.651 377.45C308.2 378.583 307.941 380.696 309.073 382.146Z" fill="white"/>
</g>
<g opacity="0.241116">
<path fill-rule="evenodd" clip-rule="evenodd" d="M384.099 414.651L391.369 425.43C393.241 428.206 397.059 428.97 399.804 427.119L413.696 417.748C416.441 415.897 417.154 412.111 415.282 409.336L405.806 395.287C403.934 392.512 400.157 391.755 397.413 393.607L387.142 400.535C381.263 404.358 379.908 403.197 376.434 398.045L369.304 387.474C367.432 384.699 363.654 383.943 360.91 385.794L347.017 395.164C344.273 397.016 343.559 400.801 345.431 403.577L354.907 417.626C356.779 420.401 360.556 421.157 363.301 419.306L372.265 413.26C377.768 409.547 380.017 408.601 384.099 414.651Z" fill="white"/>
<path fill-rule="evenodd" clip-rule="evenodd" d="M371.165 441.729L365.089 432.722C363.889 430.942 364.363 428.504 366.143 427.303L375.153 421.226C376.932 420.026 379.371 420.499 380.571 422.279L386.646 431.286C387.847 433.066 387.372 435.504 385.593 436.704L376.583 442.781C374.803 443.982 372.365 443.508 371.165 441.729Z" fill="white"/>
<path fill-rule="evenodd" clip-rule="evenodd" d="M377.458 381.884L382.666 389.604C383.695 391.129 385.784 391.535 387.31 390.506L395.032 385.298C396.558 384.269 396.965 382.179 395.936 380.653L390.728 372.933C389.699 371.408 387.609 371.002 386.084 372.031L378.362 377.239C376.836 378.269 376.429 380.358 377.458 381.884Z" fill="white"/>
</g>
<g opacity="0.165673">
<path fill-rule="evenodd" clip-rule="evenodd" d="M450.196 414.892L456.696 426.152C458.37 429.051 462.126 430.08 464.992 428.425L479.505 420.046C482.372 418.391 483.348 414.664 481.674 411.765L473.201 397.09C471.527 394.19 467.812 393.172 464.945 394.828L454.216 401.022C448.084 404.426 446.815 403.173 443.708 397.792L437.332 386.75C435.658 383.85 431.943 382.832 429.076 384.488L414.564 392.866C411.697 394.522 410.721 398.248 412.394 401.148L420.867 415.823C422.541 418.723 426.257 419.74 429.124 418.085L438.487 412.679C444.237 409.359 446.546 408.572 450.196 414.892Z" fill="white"/>
<path fill-rule="evenodd" clip-rule="evenodd" d="M435.404 441.002L429.972 431.593C428.899 429.734 429.542 427.335 431.401 426.261L440.813 420.827C442.672 419.754 445.071 420.397 446.144 422.255L451.577 431.665C452.65 433.523 452.007 435.922 450.147 436.996L440.736 442.43C438.877 443.503 436.477 442.861 435.404 441.002Z" fill="white"/>
<path fill-rule="evenodd" clip-rule="evenodd" d="M445.857 381.741L450.513 389.806C451.433 391.4 453.49 391.95 455.084 391.03L463.15 386.373C464.744 385.453 465.295 383.396 464.375 381.803L459.719 373.738C458.799 372.145 456.743 371.594 455.149 372.514L447.082 377.171C445.488 378.092 444.937 380.148 445.857 381.741Z" fill="white"/>
</g>
<g opacity="0.377528">
<path fill-rule="evenodd" clip-rule="evenodd" d="M-24.4108 347.447L-29.2813 359.502C-30.5354 362.606 -29.0341 366.199 -25.9648 367.439L-10.4275 373.716C-7.35794 374.956 -3.82041 373.431 -2.56628 370.327L3.78173 354.615C5.03586 351.511 3.55059 347.957 0.48104 346.717L-11.0059 342.076C-17.4632 339.34 -17.2575 337.568 -14.9298 331.806L-10.1534 319.984C-8.89923 316.88 -10.3844 313.326 -13.4539 312.086L-28.991 305.808C-32.0605 304.568 -35.5983 306.093 -36.8525 309.197L-43.2005 324.909C-44.4546 328.013 -42.969 331.568 -39.8995 332.808L-29.8747 336.858C-23.7193 339.345 -21.6768 340.68 -24.4108 347.447Z" fill="white"/>
<path fill-rule="evenodd" clip-rule="evenodd" d="M-0.958403 323.618L-4.44694 332.253C-5.13625 333.959 -4.30423 335.918 -2.59775 336.608L6.03866 340.097C7.74486 340.786 9.70482 339.955 10.3941 338.249L13.8827 329.614C14.5719 327.909 13.7395 325.949 12.0334 325.26L3.39694 321.77C1.69046 321.081 -0.269213 321.912 -0.958403 323.618Z" fill="white"/>
</g>
<g opacity="0.932206">
<path fill-rule="evenodd" clip-rule="evenodd" d="M41.7423 347.1L36.0427 358.786C34.5751 361.795 35.8222 365.484 38.7975 366.935L53.8591 374.281C56.8346 375.732 60.4699 374.458 61.9375 371.448L69.3661 356.218C70.8337 353.209 69.6 349.559 66.6244 348.108L55.4892 342.677C49.2384 339.498 49.5672 337.744 52.2912 332.159L57.8807 320.699C59.3483 317.69 58.1147 314.041 55.1391 312.589L40.0778 305.243C37.1023 303.792 33.4667 305.067 31.9991 308.076L24.5705 323.307C23.1029 326.316 24.3369 329.965 27.3125 331.416L37.0303 336.156C42.9972 339.066 44.9416 340.541 41.7423 347.1Z" fill="white"/>
<path fill-rule="evenodd" clip-rule="evenodd" d="M11.8255 349.438L16.5883 339.673C17.5292 337.743 19.878 336.935 21.8077 337.876L31.575 342.64C33.5047 343.581 34.3136 345.93 33.3727 347.859L28.6099 357.624C27.6689 359.553 25.3204 360.362 23.3908 359.421L13.6234 354.657C11.6937 353.716 10.8845 351.367 11.8255 349.438Z" fill="white"/>
<path fill-rule="evenodd" clip-rule="evenodd" d="M66.7997 324.966L62.7174 333.336C61.9108 334.99 62.6041 337.002 64.2583 337.809L72.6303 341.892C74.2842 342.699 76.2974 342.006 77.104 340.352L81.1864 331.982C81.9929 330.329 81.2993 328.316 79.6454 327.509L71.2734 323.426C69.6192 322.619 67.6062 323.312 66.7997 324.966Z" fill="white"/>
</g>
<g opacity="0.377692">
<path fill-rule="evenodd" clip-rule="evenodd" d="M107.921 346.718L101.42 357.978C99.7461 360.877 100.733 364.644 103.6 366.299L118.112 374.678C120.979 376.333 124.694 375.315 126.368 372.415L134.841 357.74C136.515 354.841 135.539 351.114 132.672 349.459L121.943 343.264C115.929 339.657 116.379 337.93 119.486 332.549L125.862 321.507C127.535 318.607 126.559 314.881 123.692 313.226L109.18 304.847C106.313 303.192 102.597 304.21 100.924 307.109L92.4506 321.784C90.7767 324.684 91.7531 328.41 94.6202 330.066L103.984 335.472C109.733 338.791 111.57 340.397 107.921 346.718Z" fill="white"/>
<path fill-rule="evenodd" clip-rule="evenodd" d="M77.9138 346.963L83.3462 337.554C84.4194 335.695 86.8189 335.053 88.6782 336.126L98.0894 341.56C99.9487 342.633 100.592 345.032 99.5187 346.891L94.0863 356.3C93.0131 358.159 90.6139 358.802 88.7546 357.728L79.3433 352.294C77.484 351.221 76.8406 348.822 77.9138 346.963Z" fill="white"/>
<path fill-rule="evenodd" clip-rule="evenodd" d="M134.461 326.385L129.805 334.45C128.885 336.043 129.436 338.1 131.03 339.02L139.097 343.677C140.69 344.597 142.747 344.047 143.667 342.453L148.323 334.388C149.243 332.795 148.692 330.739 147.098 329.819L139.031 325.161C137.438 324.241 135.381 324.792 134.461 326.385Z" fill="white"/>
</g>
<g opacity="0.66401">
<path fill-rule="evenodd" clip-rule="evenodd" d="M174.127 346.302L166.857 357.08C164.985 359.856 165.706 363.682 168.451 365.533L182.343 374.904C185.088 376.755 188.865 375.999 190.737 373.223L200.213 359.175C202.085 356.399 201.372 352.614 198.627 350.763L188.356 343.835C182.608 339.816 183.178 338.126 186.653 332.974L193.783 322.403C195.655 319.628 194.941 315.842 192.197 313.991L178.304 304.62C175.56 302.769 171.782 303.525 169.91 306.301L160.434 320.35C158.562 323.125 159.276 326.911 162.021 328.762L170.984 334.808C176.488 338.52 178.208 340.251 174.127 346.302Z" fill="white"/>
<path fill-rule="evenodd" clip-rule="evenodd" d="M144.176 344.453L150.252 335.445C151.452 333.666 153.89 333.193 155.67 334.393L164.68 340.47C166.459 341.671 166.934 344.109 165.733 345.888L159.658 354.895C158.458 356.675 156.019 357.148 154.24 355.948L145.23 349.871C143.45 348.671 142.976 346.232 144.176 344.453Z" fill="white"/>
<path fill-rule="evenodd" clip-rule="evenodd" d="M202.021 327.87L196.814 335.59C195.785 337.116 196.191 339.205 197.717 340.234L205.439 345.443C206.965 346.472 209.055 346.066 210.084 344.541L215.291 336.82C216.32 335.295 215.914 333.205 214.388 332.176L206.666 326.968C205.14 325.938 203.05 326.344 202.021 327.87Z" fill="white"/>
</g>
<g opacity="0.534067">
<path fill-rule="evenodd" clip-rule="evenodd" d="M240.364 345.853L232.359 356.099C230.298 358.737 230.751 362.604 233.359 364.642L246.565 374.959C249.173 376.998 252.994 376.506 255.055 373.868L265.488 360.515C267.55 357.877 267.101 354.051 264.493 352.013L254.73 344.385C249.277 339.975 249.963 338.329 253.789 333.432L261.639 323.385C263.7 320.746 263.252 316.92 260.643 314.882L247.438 304.565C244.829 302.527 241.008 303.018 238.947 305.656L228.514 319.009C226.453 321.648 226.901 325.474 229.51 327.512L238.03 334.169C243.262 338.256 244.857 340.102 240.364 345.853Z" fill="white"/>
<path fill-rule="evenodd" clip-rule="evenodd" d="M210.615 341.92L217.304 333.358C218.625 331.667 221.091 331.365 222.783 332.687L231.346 339.377C233.038 340.699 233.341 343.164 232.019 344.855L225.33 353.417C224.009 355.108 221.544 355.411 219.852 354.089L211.288 347.398C209.596 346.077 209.293 343.611 210.615 341.92Z" fill="white"/>
<path fill-rule="evenodd" clip-rule="evenodd" d="M269.476 329.412L263.742 336.751C262.61 338.201 262.869 340.313 264.32 341.447L271.66 347.181C273.11 348.314 275.223 348.055 276.356 346.605L282.089 339.267C283.222 337.817 282.962 335.704 281.512 334.571L274.172 328.836C272.721 327.703 270.608 327.962 269.476 329.412Z" fill="white"/>
</g>
<g opacity="0.397846">
<path fill-rule="evenodd" clip-rule="evenodd" d="M306.633 345.376L297.933 355.038C295.693 357.526 295.875 361.415 298.335 363.63L310.788 374.843C313.248 377.058 317.094 376.835 319.334 374.347L330.673 361.754C332.913 359.266 332.733 355.418 330.273 353.203L321.066 344.913C315.934 340.134 316.733 338.539 320.891 333.921L329.423 324.445C331.663 321.958 331.483 318.109 329.023 315.894L316.57 304.681C314.11 302.466 310.264 302.689 308.024 305.177L296.685 317.77C294.444 320.258 294.625 324.106 297.085 326.322L305.12 333.556C310.054 337.999 311.516 339.952 306.633 345.376Z" fill="white"/>
<path fill-rule="evenodd" clip-rule="evenodd" d="M277.23 339.376L284.5 331.302C285.937 329.707 288.417 329.578 290.013 331.014L298.089 338.286C299.684 339.722 299.814 342.203 298.378 343.798L291.108 351.872C289.672 353.467 287.192 353.597 285.596 352.16L277.52 344.889C275.925 343.452 275.794 340.972 277.23 339.376Z" fill="white"/>
<path fill-rule="evenodd" clip-rule="evenodd" d="M336.821 331.005L330.589 337.926C329.358 339.293 329.47 341.419 330.838 342.651L337.76 348.883C339.127 350.115 341.253 350.004 342.485 348.636L348.716 341.716C349.947 340.348 349.835 338.222 348.468 336.991L341.545 330.758C340.178 329.527 338.052 329.638 336.821 331.005Z" fill="white"/>
</g>
<g opacity="0.757751">
<path fill-rule="evenodd" clip-rule="evenodd" d="M372.936 344.87L363.583 353.902C361.175 356.228 361.085 360.12 363.385 362.502L375.026 374.556C377.325 376.937 381.177 376.983 383.586 374.657L395.776 362.886C398.184 360.56 398.273 356.709 395.973 354.328L387.367 345.416C382.58 340.29 383.489 338.755 387.959 334.438L397.131 325.581C399.539 323.255 399.628 319.404 397.328 317.023L385.688 304.968C383.388 302.587 379.536 302.541 377.128 304.867L364.938 316.639C362.529 318.964 362.441 322.815 364.741 325.197L372.251 332.974C376.863 337.75 378.186 339.801 372.936 344.87Z" fill="white"/>
<path fill-rule="evenodd" clip-rule="evenodd" d="M344.024 336.835L351.839 329.287C353.383 327.796 355.867 327.84 357.358 329.385L364.907 337.202C366.399 338.746 366.356 341.23 364.812 342.721L356.996 350.268C355.452 351.759 352.969 351.715 351.477 350.171L343.928 342.354C342.437 340.809 342.48 338.326 344.024 336.835Z" fill="white"/>
<path fill-rule="evenodd" clip-rule="evenodd" d="M404.053 332.641L397.354 339.11C396.03 340.388 395.993 342.516 397.272 343.84L403.742 350.541C405.021 351.864 407.149 351.902 408.473 350.624L415.172 344.155C416.495 342.877 416.532 340.748 415.254 339.424L408.783 332.724C407.505 331.4 405.376 331.363 404.053 332.641Z" fill="white"/>
</g>
<g opacity="0.605705">
<path fill-rule="evenodd" clip-rule="evenodd" d="M439.275 344.34L429.316 352.698C426.751 354.85 426.39 358.727 428.518 361.262L439.289 374.099C441.417 376.636 445.257 376.95 447.821 374.798L460.803 363.905C463.367 361.753 463.724 357.918 461.596 355.381L453.633 345.891C449.216 340.444 450.229 338.976 454.989 334.982L464.757 326.786C467.321 324.634 467.679 320.798 465.551 318.262L454.78 305.425C452.652 302.889 448.812 302.575 446.247 304.727L433.266 315.619C430.701 317.771 430.344 321.607 432.472 324.143L439.422 332.426C443.69 337.511 444.866 339.649 439.275 344.34Z" fill="white"/>
<path fill-rule="evenodd" clip-rule="evenodd" d="M410.994 334.308L419.317 327.324C420.961 325.944 423.436 326.161 424.816 327.806L431.801 336.13C433.181 337.775 432.965 340.249 431.321 341.629L422.998 348.613C421.354 349.993 418.879 349.776 417.499 348.131L410.514 339.806C409.134 338.162 409.35 335.687 410.994 334.308Z" fill="white"/>
</g>
<g opacity="0.524448">
<path fill-rule="evenodd" clip-rule="evenodd" d="M-28.0938 269.772L-40.8113 267.069C-44.086 266.373 -47.3634 268.476 -48.0517 271.714L-51.5358 288.105C-52.2241 291.343 -50.1077 294.562 -46.833 295.258L-30.2575 298.781C-26.9828 299.477 -23.7405 297.398 -23.0522 294.159L-20.4763 282.041C-18.9035 275.207 -17.1226 275.101 -11.0445 276.393L1.42738 279.044C4.70209 279.74 7.94473 277.661 8.63305 274.422L12.1171 258.031C12.8054 254.793 10.6891 251.574 7.41438 250.878L-9.16111 247.355C-12.4358 246.658 -15.6782 248.739 -16.3665 251.977L-18.6145 262.553C-19.9948 269.046 -20.955 271.29 -28.0938 269.772Z" fill="white"/>
<path fill-rule="evenodd" clip-rule="evenodd" d="M-0.554576 288.731L-9.66362 286.795C-11.4635 286.412 -13.2487 287.572 -13.6314 289.372L-15.568 298.483C-15.9506 300.283 -14.7914 302.069 -12.9916 302.451L-3.88254 304.388C-2.08297 304.77 -0.297667 303.61 0.0849296 301.81L2.02156 292.699C2.40422 290.899 1.24499 289.113 -0.554576 288.731Z" fill="white"/>
</g>
<g opacity="0.281238">
<path fill-rule="evenodd" clip-rule="evenodd" d="M105.802 268.638L93.5842 264.191C90.4383 263.046 86.9002 264.672 85.768 267.782L80.0365 283.529C78.9043 286.64 80.552 290.122 83.698 291.267L99.6218 297.063C102.768 298.208 106.268 296.6 107.4 293.489L111.638 281.847C114.146 275.298 115.925 275.442 121.764 277.567L133.745 281.928C136.891 283.073 140.392 281.465 141.524 278.354L147.255 262.607C148.388 259.496 146.74 256.014 143.594 254.869L127.67 249.073C124.524 247.928 121.024 249.536 119.892 252.647L116.194 262.807C113.923 269.046 112.66 271.134 105.802 268.638Z" fill="white"/>
<path fill-rule="evenodd" clip-rule="evenodd" d="M100.35 239.129L110.559 242.845C112.576 243.579 113.626 245.831 112.891 247.848L109.175 258.06C108.44 260.077 106.189 261.127 104.172 260.393L93.9628 256.677C91.9458 255.943 90.8964 253.692 91.6307 251.674L95.3475 241.463C96.0818 239.445 98.3328 238.395 100.35 239.129Z" fill="white"/>
<path fill-rule="evenodd" clip-rule="evenodd" d="M130.434 291.244L121.684 288.059C119.954 287.43 118.025 288.33 117.396 290.059L114.21 298.812C113.581 300.541 114.48 302.471 116.209 303.1L124.96 306.285C126.689 306.915 128.618 306.014 129.247 304.285L132.433 295.532C133.063 293.803 132.163 291.873 130.434 291.244Z" fill="white"/>
</g>
<g opacity="0.703975">
<path fill-rule="evenodd" clip-rule="evenodd" d="M172.808 268.101L160.93 262.813C157.872 261.451 154.229 262.826 152.882 265.85L146.066 281.159C144.72 284.184 146.121 287.772 149.179 289.134L164.66 296.026C167.718 297.388 171.322 296.028 172.669 293.003L177.708 281.685C180.667 275.327 182.431 275.595 188.108 278.122L199.756 283.308C202.814 284.67 206.419 283.31 207.765 280.285L214.581 264.977C215.927 261.953 214.527 258.364 211.468 257.002L195.988 250.11C192.929 248.748 189.325 250.108 187.978 253.133L183.581 263.01C180.881 269.075 179.475 271.07 172.808 268.101Z" fill="white"/>
<path fill-rule="evenodd" clip-rule="evenodd" d="M169.427 238.284L179.353 242.703C181.314 243.576 182.203 245.895 181.33 247.857L176.91 257.784C176.037 259.746 173.718 260.636 171.757 259.763L161.832 255.344C159.871 254.471 158.981 252.152 159.854 250.191L164.274 240.263C165.148 238.302 167.466 237.411 169.427 238.284Z" fill="white"/>
<path fill-rule="evenodd" clip-rule="evenodd" d="M195.803 292.371L187.296 288.583C185.615 287.835 183.628 288.598 182.879 290.279L179.09 298.789C178.342 300.47 179.104 302.458 180.785 303.206L189.293 306.994C190.974 307.742 192.961 306.979 193.71 305.298L197.498 296.788C198.247 295.107 197.484 293.119 195.803 292.371Z" fill="white"/>
</g>
<g opacity="0.605684">
<path fill-rule="evenodd" clip-rule="evenodd" d="M239.85 267.589L228.37 261.485C225.414 259.913 221.684 261.031 220.13 263.954L212.263 278.75C210.709 281.673 211.856 285.35 214.812 286.922L229.774 294.878C232.73 296.449 236.42 295.344 237.974 292.421L243.791 281.482C247.186 275.346 248.927 275.736 254.414 278.653L265.672 284.639C268.628 286.211 272.318 285.105 273.872 282.182L281.739 267.386C283.294 264.463 282.147 260.785 279.191 259.214L264.228 251.258C261.272 249.686 257.582 250.792 256.028 253.715L250.952 263.262C247.835 269.124 246.294 271.015 239.85 267.589Z" fill="white"/>
<path fill-rule="evenodd" clip-rule="evenodd" d="M238.558 237.609L248.151 242.71C250.046 243.717 250.772 246.093 249.764 247.988L244.662 257.584C243.654 259.479 241.279 260.206 239.384 259.198L229.791 254.097C227.896 253.09 227.17 250.714 228.178 248.819L233.28 239.224C234.287 237.328 236.663 236.601 238.558 237.609Z" fill="white"/>
<path fill-rule="evenodd" clip-rule="evenodd" d="M261.097 293.404L252.874 289.032C251.25 288.168 249.214 288.79 248.35 290.416L243.977 298.64C243.113 300.265 243.735 302.301 245.36 303.165L253.582 307.537C255.207 308.4 257.242 307.777 258.106 306.153L262.479 297.928C263.343 296.303 262.721 294.267 261.097 293.404Z" fill="white"/>
</g>
<g opacity="0.860909">
<path fill-rule="evenodd" clip-rule="evenodd" d="M306.927 267.103L295.901 260.214C293.062 258.44 289.263 259.294 287.509 262.102L278.629 276.313C276.875 279.12 277.762 282.869 280.602 284.643L294.972 293.623C297.812 295.397 301.57 294.552 303.324 291.744L309.889 281.237C313.705 275.353 315.414 275.864 320.684 279.156L331.497 285.913C334.336 287.687 338.095 286.842 339.849 284.034L348.729 269.823C350.483 267.016 349.596 263.267 346.756 261.493L332.386 252.513C329.546 250.739 325.788 251.585 324.034 254.392L318.304 263.561C314.786 269.191 313.117 270.971 306.927 267.103Z" fill="white"/>
<path fill-rule="evenodd" clip-rule="evenodd" d="M307.73 237.106L316.944 242.864C318.764 244.001 319.322 246.421 318.184 248.242L312.426 257.458C311.288 259.279 308.868 259.838 307.048 258.7L297.834 252.943C296.013 251.806 295.455 249.385 296.593 247.565L302.351 238.349C303.489 236.528 305.909 235.969 307.73 237.106Z" fill="white"/>
<path fill-rule="evenodd" clip-rule="evenodd" d="M326.322 294.337L318.424 289.403C316.864 288.427 314.789 288.907 313.814 290.467L308.878 298.367C307.903 299.927 308.381 302.002 309.942 302.977L317.839 307.912C319.4 308.887 321.474 308.407 322.449 306.847L327.385 298.947C328.36 297.387 327.882 295.312 326.322 294.337Z" fill="white"/>
</g>
<g opacity="0.233219">
<path fill-rule="evenodd" clip-rule="evenodd" d="M374.037 266.647L363.519 259.005C360.81 257.037 356.961 257.625 355.016 260.303L345.166 273.86C343.22 276.538 343.844 280.34 346.552 282.307L360.262 292.268C362.97 294.236 366.778 293.654 368.724 290.976L376.006 280.953C380.223 275.349 381.893 275.978 386.92 279.63L397.235 287.125C399.944 289.093 403.752 288.511 405.698 285.833L415.547 272.276C417.493 269.598 416.869 265.796 414.161 263.828L400.452 253.868C397.743 251.9 393.935 252.482 391.989 255.16L385.634 263.907C381.732 269.278 379.942 270.937 374.037 266.647Z" fill="white"/>
<path fill-rule="evenodd" clip-rule="evenodd" d="M376.93 236.779L385.72 243.165C387.457 244.427 387.845 246.88 386.583 248.617L380.195 257.409C378.933 259.146 376.48 259.534 374.744 258.273L365.954 251.887C364.217 250.625 363.829 248.172 365.091 246.435L371.479 237.643C372.741 235.906 375.194 235.517 376.93 236.779Z" fill="white"/>
<path fill-rule="evenodd" clip-rule="evenodd" d="M391.485 295.168L383.951 289.694C382.462 288.612 380.359 288.945 379.278 290.434L373.803 297.97C372.721 299.459 373.054 301.562 374.542 302.643L382.076 308.117C383.565 309.199 385.667 308.865 386.749 307.376L392.224 299.841C393.306 298.352 392.973 296.249 391.485 295.168Z" fill="white"/>
</g>
<g opacity="0.949706">
<path fill-rule="evenodd" clip-rule="evenodd" d="M441.178 266.222L431.219 257.865C428.654 255.713 424.773 256.03 422.645 258.566L411.874 271.403C409.746 273.939 410.103 277.775 412.668 279.927L425.649 290.819C428.214 292.971 432.053 292.657 434.181 290.121L442.144 280.631C446.742 275.335 448.364 276.078 453.124 280.072L462.891 288.268C465.456 290.42 469.295 290.106 471.423 287.57L482.195 274.733C484.323 272.197 483.965 268.361 481.401 266.209L468.42 255.316C465.855 253.164 462.015 253.479 459.887 256.015L452.938 264.298C448.67 269.383 446.769 270.913 441.178 266.222Z" fill="white"/>
<path fill-rule="evenodd" clip-rule="evenodd" d="M446.148 236.628L454.471 243.612C456.115 244.992 456.331 247.466 454.951 249.111L447.966 257.436C446.586 259.08 444.111 259.297 442.467 257.917L434.144 250.934C432.5 249.554 432.284 247.08 433.664 245.435L440.649 237.11C442.029 235.465 444.504 235.248 446.148 236.628Z" fill="white"/>
<path fill-rule="evenodd" clip-rule="evenodd" d="M456.594 295.89L449.46 289.904C448.05 288.721 445.93 288.907 444.747 290.317L438.759 297.452C437.576 298.862 437.761 300.983 439.171 302.166L446.305 308.152C447.714 309.334 449.835 309.148 451.018 307.739L457.005 300.603C458.188 299.193 458.003 297.073 456.594 295.89Z" fill="white"/>
</g>
<g opacity="0.228639">
<path fill-rule="evenodd" clip-rule="evenodd" d="M251.155 198.38L255.173 186.014C256.208 182.83 254.459 179.351 251.311 178.328L235.374 173.15C232.225 172.127 228.803 173.895 227.768 177.079L222.531 193.196C221.497 196.38 223.226 199.822 226.375 200.845L238.158 204.673C244.79 206.952 244.709 208.734 242.788 214.643L238.848 226.77C237.814 229.954 239.543 233.396 242.692 234.419L258.629 239.598C261.777 240.621 265.2 238.852 266.235 235.668L271.471 219.552C272.506 216.368 270.776 212.926 267.627 211.903L257.345 208.562C251.031 206.51 248.9 205.321 251.155 198.38Z" fill="white"/>
<path fill-rule="evenodd" clip-rule="evenodd" d="M280.456 191.901L277.098 202.234C276.435 204.276 274.221 205.403 272.18 204.739L261.844 201.381C259.802 200.718 258.675 198.505 259.338 196.464L262.695 186.13C263.359 184.089 265.572 182.962 267.614 183.625L277.949 186.983C279.991 187.647 281.119 189.86 280.456 191.901Z" fill="white"/>
<path fill-rule="evenodd" clip-rule="evenodd" d="M229.422 223.786L232.3 214.93C232.869 213.18 231.902 211.283 230.151 210.714L221.293 207.836C219.543 207.267 217.645 208.233 217.077 209.983L214.199 218.84C213.63 220.59 214.597 222.487 216.348 223.055L225.206 225.934C226.957 226.502 228.854 225.536 229.422 223.786Z" fill="white"/>
</g>
<g opacity="0.738436">
<path fill-rule="evenodd" clip-rule="evenodd" d="M318.38 198.689L323.251 186.634C324.505 183.53 323.004 179.937 319.934 178.697L304.397 172.42C301.328 171.179 297.79 172.705 296.536 175.809L290.188 191.521C288.934 194.625 290.419 198.179 293.489 199.419L304.975 204.06C311.433 206.796 311.227 208.568 308.899 214.329L304.123 226.152C302.869 229.256 304.354 232.81 307.424 234.05L322.961 240.328C326.03 241.568 329.568 240.043 330.822 236.939L337.17 221.227C338.424 218.123 336.939 214.568 333.869 213.328L323.844 209.278C317.689 206.791 315.646 205.456 318.38 198.689Z" fill="white"/>
<path fill-rule="evenodd" clip-rule="evenodd" d="M348.061 194.27L343.991 204.344C343.187 206.334 340.9 207.304 338.91 206.5L328.834 202.429C326.843 201.624 325.873 199.338 326.677 197.348L330.747 187.275C331.551 185.284 333.837 184.314 335.828 185.118L345.904 189.189C347.894 189.994 348.865 192.28 348.061 194.27Z" fill="white"/>
<path fill-rule="evenodd" clip-rule="evenodd" d="M294.928 222.518L298.417 213.883C299.106 212.177 298.274 210.218 296.567 209.528L287.931 206.039C286.225 205.35 284.265 206.181 283.575 207.887L280.087 216.522C279.398 218.227 280.23 220.187 281.936 220.876L290.573 224.366C292.279 225.055 294.239 224.223 294.928 222.518Z" fill="white"/>
</g>
<g opacity="0.148548">
<path fill-rule="evenodd" clip-rule="evenodd" d="M385.583 199.036L391.282 187.35C392.75 184.341 391.503 180.652 388.528 179.201L373.466 171.855C370.49 170.404 366.855 171.678 365.387 174.687L357.959 189.918C356.491 192.927 357.725 196.576 360.701 198.028L371.836 203.459C378.087 206.638 377.758 208.392 375.034 213.977L369.444 225.437C367.977 228.446 369.21 232.095 372.186 233.547L387.247 240.892C390.223 242.344 393.858 241.069 395.326 238.06L402.754 222.829C404.222 219.82 402.988 216.171 400.013 214.72L390.295 209.98C384.328 207.07 382.383 205.595 385.583 199.036Z" fill="white"/>
<path fill-rule="evenodd" clip-rule="evenodd" d="M415.5 196.698L410.737 206.463C409.796 208.392 407.447 209.201 405.517 208.259L395.75 203.496C393.82 202.554 393.011 200.206 393.952 198.277L398.715 188.512C399.656 186.582 402.005 185.774 403.934 186.715L413.702 191.479C415.631 192.42 416.44 194.769 415.5 196.698Z" fill="white"/>
<path fill-rule="evenodd" clip-rule="evenodd" d="M360.525 221.17L364.608 212.8C365.414 211.146 364.721 209.134 363.067 208.327L354.695 204.244C353.041 203.437 351.028 204.13 350.221 205.783L346.139 214.154C345.332 215.807 346.026 217.82 347.68 218.627L356.052 222.71C357.706 223.517 359.719 222.824 360.525 221.17Z" fill="white"/>
</g>
<g opacity="0.0140783">
<path fill-rule="evenodd" clip-rule="evenodd" d="M452.76 199.418L459.26 188.158C460.934 185.259 459.948 181.492 457.081 179.837L442.568 171.458C439.701 169.803 435.986 170.821 434.312 173.72L425.839 188.396C424.165 191.295 425.141 195.022 428.008 196.677L438.737 202.872C444.751 206.479 444.301 208.206 441.194 213.587L434.819 224.629C433.145 227.529 434.121 231.255 436.988 232.91L451.5 241.289C454.367 242.944 458.083 241.926 459.757 239.027L468.23 224.352C469.904 221.452 468.927 217.726 466.06 216.07L456.697 210.664C450.947 207.345 449.11 205.739 452.76 199.418Z" fill="white"/>
<path fill-rule="evenodd" clip-rule="evenodd" d="M426.219 219.751L430.875 211.686C431.795 210.092 431.244 208.036 429.65 207.116L421.583 202.459C419.99 201.539 417.933 202.089 417.013 203.683L412.357 211.748C411.437 213.341 411.988 215.397 413.582 216.317L421.649 220.975C423.243 221.895 425.299 221.344 426.219 219.751Z" fill="white"/>
</g>
<g opacity="0.149965">
<path fill-rule="evenodd" clip-rule="evenodd" d="M-10.7033 139.909L2.17177 138.099C5.48706 137.633 7.84775 134.537 7.38705 131.259L5.05485 114.664C4.5941 111.386 1.50444 109.085 -1.81085 109.551L-18.5917 111.909C-21.907 112.375 -24.2425 115.438 -23.7817 118.717L-22.0575 130.985C-21.198 137.945 -22.8355 138.653 -28.9889 139.518L-41.6154 141.293C-44.9307 141.759 -47.2664 144.822 -46.8056 148.1L-44.4735 164.695C-44.0127 167.973 -40.923 170.274 -37.6078 169.808L-20.8269 167.45C-17.5116 166.984 -15.1762 163.92 -15.6369 160.642L-17.1417 149.935C-18.0656 143.361 -17.9306 140.924 -10.7033 139.909Z" fill="white"/>
<path fill-rule="evenodd" clip-rule="evenodd" d="M7.96389 163.404L-2.79518 164.916C-4.92071 165.214 -6.90417 163.719 -7.20296 161.593L-8.71538 150.832C-9.01418 148.706 -7.51968 146.722 -5.39415 146.423L5.36492 144.911C7.49045 144.612 9.47387 146.107 9.77267 148.233L11.2851 158.995C11.5839 161.121 10.0894 163.105 7.96389 163.404Z" fill="white"/>
</g>
<g opacity="0.661937">
<path fill-rule="evenodd" clip-rule="evenodd" d="M331.569 171.438L320.942 169.179C318.842 168.733 317.49 166.649 317.936 164.549L320.196 153.919C320.642 151.819 322.725 150.466 324.824 150.913L335.452 153.171C337.551 153.618 338.904 155.701 338.457 157.801L336.198 168.431C335.752 170.531 333.669 171.884 331.569 171.438Z" fill="white"/>
<path fill-rule="evenodd" clip-rule="evenodd" d="M294.524 124.017L303.633 125.953C305.433 126.336 307.218 125.176 307.601 123.376L309.538 114.265C309.92 112.465 308.761 110.679 306.961 110.296L297.852 108.36C296.053 107.978 294.267 109.137 293.885 110.937L291.948 120.049C291.565 121.849 292.725 123.634 294.524 124.017Z" fill="white"/>
</g>
<g opacity="0.197496">
<path fill-rule="evenodd" clip-rule="evenodd" d="M388.491 143.552L400.989 147.136C404.207 148.059 407.623 146.19 408.535 143.008L413.154 126.899C414.067 123.717 412.18 120.358 408.962 119.436L392.673 114.765C389.455 113.842 386.075 115.691 385.163 118.873L381.748 130.782C379.702 137.49 377.918 137.471 371.945 135.758L359.688 132.243C356.47 131.321 353.09 133.169 352.178 136.351L347.559 152.46C346.646 155.642 348.533 159.001 351.751 159.924L368.04 164.595C371.259 165.517 374.638 163.668 375.551 160.486L378.531 150.093C380.361 143.711 381.475 141.54 388.491 143.552Z" fill="white"/>
<path fill-rule="evenodd" clip-rule="evenodd" d="M395.988 172.608L385.544 169.614C383.481 169.022 382.277 166.849 382.869 164.785L385.864 154.339C386.456 152.275 388.628 151.071 390.691 151.663L401.135 154.657C403.199 155.249 404.402 157.422 403.811 159.485L400.815 169.932C400.223 171.995 398.051 173.2 395.988 172.608Z" fill="white"/>
<path fill-rule="evenodd" clip-rule="evenodd" d="M362.341 122.719L371.293 125.286C373.062 125.793 374.923 124.761 375.431 122.991L377.998 114.038C378.505 112.269 377.474 110.406 375.705 109.899L366.753 107.332C364.985 106.825 363.123 107.858 362.616 109.627L360.048 118.581C359.541 120.35 360.573 122.212 362.341 122.719Z" fill="white"/>
</g>
<g opacity="0.328251">
<path fill-rule="evenodd" clip-rule="evenodd" d="M454.879 144.11L467.096 148.557C470.242 149.702 473.78 148.076 474.912 144.965L480.644 129.218C481.776 126.107 480.128 122.625 476.982 121.48L461.058 115.684C457.912 114.539 454.412 116.148 453.28 119.259L449.043 130.901C446.534 137.45 444.756 137.306 438.917 135.181L426.935 130.82C423.789 129.675 420.289 131.283 419.156 134.394L413.425 150.141C412.293 153.251 413.94 156.734 417.086 157.879L433.01 163.675C436.156 164.82 439.656 163.211 440.789 160.1L444.487 149.94C446.757 143.702 448.02 141.614 454.879 144.11Z" fill="white"/>
<path fill-rule="evenodd" clip-rule="evenodd" d="M460.33 173.619L450.121 169.903C448.104 169.168 447.055 166.917 447.789 164.9L451.506 154.688C452.24 152.67 454.491 151.62 456.508 152.354L466.718 156.07C468.734 156.805 469.784 159.056 469.05 161.073L465.333 171.285C464.598 173.302 462.347 174.353 460.33 173.619Z" fill="white"/>
<path fill-rule="evenodd" clip-rule="evenodd" d="M430.246 121.503L438.997 124.688C440.726 125.318 442.655 124.418 443.285 122.688L446.47 113.935C447.1 112.206 446.2 110.277 444.471 109.647L435.72 106.462C433.992 105.833 432.062 106.733 431.433 108.462L428.247 117.215C427.618 118.945 428.517 120.874 430.246 121.503Z" fill="white"/>
</g>
<g opacity="0.659733">
<path fill-rule="evenodd" clip-rule="evenodd" d="M350.642 94.0973L351.778 83.292C352.002 81.1573 353.933 79.5945 356.068 79.8189L366.876 80.9549C369.011 81.1793 370.575 83.1093 370.35 85.244L369.215 96.0493C368.99 98.1839 367.06 99.7468 364.925 99.5223L354.117 98.3864C351.982 98.162 350.418 96.2319 350.642 94.0973Z" fill="white"/>
</g>
<g opacity="0.958373">
<path fill-rule="evenodd" clip-rule="evenodd" d="M415.92 91.9731L417.806 81.2734C418.179 79.1595 420.214 77.7352 422.329 78.1081L433.031 79.9951C435.145 80.3679 436.57 82.4023 436.197 84.5161L434.31 95.2159C433.938 97.3297 431.903 98.754 429.789 98.3812L419.087 96.4942C416.972 96.1213 415.547 94.0869 415.92 91.9731Z" fill="white"/>
</g>
<g opacity="0.0192568">
<path fill-rule="evenodd" clip-rule="evenodd" d="M38.248 8.55337L26.3705 13.8416C23.3121 15.2033 21.8963 18.8306 23.2428 21.8547L30.0587 37.1635C31.4052 40.1879 35.0094 41.5481 38.0678 40.1864L53.5486 33.2939C56.607 31.9322 58.0076 28.3437 56.6611 25.3193L51.622 14.0014C48.8774 7.54778 50.2563 6.41593 55.933 3.88853L67.5811 -1.29757C70.6396 -2.65927 72.0404 -6.24787 70.6939 -9.27227L63.8781 -24.5808C62.5315 -27.6052 58.9272 -28.9656 55.8688 -27.6039L40.388 -20.7115C37.3296 -19.3498 35.9292 -15.761 37.2757 -12.7366L41.6734 -2.85929C44.3736 3.20556 44.9154 5.58488 38.248 8.55337Z" fill="white"/>
<path fill-rule="evenodd" clip-rule="evenodd" d="M13.8278 -8.88606L23.7533 -13.3052C25.7142 -14.1782 28.033 -13.2875 28.9062 -11.3262L33.3263 -1.39854C34.1995 0.562802 33.3097 2.88168 31.3489 3.75471L21.4234 8.17382C19.4625 9.04685 17.1439 8.15647 16.2706 6.19513L11.8506 -3.73254C10.9773 -5.69388 11.867 -8.01304 13.8278 -8.88606Z" fill="white"/>
<path fill-rule="evenodd" clip-rule="evenodd" d="M71.6712 7.70375L63.1637 11.4915C61.4827 12.2399 60.7201 14.2274 61.4687 15.9088L65.2573 24.4182C66.0057 26.0993 67.9932 26.8627 69.6742 26.1143L78.1816 22.3265C79.8623 21.5782 80.6249 19.5904 79.8764 17.9093L76.0878 9.39995C75.3392 7.71858 73.3519 6.95545 71.6712 7.70375Z" fill="white"/>
</g>
<g opacity="0.131177">
<path fill-rule="evenodd" clip-rule="evenodd" d="M304.673 6.06206L291.798 7.87154C288.483 8.33747 286.122 11.434 286.583 14.7121L288.915 31.3066C289.376 34.585 292.465 36.8859 295.781 36.42L312.561 34.0616C315.877 33.5957 318.212 30.5322 317.751 27.2538L316.027 14.9854C315.168 8.02526 316.805 7.31735 322.959 6.45255L335.585 4.67802C338.9 4.21209 341.236 1.14863 340.775 -2.12976L338.443 -18.7239C337.982 -22.0023 334.893 -24.3036 331.577 -23.8376L314.797 -21.4792C311.481 -21.0133 309.146 -17.9496 309.607 -14.6712L311.111 -3.96434C312.035 2.60985 311.9 5.04633 304.673 6.06206Z" fill="white"/>
<path fill-rule="evenodd" clip-rule="evenodd" d="M286.006 -17.433L296.765 -18.945C298.89 -19.2438 300.874 -17.7485 301.173 -15.6224L302.685 -4.86098C302.984 -2.73492 301.489 -0.751131 299.364 -0.452407L288.605 1.05968C286.479 1.35841 284.496 -0.13659 284.197 -2.26265L282.685 -13.0241C282.386 -15.1501 283.88 -17.1342 286.006 -17.433Z" fill="white"/>
<path fill-rule="evenodd" clip-rule="evenodd" d="M337.035 14.4581L327.814 15.7541C325.991 16.0102 324.71 17.7105 324.967 19.5331L326.263 28.7571C326.519 30.5794 328.219 31.861 330.041 31.605L339.263 30.3089C341.085 30.0529 342.366 28.3523 342.11 26.53L340.814 17.306C340.557 15.4834 338.857 14.202 337.035 14.4581Z" fill="white"/>
</g>
<g opacity="0.145831">
<path fill-rule="evenodd" clip-rule="evenodd" d="M371.389 5.43442L358.419 6.34137C355.079 6.5749 352.508 9.49924 352.739 12.8015L353.908 29.5182C354.139 32.8207 357.06 35.3316 360.4 35.0981L377.305 33.916C380.644 33.6825 383.188 30.7894 382.957 27.4869L382.093 15.128C381.721 8.12491 383.404 7.53296 389.602 7.0995L402.322 6.21007C405.662 5.97653 408.205 3.08348 407.974 -0.219072L406.806 -16.9355C406.575 -20.238 403.653 -22.7492 400.313 -22.5157L383.409 -21.3336C380.069 -21.1001 377.526 -18.2067 377.757 -14.9042L378.511 -4.11844C378.974 2.50419 378.669 4.92532 371.389 5.43442Z" fill="white"/>
<path fill-rule="evenodd" clip-rule="evenodd" d="M403.087 16.0674L393.797 16.717C391.961 16.8454 390.565 18.4522 390.693 20.2882L391.343 29.5802C391.471 31.4159 393.078 32.813 394.913 32.6847L404.203 32.035C406.039 31.9067 407.435 30.2996 407.307 28.4639L406.657 19.1719C406.528 17.3359 404.922 15.9391 403.087 16.0674Z" fill="white"/>
</g>
<g opacity="0.26782">
<path fill-rule="evenodd" clip-rule="evenodd" d="M438.156 4.48003H425.156C421.809 4.48003 419.041 7.1834 419.041 10.452V26.9983C419.041 30.2672 421.78 32.9417 425.127 32.9417H442.07C445.417 32.9417 448.156 30.2672 448.156 26.9983V14.7654C448.274 7.8418 449.993 7.37464 456.206 7.37464H468.955C472.302 7.37464 475.041 4.70021 475.041 1.43132V-15.1147C475.041 -18.3836 472.302 -21.0583 468.955 -21.0583H452.012C448.664 -21.0583 445.926 -18.3836 445.926 -15.1147V-4.43891C445.926 2.11622 445.453 4.48003 438.156 4.48003Z" fill="white"/>
</g>
</g>
</svg>
