<svg width="78" height="123" viewBox="0 0 78 123" fill="none" xmlns="http://www.w3.org/2000/svg">
<path d="M28.7544 99.3113L29.7544 99.3113L29.7544 98.9576L29.532 98.6826L28.7544 99.3113ZM2.746 67.1486L1.75138 67.2521L1.78207 67.5469L1.96842 67.7773L2.746 67.1486ZM28.3256 74.7429L27.5051 75.3146L29.3897 78.0188L29.3254 74.7234L28.3256 74.7429ZM27.5015 32.5312L26.5771 32.1497L26.4976 32.3424L26.5017 32.5507L27.5015 32.5312ZM41.014 32.2954L42.0138 32.2751L42.0084 32.0086L41.8711 31.7802L41.014 32.2954ZM41.6429 63.3225L40.65 63.4417L42.6427 63.3022L41.6429 63.3225ZM52.8797 66.2735L51.8815 66.3341L53.8774 66.3399L52.8797 66.2735ZM63.6185 66.086L62.619 66.1158L64.6163 66.153L63.6185 66.086ZM1.00901 30.6672L0.00913468 30.6827L0.0401785 32.6825L1.04006 32.667L1.00901 30.6672ZM16.2087 32.4315L17.2086 32.416L17.1776 30.4162L16.1777 30.4317L16.2087 32.4315ZM33.8219 15.6785L33.7861 16.6778L35.7849 16.7494L35.8206 15.75L33.8219 15.6785ZM36.3179 1.85675L36.3536 0.85739L34.3549 0.785857L34.3191 1.78522L36.3179 1.85675ZM21.5402 19.9105L22.2716 20.5925L23.6356 19.1297L22.9042 18.4477L21.5402 19.9105ZM11.9339 8.21777L11.2026 7.53577L9.83857 8.99848L10.5699 9.68048L11.9339 8.21777ZM44.8825 18.7448L44.2005 19.4762L45.6633 20.8402L46.3453 20.1088L44.8825 18.7448ZM57.2572 8.40718L57.9392 7.67583L56.4765 6.31183L55.7945 7.04319L57.2572 8.40718ZM50.7152 30.1215L49.7156 30.1493L49.7713 32.1486L50.7709 32.1207L50.7152 30.1215ZM67.0524 31.6667L68.052 31.6388L67.9963 29.6396L66.9967 29.6675L67.0524 31.6667ZM29.7544 122.23L29.7544 99.3113L27.7544 99.3113L27.7544 122.23L29.7544 122.23ZM29.532 98.6826L3.52358 66.5198L1.96842 67.7773L27.9768 99.9401L29.532 98.6826ZM2.746 67.1486C3.74063 67.045 3.74066 67.0454 3.7407 67.0457C3.74071 67.0458 3.74074 67.0461 3.74075 67.0462C3.74077 67.0464 3.74078 67.0465 3.74077 67.0464C3.74076 67.0463 3.74068 67.0455 3.74055 67.0442C3.74028 67.0414 3.73979 67.0363 3.73912 67.0288C3.73776 67.0138 3.73568 66.9894 3.73322 66.9565C3.72828 66.8907 3.72184 66.7907 3.71662 66.6626C3.70616 66.4057 3.70079 66.0387 3.72182 65.6081C3.76453 64.7336 3.91351 63.6573 4.30703 62.7123C4.69606 61.7781 5.28877 61.0478 6.19307 60.688C7.11142 60.3226 8.5485 60.2601 10.7873 61.0938L11.4853 59.2196C8.98103 58.287 6.99783 58.2153 5.45368 58.8297C3.8955 59.4497 2.98352 60.6881 2.46073 61.9434C1.94243 63.188 1.77248 64.522 1.7242 65.5105C1.69974 66.0114 1.70586 66.439 1.71827 66.7439C1.72449 66.8966 1.73232 67.0193 1.73881 67.1059C1.74205 67.1492 1.74496 67.1836 1.74718 67.2082C1.74829 67.2205 1.74922 67.2303 1.74994 67.2377C1.75029 67.2414 1.7506 67.2444 1.75084 67.2468C1.75096 67.248 1.75106 67.2491 1.75115 67.25C1.7512 67.2504 1.75126 67.2509 1.75128 67.2512C1.75133 67.2516 1.75138 67.2521 2.746 67.1486ZM10.7873 61.0938C15.3223 62.7827 19.495 66.3032 22.5707 69.4711C24.0991 71.0454 25.337 72.512 26.1919 73.5841C26.619 74.1197 26.9498 74.5559 27.1727 74.8565C27.2841 75.0068 27.3685 75.1232 27.4244 75.2011C27.4523 75.24 27.4732 75.2693 27.4867 75.2884C27.4934 75.298 27.4984 75.305 27.5015 75.3094C27.503 75.3116 27.5041 75.3131 27.5047 75.314C27.505 75.3145 27.5052 75.3147 27.5053 75.3148C27.5053 75.3149 27.5053 75.3148 27.5053 75.3149C27.5052 75.3148 27.5051 75.3146 28.3256 74.7429C29.146 74.1711 29.1458 74.1709 29.1457 74.1707C29.1456 74.1705 29.1454 74.1702 29.1452 74.1699C29.1448 74.1694 29.1443 74.1686 29.1436 74.1677C29.1424 74.1659 29.1406 74.1635 29.1384 74.1603C29.134 74.1541 29.1278 74.1452 29.1197 74.1337C29.1035 74.1108 29.0799 74.0776 29.0491 74.0347C28.9875 73.949 28.8971 73.8244 28.7794 73.6655C28.5439 73.3479 28.1988 72.8929 27.7555 72.3371C26.8697 71.2262 25.5888 69.7087 24.0057 68.078C20.8581 64.836 16.4362 61.0633 11.4853 59.2196L10.7873 61.0938ZM29.3254 74.7234L28.5013 32.5117L26.5017 32.5507L27.3258 74.7624L29.3254 74.7234ZM27.5015 32.5312C28.4258 32.9128 28.4257 32.913 28.4256 32.9133C28.4256 32.9133 28.4255 32.9135 28.4255 32.9136C28.4254 32.9138 28.4254 32.914 28.4253 32.914C28.4253 32.9141 28.4254 32.9138 28.4256 32.9133C28.4261 32.9121 28.4271 32.9097 28.4287 32.906C28.4318 32.8987 28.4371 32.8864 28.4445 32.8694C28.4593 32.8355 28.4826 32.7832 28.5142 32.7149C28.5776 32.5783 28.6741 32.379 28.8024 32.1379C29.0603 31.6532 29.4404 31.0117 29.9313 30.3738C30.9479 29.0524 32.2621 27.9709 33.7848 27.9444L33.7499 25.9447C31.284 25.9877 29.4653 27.6996 28.3461 29.1542C27.7691 29.9042 27.3306 30.6463 27.0368 31.1983C26.8893 31.4755 26.7767 31.7078 26.7 31.8731C26.6616 31.9559 26.6321 32.0221 26.6116 32.0691C26.6014 32.0926 26.5933 32.1112 26.5876 32.1248C26.5847 32.1316 26.5824 32.137 26.5807 32.1412C26.5798 32.1433 26.5791 32.145 26.5785 32.1465C26.5782 32.1472 26.5779 32.1478 26.5777 32.1483C26.5776 32.1486 26.5775 32.1489 26.5774 32.1491C26.5773 32.1494 26.5771 32.1497 27.5015 32.5312ZM33.7848 27.9444C35.3418 27.9172 36.8962 28.9854 38.1705 30.292C38.7842 30.9213 39.2851 31.5567 39.6331 32.0366C39.8064 32.2756 39.9402 32.4737 40.0294 32.6101C40.074 32.6782 40.1073 32.7307 40.1288 32.765C40.1395 32.7822 40.1473 32.7948 40.152 32.8025C40.1544 32.8063 40.156 32.809 40.1568 32.8103C40.1572 32.811 40.1574 32.8113 40.1574 32.8114C40.1574 32.8114 40.1574 32.8113 40.1573 32.8112C40.1573 32.8111 40.1572 32.811 40.1572 32.8109C40.157 32.8107 40.1569 32.8105 41.014 32.2954C41.8711 31.7802 41.8709 31.7799 41.8708 31.7797C41.8707 31.7796 41.8705 31.7793 41.8704 31.779C41.8701 31.7786 41.8698 31.778 41.8694 31.7774C41.8686 31.7761 41.8676 31.7745 41.8665 31.7726C41.8641 31.7687 41.861 31.7636 41.8571 31.7572C41.8492 31.7443 41.8382 31.7265 41.8241 31.704C41.7959 31.6589 41.7554 31.5951 41.703 31.5151C41.5985 31.3553 41.4465 31.1305 41.2521 30.8624C40.8646 30.3281 40.3017 29.6128 39.6023 28.8956C38.2504 27.5094 36.1814 25.9022 33.7499 25.9447L33.7848 27.9444ZM40.0142 32.3156L40.6431 63.3427L42.6427 63.3022L42.0138 32.2751L40.0142 32.3156ZM41.6429 63.3225C42.6357 63.2032 42.6357 63.2034 42.6358 63.2035C42.6358 63.2035 42.6358 63.2036 42.6358 63.2035C42.6358 63.2034 42.6357 63.2031 42.6356 63.2026C42.6355 63.2015 42.6353 63.1996 42.635 63.1969C42.6344 63.1914 42.6333 63.1827 42.632 63.1707C42.6293 63.1468 42.6253 63.1101 42.6203 63.0614C42.6102 62.9641 42.5961 62.8191 42.5804 62.6332C42.549 62.2611 42.5115 61.7266 42.4879 61.0839C42.4405 59.7934 42.45 58.0891 42.6689 56.3954C42.8902 54.684 43.3143 53.0779 44.0349 51.9187C44.727 50.8054 45.6573 50.1432 47.0083 50.1196L46.9734 48.1199C44.8048 48.1578 43.3068 49.3016 42.3363 50.8628C41.3943 52.3782 40.9213 54.3151 40.6854 56.139C40.4473 57.9806 40.4396 59.804 40.4893 61.1573C40.5142 61.8364 40.5539 62.4028 40.5875 62.8013C40.6043 63.0006 40.6196 63.1582 40.6309 63.2672C40.6365 63.3217 40.6412 63.364 40.6444 63.3934C40.6461 63.4081 40.6474 63.4195 40.6483 63.4276C40.6488 63.4317 40.6492 63.4349 40.6495 63.4372C40.6496 63.4384 40.6497 63.4394 40.6498 63.4401C40.6498 63.4405 40.6499 63.4409 40.6499 63.4411C40.65 63.4414 40.65 63.4417 41.6429 63.3225ZM47.0083 50.1196C48.2584 50.0978 49.2226 50.8099 50.0045 52.2304C50.7983 53.6724 51.2938 55.6767 51.5842 57.7869C51.872 59.8781 51.9473 61.9851 51.9494 63.5773C51.9504 64.3713 51.9333 65.0326 51.916 65.4939C51.9074 65.7245 51.8987 65.9048 51.8923 66.0265C51.889 66.0874 51.8864 66.1336 51.8845 66.164C51.8836 66.1792 51.8829 66.1905 51.8825 66.1977C51.8822 66.2013 51.8821 66.2039 51.882 66.2055C51.8819 66.2063 51.8819 66.2068 51.8819 66.207C51.8819 66.2072 51.8819 66.2072 51.8818 66.2072C51.8819 66.2072 51.8819 66.207 52.8797 66.2735C53.8774 66.3399 53.8775 66.3396 53.8775 66.3393C53.8775 66.3391 53.8775 66.3387 53.8775 66.3383C53.8776 66.3375 53.8777 66.3365 53.8778 66.3352C53.8779 66.3325 53.8782 66.3289 53.8785 66.3242C53.8791 66.3148 53.8799 66.3013 53.8809 66.2838C53.883 66.2489 53.886 66.1981 53.8895 66.1324C53.8964 66.0011 53.9056 65.8104 53.9146 65.5688C53.9327 65.0858 53.9505 64.3983 53.9494 63.5746C53.9472 61.9312 53.8701 59.7268 53.5655 57.5142C53.2636 55.3206 52.7269 53.0288 51.7566 51.266C50.7744 49.4817 49.2427 48.0803 46.9734 48.1199L47.0083 50.1196ZM52.8797 66.2735C53.8778 66.2128 53.8778 66.2129 53.8778 66.213C53.8778 66.213 53.8778 66.213 53.8778 66.2129C53.8778 66.2127 53.8778 66.2123 53.8777 66.2116C53.8777 66.2103 53.8775 66.208 53.8773 66.2048C53.877 66.1985 53.8764 66.1885 53.8757 66.1751C53.8742 66.1481 53.8721 66.107 53.8695 66.0528C53.8644 65.9444 53.8577 65.7835 53.8512 65.5775C53.8383 65.1655 53.8266 64.5743 53.8322 63.8637C53.8432 62.4384 53.9232 60.551 54.1944 58.6719C54.4682 56.7752 54.9256 54.9721 55.6456 53.6634C56.3568 52.371 57.2214 51.7203 58.3165 51.7012L58.2816 49.7015C56.1971 49.7379 54.7946 51.0615 53.8934 52.6993C53.0012 54.3208 52.5011 56.4037 52.2149 58.3862C51.9262 60.3862 51.8437 62.371 51.8322 63.8482C51.8265 64.5888 51.8386 65.2063 51.8522 65.6403C51.859 65.8573 51.8662 66.0287 51.8718 66.1468C51.8745 66.2059 51.8769 66.2516 51.8786 66.2832C51.8795 66.2989 51.8802 66.3111 51.8806 66.3197C51.8809 66.3239 51.8811 66.3273 51.8812 66.3297C51.8813 66.3309 51.8814 66.3319 51.8814 66.3326C51.8814 66.333 51.8814 66.3334 51.8815 66.3336C51.8815 66.3339 51.8815 66.3341 52.8797 66.2735ZM58.3165 51.7012C59.4005 51.6823 60.2435 52.29 60.9384 53.5433C61.6459 54.8194 62.0913 56.6015 62.3529 58.4894C62.6119 60.3583 62.6797 62.2427 62.6816 63.6679C62.6825 64.3784 62.6671 64.9701 62.6515 65.3826C62.6437 65.5888 62.6359 65.75 62.6301 65.8587C62.6272 65.913 62.6248 65.9542 62.6231 65.9812C62.6223 65.9947 62.6217 66.0047 62.6213 66.0111C62.6211 66.0143 62.6209 66.0165 62.6209 66.0179C62.6208 66.0185 62.6208 66.019 62.6208 66.0192C62.6208 66.0193 62.6208 66.0193 62.6208 66.0193C62.6208 66.0192 62.6208 66.0191 63.6185 66.086C64.6163 66.153 64.6163 66.1527 64.6163 66.1524C64.6163 66.1522 64.6164 66.1518 64.6164 66.1515C64.6164 66.1507 64.6165 66.1497 64.6166 66.1485C64.6167 66.1461 64.617 66.1428 64.6172 66.1385C64.6178 66.13 64.6185 66.1177 64.6195 66.1019C64.6214 66.0704 64.6241 66.0245 64.6272 65.9654C64.6336 65.8471 64.6419 65.6755 64.6501 65.4582C64.6665 65.0238 64.6826 64.4057 64.6816 63.6653C64.6797 62.1885 64.6099 60.2059 64.334 58.2148C64.0606 56.2426 63.5735 54.1715 62.6875 52.5735C61.7888 50.9526 60.3771 49.6649 58.2816 49.7015L58.3165 51.7012ZM63.6185 66.086C64.6181 66.0563 64.6181 66.0565 64.6181 66.0567C64.6181 66.0567 64.6181 66.0568 64.6181 66.0568C64.6181 66.0568 64.6181 66.0566 64.6181 66.0562C64.6181 66.0554 64.618 66.0538 64.618 66.0514C64.6178 66.0466 64.6177 66.0388 64.6174 66.028C64.617 66.0064 64.6164 65.9729 64.616 65.9283C64.615 65.839 64.6146 65.7053 64.6167 65.5336C64.6208 65.1899 64.6349 64.6952 64.675 64.0999C64.7557 62.9043 64.9401 61.3259 65.3494 59.7574C65.7617 58.1775 66.3832 56.6828 67.2922 55.5925C68.1752 54.5333 69.3275 53.8509 70.9141 53.8232L70.8792 51.8235C68.6314 51.8628 66.9567 52.8717 65.7561 54.3118C64.5815 55.7208 63.8628 57.5334 63.4142 59.2524C62.9626 60.9829 62.7653 62.695 62.6796 63.9652C62.6366 64.6028 62.6213 65.1348 62.6168 65.5097C62.6146 65.6972 62.615 65.8457 62.6161 65.9488C62.6166 66.0004 62.6173 66.0406 62.6179 66.0687C62.6181 66.0827 62.6184 66.0937 62.6186 66.1016C62.6187 66.1056 62.6188 66.1087 62.6188 66.1111C62.6189 66.1123 62.6189 66.1132 62.6189 66.114C62.6189 66.1144 62.6189 66.1149 62.619 66.115C62.619 66.1154 62.619 66.1158 63.6185 66.086ZM70.9141 53.8232C71.4024 53.8147 71.947 54.0821 72.541 54.9482C73.1381 55.8189 73.6699 57.144 74.1161 58.8583C75.0045 62.272 75.479 66.9277 75.6427 71.7556C75.8059 76.5712 75.6583 81.4996 75.3249 85.4323C75.158 87.3999 74.946 89.103 74.7068 90.4105C74.5872 91.065 74.4633 91.6057 74.3396 92.0239C74.2098 92.4629 74.1011 92.6928 74.0419 92.7807L75.7005 93.8983C75.9354 93.5496 76.1129 93.08 76.2575 92.5911C76.4083 92.0814 76.547 91.4658 76.6742 90.7703C76.9289 89.3779 77.1477 87.6062 77.3177 85.6013C77.6579 81.5889 77.8074 76.5815 77.6415 71.6878C77.476 66.8065 76.995 61.9795 76.0516 58.3546C75.5818 56.5497 74.9786 54.9665 74.1904 53.8171C73.399 52.6631 72.308 51.7986 70.8792 51.8235L70.9141 53.8232ZM74.0419 92.7807C73.6271 93.3962 73.3501 94.3501 73.1399 95.3843C72.921 96.4613 72.747 97.7785 72.6076 99.2313C72.3285 102.14 72.181 105.67 72.1075 109.073C72.034 112.479 72.0342 115.773 72.0528 118.214C72.0621 119.436 72.076 120.444 72.0876 121.148C72.0934 121.5 72.0986 121.776 72.1024 121.964C72.1043 122.058 72.1058 122.13 72.1069 122.179C72.1074 122.203 72.1078 122.221 72.1081 122.234C72.1082 122.24 72.1083 122.245 72.1084 122.248C72.1085 122.25 72.1085 122.251 72.1085 122.252C72.1085 122.252 72.1085 122.252 72.1085 122.253C72.1085 122.253 72.1085 122.253 73.1083 122.23C74.108 122.207 74.108 122.207 74.108 122.206C74.108 122.206 74.108 122.206 74.108 122.206C74.108 122.205 74.1079 122.204 74.1079 122.202C74.1078 122.199 74.1077 122.195 74.1076 122.189C74.1073 122.177 74.1069 122.159 74.1064 122.135C74.1054 122.088 74.1039 122.017 74.102 121.924C74.0983 121.738 74.0931 121.465 74.0874 121.115C74.0759 120.416 74.062 119.414 74.0528 118.199C74.0343 115.769 74.0341 112.496 74.1071 109.116C74.1802 105.732 74.3263 102.258 74.5984 99.4223C74.7346 98.003 74.9006 96.763 75.0998 95.7826C75.3077 94.7595 75.527 94.1558 75.7005 93.8983L74.0419 92.7807ZM1.04006 32.667L16.2087 32.4315L16.1777 30.4317L1.00901 30.6672L1.04006 32.667ZM35.8206 15.75L36.3179 1.85675L34.3191 1.78522L33.8219 15.6785L35.8206 15.75ZM22.9042 18.4477L11.9339 8.21777L10.5699 9.68048L21.5402 19.9105L22.9042 18.4477ZM46.3453 20.1088L57.2572 8.40718L55.7945 7.04319L44.8825 18.7448L46.3453 20.1088ZM50.7709 32.1207L67.0524 31.6667L66.9967 29.6675L50.7152 30.1215L50.7709 32.1207Z" fill="white"/>
</svg>
