<svg width="456" height="470" viewBox="0 0 456 470" fill="none" xmlns="http://www.w3.org/2000/svg">
<g opacity="0.1">
<g opacity="0.630288">
<path fill-rule="evenodd" clip-rule="evenodd" d="M-3.03139 477.672L1.8391 489.727C3.09323 492.831 6.6689 494.373 9.73816 493.133L25.2755 486.855C28.345 485.615 29.8302 482.061 28.5761 478.956L22.228 463.245C20.9739 460.14 17.4365 458.616 14.367 459.856L2.88004 464.497C-3.66541 467.014 -4.74844 465.597 -7.07619 459.835L-11.8526 448.013C-13.1068 444.909 -16.6443 443.384 -19.7138 444.624L-35.2509 450.902C-38.3204 452.142 -39.8058 455.696 -38.5517 458.801L-32.2037 474.512C-30.9496 477.616 -27.4119 479.141 -24.3423 477.901L-14.3176 473.851C-8.16217 471.364 -5.76538 470.906 -3.03139 477.672Z" fill="white"/>
<path fill-rule="evenodd" clip-rule="evenodd" d="M-2.71396 444.24L0.774579 452.874C1.46388 454.581 3.42356 455.412 5.13004 454.723L13.7665 451.233C15.4726 450.544 16.3049 448.584 15.6156 446.878L12.1271 438.244C11.4379 436.538 9.47795 435.707 7.77176 436.396L-0.864654 439.885C-2.57113 440.575 -3.40315 442.534 -2.71396 444.24Z" fill="white"/>
</g>
<g opacity="0.969365">
<path fill-rule="evenodd" clip-rule="evenodd" d="M63.0281 477.787L67.0458 490.153C68.0803 493.337 71.5398 495.124 74.6881 494.101L90.6254 488.923C93.774 487.899 95.5035 484.457 94.469 481.273L89.2324 465.157C88.1979 461.973 84.7755 460.205 81.6269 461.228L69.8442 465.056C63.1391 467.111 62.1576 465.622 60.2374 459.712L56.2972 447.585C55.2627 444.401 51.8402 442.633 48.6916 443.656L32.7545 448.834C29.606 449.857 27.8762 453.3 28.9107 456.484L34.1473 472.6C35.1818 475.784 38.6045 477.552 41.7531 476.529L52.036 473.188C58.3499 471.136 60.7728 470.846 63.0281 477.787Z" fill="white"/>
<path fill-rule="evenodd" clip-rule="evenodd" d="M65.6768 444.459L68.5546 453.315C69.1232 455.065 71.0201 456.032 72.7705 455.463L81.6293 452.584C83.3794 452.016 84.3464 450.119 83.7777 448.369L80.9 439.512C80.3315 437.763 78.4343 436.796 76.6842 437.365L67.8254 440.243C66.075 440.812 65.1083 442.709 65.6768 444.459Z" fill="white"/>
</g>
<g opacity="0.220154">
<path fill-rule="evenodd" clip-rule="evenodd" d="M129.081 477.859L132.226 490.474C133.036 493.723 136.363 495.747 139.575 494.946L155.834 490.892C159.047 490.091 161.012 486.778 160.202 483.53L156.103 467.087C155.293 463.839 152.002 461.836 148.79 462.637L136.769 465.634C129.937 467.217 129.061 465.662 127.558 459.633L124.473 447.261C123.663 444.013 120.373 442.01 117.16 442.811L100.901 446.865C97.6887 447.666 95.723 450.979 96.5329 454.227L100.632 470.67C101.442 473.918 104.733 475.921 107.946 475.12L118.437 472.504C124.878 470.898 127.315 470.778 129.081 477.859Z" fill="white"/>
<path fill-rule="evenodd" clip-rule="evenodd" d="M134.048 444.796L136.301 453.832C136.746 455.618 138.571 456.714 140.357 456.269L149.395 454.015C151.181 453.57 152.277 451.745 151.832 449.96L149.579 440.924C149.134 439.139 147.309 438.043 145.524 438.488L136.486 440.741C134.7 441.186 133.603 443.011 134.048 444.796Z" fill="white"/>
</g>
<g opacity="0.18701">
<path fill-rule="evenodd" clip-rule="evenodd" d="M195.131 477.887L197.388 490.691C197.97 493.988 201.147 496.239 204.407 495.664L220.91 492.755C224.17 492.18 226.362 489.012 225.78 485.715L222.838 469.026C222.256 465.729 219.113 463.502 215.853 464.077L203.652 466.228C196.726 467.33 195.962 465.718 194.883 459.599L192.669 447.042C192.087 443.745 188.944 441.518 185.684 442.093L169.181 445.002C165.921 445.577 163.729 448.745 164.31 452.042L167.253 468.731C167.834 472.028 170.977 474.255 174.238 473.68L184.886 471.802C191.423 470.65 193.863 470.7 195.131 477.887Z" fill="white"/>
<path fill-rule="evenodd" clip-rule="evenodd" d="M202.392 445.251L204.009 454.422C204.329 456.234 206.073 457.455 207.885 457.136L217.058 455.518C218.871 455.199 220.092 453.455 219.773 451.643L218.155 442.472C217.836 440.66 216.092 439.439 214.279 439.759L205.106 441.376C203.294 441.696 202.073 443.439 202.392 445.251Z" fill="white"/>
</g>
<g opacity="0.531717">
<path fill-rule="evenodd" clip-rule="evenodd" d="M261.18 477.871L262.539 490.801C262.889 494.131 265.901 496.598 269.193 496.252L285.859 494.501C289.151 494.155 291.559 491.147 291.209 487.818L289.437 470.965C289.087 467.635 286.107 465.194 282.815 465.54L270.494 466.835C263.508 467.451 262.857 465.79 262.208 459.61L260.875 446.929C260.525 443.6 257.545 441.159 254.253 441.505L237.587 443.256C234.295 443.602 231.887 446.61 232.237 449.939L234.008 466.792C234.358 470.122 237.339 472.563 240.631 472.217L251.384 471.087C257.986 470.393 260.417 470.613 261.18 477.871Z" fill="white"/>
<path fill-rule="evenodd" clip-rule="evenodd" d="M270.7 445.821L271.673 455.083C271.866 456.913 273.52 458.252 275.351 458.06L284.614 457.086C286.444 456.894 287.785 455.24 287.592 453.41L286.619 444.148C286.426 442.318 284.772 440.979 282.942 441.171L273.678 442.145C271.847 442.337 270.508 443.992 270.7 445.821Z" fill="white"/>
</g>
<g opacity="0.72339">
<path fill-rule="evenodd" clip-rule="evenodd" d="M-13.3083 405.638L-24.3343 412.528C-27.1735 414.302 -28.0706 418.091 -26.3164 420.898L-17.4363 435.109C-15.6819 437.917 -11.9235 438.762 -9.08433 436.988L5.28653 428.008C8.12568 426.234 9.01321 422.486 7.25885 419.678L0.693659 409.172C-2.92241 403.163 -1.71441 401.85 3.55524 398.557L14.3683 391.801C17.2074 390.027 18.0952 386.278 16.3409 383.47L7.4609 369.259C5.70654 366.452 1.94795 365.606 -0.891205 367.38L-15.2621 376.36C-18.1012 378.134 -18.9886 381.883 -17.2342 384.691L-11.5047 393.86C-7.98666 399.49 -7.11903 401.771 -13.3083 405.638Z" fill="white"/>
<path fill-rule="evenodd" clip-rule="evenodd" d="M19.6712 400.145L11.7738 405.08C10.2133 406.055 9.73464 408.129 10.71 409.69L15.646 417.59C16.6211 419.15 18.6955 419.63 20.256 418.654L28.1534 413.72C29.7137 412.745 30.1921 410.67 29.217 409.109L24.281 401.21C23.3057 399.649 21.2315 399.17 19.6712 400.145Z" fill="white"/>
</g>
<g opacity="0.4">
<path fill-rule="evenodd" clip-rule="evenodd" d="M53.1487 405.049L41.6689 411.153C38.7129 412.725 37.5537 416.442 39.1078 419.365L46.975 434.161C48.5292 437.084 52.2195 438.189 55.1755 436.618L70.1378 428.662C73.0938 427.09 74.2406 423.413 72.6864 420.49L66.8701 409.551C63.6819 403.305 64.9786 402.079 70.4651 399.162L81.7231 393.176C84.6791 391.604 85.8262 387.927 84.272 385.004L76.405 370.208C74.8507 367.285 71.1603 366.179 68.2043 367.751L53.242 375.706C50.286 377.278 49.1393 380.956 50.6936 383.879L55.7695 393.425C58.8863 399.287 59.5927 401.623 53.1487 405.049Z" fill="white"/>
<path fill-rule="evenodd" clip-rule="evenodd" d="M27.5714 389.356L37.1645 384.255C39.0597 383.247 41.4349 383.974 42.4429 385.87L47.5447 395.465C48.5526 397.36 47.8268 399.736 45.9316 400.743L36.3385 405.844C34.4433 406.852 32.0682 406.125 31.0603 404.23L25.9585 394.635C24.9505 392.739 25.6763 390.363 27.5714 389.356Z" fill="white"/>
<path fill-rule="evenodd" clip-rule="evenodd" d="M86.4311 401.87L78.2086 406.242C76.5839 407.106 75.9617 409.142 76.8258 410.767L81.1988 418.991C82.0627 420.616 84.0986 421.239 85.7233 420.375L93.9457 416.003C95.5702 415.14 96.1922 413.103 95.3283 411.479L90.9553 403.254C90.0912 401.629 88.0555 401.007 86.4311 401.87Z" fill="white"/>
</g>
<g opacity="0.5">
<path fill-rule="evenodd" clip-rule="evenodd" d="M119.647 404.446L107.77 409.735C104.711 411.096 103.296 414.724 104.642 417.748L111.458 433.057C112.804 436.081 116.409 437.441 119.467 436.079L134.948 429.187C138.006 427.825 139.407 424.237 138.06 421.212L133.021 409.894C130.277 403.441 131.656 402.309 137.332 399.782L148.98 394.595C152.039 393.234 153.44 389.645 152.093 386.621L145.277 371.312C143.931 368.288 140.326 366.927 137.268 368.289L121.787 375.182C118.729 376.543 117.328 380.132 118.675 383.156L123.073 393.034C125.773 399.099 126.315 401.478 119.647 404.446Z" fill="white"/>
<path fill-rule="evenodd" clip-rule="evenodd" d="M95.2271 387.007L105.153 382.588C107.113 381.715 109.432 382.605 110.305 384.567L114.726 394.494C115.599 396.456 114.709 398.775 112.748 399.648L102.823 404.067C100.862 404.94 98.5431 404.05 97.6699 402.088L93.2498 392.16C92.3765 390.199 93.2662 387.88 95.2271 387.007Z" fill="white"/>
<path fill-rule="evenodd" clip-rule="evenodd" d="M153.07 403.597L144.563 407.385C142.882 408.133 142.119 410.121 142.868 411.802L146.657 420.311C147.405 421.992 149.392 422.756 151.073 422.007L159.581 418.22C161.262 417.471 162.024 415.484 161.276 413.802L157.487 405.293C156.738 403.612 154.751 402.849 153.07 403.597Z" fill="white"/>
</g>
<g opacity="0.3">
<path fill-rule="evenodd" clip-rule="evenodd" d="M186.188 403.833L173.971 408.279C170.825 409.424 169.16 412.944 170.292 416.055L176.023 431.802C177.156 434.913 180.656 436.521 183.802 435.376L199.726 429.58C202.872 428.435 204.519 424.953 203.387 421.842L199.15 410.2C196.862 403.571 198.317 402.538 204.156 400.413L216.137 396.052C219.283 394.907 220.931 391.425 219.799 388.314L214.067 372.567C212.935 369.456 209.434 367.848 206.288 368.993L190.365 374.788C187.219 375.933 185.571 379.416 186.704 382.527L190.401 392.687C192.672 398.925 193.047 401.336 186.188 403.833Z" fill="white"/>
<path fill-rule="evenodd" clip-rule="evenodd" d="M163.044 384.732L173.254 381.016C175.271 380.282 177.522 381.332 178.256 383.35L181.973 393.562C182.707 395.579 181.658 397.83 179.641 398.564L169.431 402.28C167.414 403.014 165.163 401.964 164.429 399.947L160.712 389.735C159.978 387.718 161.027 385.466 163.044 384.732Z" fill="white"/>
<path fill-rule="evenodd" clip-rule="evenodd" d="M219.589 405.317L210.838 408.502C209.109 409.131 208.21 411.061 208.839 412.79L212.025 421.543C212.655 423.272 214.584 424.172 216.313 423.543L225.064 420.358C226.793 419.729 227.692 417.799 227.063 416.07L223.877 407.317C223.247 405.587 221.318 404.687 219.589 405.317Z" fill="white"/>
</g>
<g opacity="0.20237">
<path fill-rule="evenodd" clip-rule="evenodd" d="M252.773 403.211L240.275 406.795C237.057 407.717 235.15 411.112 236.062 414.294L240.681 430.403C241.594 433.585 244.974 435.434 248.192 434.511L264.481 429.84C267.699 428.917 269.586 425.559 268.673 422.376L265.258 410.467C263.438 403.694 264.962 402.765 270.935 401.053L283.191 397.538C286.409 396.615 288.296 393.257 287.384 390.074L282.765 373.966C281.852 370.784 278.472 368.935 275.254 369.858L258.965 374.529C255.747 375.451 253.86 378.81 254.773 381.993L257.753 392.386C259.583 398.768 259.788 401.199 252.773 403.211Z" fill="white"/>
<path fill-rule="evenodd" clip-rule="evenodd" d="M231.017 382.542L241.461 379.548C243.524 378.956 245.697 380.161 246.288 382.225L249.284 392.671C249.876 394.735 248.672 396.907 246.609 397.499L236.165 400.493C234.101 401.085 231.929 399.881 231.337 397.817L228.342 387.371C227.75 385.307 228.954 383.134 231.017 382.542Z" fill="white"/>
<path fill-rule="evenodd" clip-rule="evenodd" d="M285.989 407.021L277.037 409.588C275.268 410.095 274.236 411.957 274.744 413.726L277.311 422.68C277.818 424.449 279.68 425.482 281.449 424.975L290.401 422.408C292.169 421.901 293.201 420.038 292.694 418.269L290.126 409.315C289.619 407.546 287.757 406.514 285.989 407.021Z" fill="white"/>
</g>
<g opacity="0.643232">
<path fill-rule="evenodd" clip-rule="evenodd" d="M-9.83389 327.896L-18.5337 318.234C-20.7738 315.746 -24.6611 315.52 -27.1211 317.735L-39.5744 328.948C-42.0346 331.163 -42.2145 335.011 -39.9743 337.499L-28.6354 350.093C-26.3952 352.581 -22.5496 352.804 -20.0893 350.588L-10.8825 342.299C-5.59286 337.694 -4.0903 338.656 0.0675827 343.273L8.59935 352.749C10.8395 355.237 14.6854 355.46 17.1456 353.245L29.5987 342.032C32.0589 339.817 32.239 335.969 29.9989 333.481L18.6599 320.888C16.4198 318.4 12.5739 318.177 10.1136 320.392L2.07869 327.627C-2.8549 332.069 -4.95036 333.319 -9.83389 327.896Z" fill="white"/>
<path fill-rule="evenodd" clip-rule="evenodd" d="M-0.794199 299.282L6.47577 307.356C7.91201 308.951 7.78148 311.431 6.18599 312.868L-1.88991 320.139C-3.4854 321.576 -5.96575 321.446 -7.40199 319.851L-14.672 311.777C-16.1082 310.182 -15.9779 307.702 -14.3824 306.265L-6.30651 298.994C-4.71101 297.557 -2.23043 297.686 -0.794199 299.282Z" fill="white"/>
<path fill-rule="evenodd" clip-rule="evenodd" d="M1.30242 359.42L-4.92889 352.5C-6.16014 351.132 -8.28605 351.021 -9.6538 352.253L-16.576 358.485C-17.9435 359.717 -18.0554 361.843 -16.8241 363.21L-10.5928 370.131C-9.36176 371.498 -7.23563 371.609 -5.8681 370.378L1.05405 364.145C2.42181 362.913 2.53346 360.788 1.30242 359.42Z" fill="white"/>
</g>
<g opacity="0.135167">
<path fill-rule="evenodd" clip-rule="evenodd" d="M57.3853 327.576L49.3807 317.331C47.3196 314.693 43.4575 314.196 40.849 316.234L27.6439 326.551C25.0351 328.59 24.5872 332.416 26.6484 335.054L37.0812 348.407C39.1424 351.046 42.9631 351.536 45.5719 349.498L55.3346 341.871C60.9325 337.646 62.3643 338.711 66.19 343.607L74.04 353.655C76.1011 356.293 79.922 356.784 82.5308 354.746L95.7357 344.429C98.3445 342.391 98.7926 338.564 96.7315 335.926L86.2986 322.573C84.2374 319.935 80.4165 319.444 77.8077 321.482L69.2876 328.139C64.0562 332.226 61.8786 333.327 57.3853 327.576Z" fill="white"/>
<path fill-rule="evenodd" clip-rule="evenodd" d="M68.399 299.662L75.0881 308.224C76.4095 309.915 76.1063 312.381 74.4145 313.702L65.851 320.393C64.1592 321.715 61.6939 321.412 60.3725 319.721L53.6834 311.159C52.3619 309.468 52.6649 307.003 54.3568 305.681L62.9202 298.99C64.612 297.669 67.0776 297.971 68.399 299.662Z" fill="white"/>
<path fill-rule="evenodd" clip-rule="evenodd" d="M66.2954 359.801L60.562 352.462C59.4292 351.012 57.3162 350.753 55.8659 351.886L48.5258 357.621C47.0757 358.754 46.8158 360.867 47.9487 362.317L53.682 369.656C54.8147 371.105 56.9279 371.364 58.378 370.231L65.7181 364.497C67.1684 363.364 67.4281 361.251 66.2954 359.801Z" fill="white"/>
</g>
<g opacity="0.597194">
<path fill-rule="evenodd" clip-rule="evenodd" d="M124.626 327.295L117.355 316.516C115.483 313.741 111.665 312.976 108.921 314.828L95.028 324.198C92.2834 326.05 91.5697 329.835 93.4418 332.611L102.918 346.659C104.79 349.435 108.567 350.191 111.312 348.34L121.583 341.412C127.462 337.588 128.816 338.75 132.29 343.901L139.42 354.472C141.293 357.247 145.07 358.004 147.815 356.153L161.707 346.782C164.452 344.931 165.165 341.145 163.293 338.37L153.817 324.321C151.945 321.545 148.168 320.789 145.423 322.641L136.46 328.687C130.956 332.399 128.707 333.346 124.626 327.295Z" fill="white"/>
<path fill-rule="evenodd" clip-rule="evenodd" d="M137.56 300.218L143.635 309.225C144.835 311.004 144.361 313.443 142.581 314.643L133.572 320.72C131.792 321.921 129.354 321.447 128.153 319.667L122.078 310.66C120.877 308.881 121.352 306.443 123.132 305.242L132.141 299.165C133.921 297.965 136.359 298.438 137.56 300.218Z" fill="white"/>
<path fill-rule="evenodd" clip-rule="evenodd" d="M131.266 360.063L126.059 352.342C125.03 350.817 122.94 350.411 121.414 351.44L113.692 356.649C112.166 357.678 111.759 359.768 112.788 361.293L117.996 369.014C119.025 370.539 121.115 370.945 122.64 369.916L130.363 364.707C131.888 363.678 132.295 361.588 131.266 360.063Z" fill="white"/>
</g>
<g opacity="0.407887">
<path fill-rule="evenodd" clip-rule="evenodd" d="M191.884 327.054L185.383 315.794C183.709 312.895 179.954 311.866 177.087 313.521L162.575 321.9C159.708 323.555 158.732 327.282 160.405 330.181L168.878 344.857C170.552 347.756 174.267 348.774 177.135 347.119L187.864 340.924C193.995 337.52 195.265 338.773 198.372 344.154L204.747 355.197C206.421 358.096 210.136 359.114 213.003 357.459L227.516 349.08C230.383 347.425 231.359 343.698 229.685 340.799L221.212 326.123C219.538 323.224 215.823 322.206 212.956 323.862L203.592 329.268C197.843 332.587 195.533 333.375 191.884 327.054Z" fill="white"/>
<path fill-rule="evenodd" clip-rule="evenodd" d="M206.675 300.945L212.108 310.354C213.181 312.213 212.538 314.612 210.678 315.685L201.267 321.119C199.408 322.192 197.008 321.55 195.935 319.691L190.503 310.282C189.43 308.423 190.073 306.024 191.932 304.951L201.343 299.517C203.203 298.443 205.602 299.086 206.675 300.945Z" fill="white"/>
<path fill-rule="evenodd" clip-rule="evenodd" d="M196.223 360.205L191.566 352.14C190.646 350.547 188.59 349.996 186.996 350.916L178.929 355.574C177.336 356.494 176.784 358.55 177.704 360.144L182.36 368.209C183.28 369.802 185.337 370.352 186.931 369.432L194.997 364.775C196.591 363.855 197.142 361.799 196.223 360.205Z" fill="white"/>
</g>
<g opacity="0.604777">
<path fill-rule="evenodd" clip-rule="evenodd" d="M259.158 326.854L253.458 315.168C251.991 312.159 248.316 310.871 245.341 312.322L230.279 319.668C227.304 321.119 226.07 324.769 227.538 327.778L234.966 343.009C236.434 346.018 240.069 347.292 243.045 345.841L254.18 340.41C260.534 337.442 261.713 338.78 264.437 344.365L270.026 355.825C271.494 358.835 275.129 360.109 278.105 358.658L293.166 351.312C296.142 349.861 297.376 346.211 295.908 343.202L288.48 327.971C287.012 324.962 283.376 323.688 280.401 325.139L270.683 329.879C264.716 332.789 262.357 333.414 259.158 326.854Z" fill="white"/>
<path fill-rule="evenodd" clip-rule="evenodd" d="M275.734 301.84L280.497 311.605C281.438 313.535 280.629 315.883 278.699 316.824L268.932 321.588C267.002 322.529 264.654 321.721 263.713 319.792L258.95 310.026C258.009 308.097 258.818 305.749 260.748 304.808L270.515 300.044C272.445 299.103 274.794 299.911 275.734 301.84Z" fill="white"/>
<path fill-rule="evenodd" clip-rule="evenodd" d="M261.173 360.227L257.091 351.857C256.284 350.203 254.271 349.51 252.617 350.317L244.245 354.401C242.591 355.207 241.898 357.22 242.704 358.874L246.787 367.244C247.593 368.898 249.606 369.59 251.26 368.784L259.632 364.7C261.287 363.894 261.98 361.881 261.173 360.227Z" fill="white"/>
</g>
<g opacity="0.728465">
<path fill-rule="evenodd" clip-rule="evenodd" d="M326.444 326.696L321.574 314.641C320.319 311.537 316.744 309.996 313.675 311.236L298.137 317.513C295.068 318.753 293.583 322.308 294.837 325.412L301.185 341.124C302.439 344.228 305.976 345.753 309.046 344.513L320.533 339.872C327.078 337.354 328.161 338.772 330.489 344.533L335.265 356.355C336.519 359.459 340.057 360.985 343.127 359.744L358.664 353.467C361.733 352.227 363.219 348.672 361.964 345.568L355.616 329.856C354.362 326.752 350.825 325.227 347.755 326.467L337.73 330.518C331.575 333.005 329.178 333.463 326.444 326.696Z" fill="white"/>
<path fill-rule="evenodd" clip-rule="evenodd" d="M344.725 302.899L348.795 312.973C349.599 314.963 348.628 317.25 346.638 318.054L336.562 322.125C334.571 322.929 332.285 321.959 331.481 319.969L327.411 309.895C326.607 307.905 327.577 305.619 329.568 304.814L339.644 300.744C341.634 299.939 343.921 300.909 344.725 302.899Z" fill="white"/>
<path fill-rule="evenodd" clip-rule="evenodd" d="M326.127 360.129L322.638 351.494C321.949 349.788 319.989 348.956 318.283 349.646L309.646 353.135C307.94 353.825 307.108 355.784 307.797 357.49L311.286 366.125C311.975 367.831 313.935 368.662 315.641 367.973L324.277 364.483C325.984 363.794 326.816 361.834 326.127 360.129Z" fill="white"/>
</g>
<g opacity="0.913264">
<path fill-rule="evenodd" clip-rule="evenodd" d="M1.64977 262.705L9.65435 252.459C11.7155 249.821 11.2626 245.954 8.65405 243.916L-4.55107 233.599C-7.15987 231.56 -10.9808 232.052 -13.0419 234.69L-23.4748 248.043C-25.536 250.681 -25.0879 254.507 -22.4791 256.546L-12.7164 264.173C-7.26327 268.583 -7.94944 270.229 -11.7751 275.126L-19.6251 285.174C-21.6862 287.812 -21.2384 291.638 -18.6296 293.676L-5.4247 303.993C-2.8159 306.031 1.00525 305.54 3.0664 302.902L13.4993 289.549C15.5604 286.91 15.1121 283.084 12.5033 281.046L3.98331 274.389C-1.24814 270.302 -2.84352 268.456 1.64977 262.705Z" fill="white"/>
<path fill-rule="evenodd" clip-rule="evenodd" d="M31.3988 266.638L24.7098 275.2C23.3883 276.891 20.9228 277.193 19.231 275.872L10.6675 269.181C8.97571 267.859 8.67272 265.394 9.99418 263.703L16.6832 255.141C18.0047 253.45 20.47 253.147 22.1618 254.469L30.7252 261.16C32.4171 262.481 32.7203 264.947 31.3988 266.638Z" fill="white"/>
</g>
<g opacity="0.755611">
<path fill-rule="evenodd" clip-rule="evenodd" d="M68.7362 263.182L77.436 253.52C79.6762 251.032 79.4941 247.143 77.0341 244.928L64.5808 233.715C62.1205 231.5 58.2747 231.723 56.0345 234.211L44.6956 246.804C42.4554 249.292 42.6355 253.14 45.0958 255.355L54.3026 263.645C59.4349 268.424 58.6355 270.019 54.4776 274.637L45.9458 284.113C43.7057 286.601 43.8856 290.449 46.3458 292.664L58.7989 303.877C61.2591 306.092 65.1052 305.869 67.3454 303.381L78.6843 290.788C80.9245 288.3 80.7442 284.452 78.2839 282.236L70.249 275.002C65.3154 270.559 63.8527 268.606 68.7362 263.182Z" fill="white"/>
<path fill-rule="evenodd" clip-rule="evenodd" d="M98.1384 269.182L90.8685 277.256C89.4322 278.851 86.9516 278.98 85.3562 277.544L77.2803 270.272C75.6848 268.836 75.5545 266.355 76.9907 264.76L84.2607 256.686C85.6969 255.091 88.1773 254.961 89.7728 256.398L97.8487 263.669C99.4441 265.106 99.5747 267.587 98.1384 269.182Z" fill="white"/>
<path fill-rule="evenodd" clip-rule="evenodd" d="M38.5482 277.553L44.7795 270.632C46.0108 269.265 45.8991 267.139 44.5314 265.908L37.6092 259.675C36.2417 258.444 34.1156 258.554 32.8843 259.922L26.653 266.842C25.422 268.21 25.5338 270.336 26.9014 271.567L33.8235 277.8C35.1913 279.031 37.3172 278.92 38.5482 277.553Z" fill="white"/>
</g>
<g opacity="0.52853">
<path fill-rule="evenodd" clip-rule="evenodd" d="M135.788 263.688L145.141 254.656C147.549 252.33 147.639 248.438 145.339 246.056L133.699 234.002C131.399 231.621 127.547 231.575 125.138 233.901L112.949 245.672C110.54 247.998 110.452 251.849 112.751 254.23L121.358 263.142C126.144 268.268 125.235 269.803 120.765 274.12L111.593 282.977C109.185 285.303 109.096 289.154 111.396 291.535L123.036 303.59C125.336 305.971 129.188 306.017 131.597 303.691L143.786 291.92C146.195 289.594 146.283 285.743 143.984 283.361L136.473 275.584C131.861 270.808 130.538 268.757 135.788 263.688Z" fill="white"/>
<path fill-rule="evenodd" clip-rule="evenodd" d="M164.7 271.723L156.885 279.271C155.341 280.762 152.857 280.718 151.366 279.173L143.817 271.356C142.326 269.812 142.369 267.328 143.913 265.837L151.728 258.29C153.272 256.799 155.755 256.843 157.247 258.387L164.796 266.204C166.287 267.749 166.244 270.232 164.7 271.723Z" fill="white"/>
<path fill-rule="evenodd" clip-rule="evenodd" d="M104.671 275.917L111.37 269.448C112.694 268.17 112.731 266.042 111.452 264.718L104.982 258.017C103.703 256.694 101.575 256.656 100.251 257.934L93.5523 264.403C92.2288 265.681 92.1921 267.81 93.4704 269.134L99.941 275.834C101.219 277.158 103.348 277.195 104.671 275.917Z" fill="white"/>
</g>
<g opacity="0.163157">
<path fill-rule="evenodd" clip-rule="evenodd" d="M202.804 264.218L212.764 255.86C215.329 253.709 215.69 249.832 213.562 247.296L202.79 234.459C200.662 231.923 196.823 231.609 194.258 233.76L181.277 244.653C178.712 246.805 178.355 250.641 180.483 253.177L188.447 262.667C192.864 268.114 191.85 269.582 187.09 273.576L177.323 281.772C174.758 283.924 174.401 287.76 176.529 290.296L187.3 303.133C189.428 305.669 193.268 305.983 195.832 303.831L208.814 292.939C211.378 290.787 211.735 286.951 209.607 284.415L202.657 276.132C198.39 271.047 197.213 268.909 202.804 264.218Z" fill="white"/>
<path fill-rule="evenodd" clip-rule="evenodd" d="M231.085 274.251L222.762 281.234C221.118 282.614 218.644 282.397 217.264 280.752L210.278 272.428C208.898 270.783 209.115 268.309 210.759 266.929L219.082 259.945C220.726 258.565 223.2 258.782 224.58 260.427L231.566 268.752C232.946 270.396 232.73 272.871 231.085 274.251Z" fill="white"/>
<path fill-rule="evenodd" clip-rule="evenodd" d="M170.91 274.247L178.044 268.261C179.453 267.078 179.639 264.958 178.456 263.548L172.468 256.412C171.285 255.003 169.165 254.817 167.755 255.999L160.621 261.985C159.212 263.168 159.027 265.289 160.21 266.699L166.197 273.834C167.38 275.244 169.501 275.43 170.91 274.247Z" fill="white"/>
</g>
<g opacity="0.3">
<path fill-rule="evenodd" clip-rule="evenodd" d="M269.782 264.77L280.301 257.128C283.009 255.16 283.64 251.318 281.694 248.64L271.844 235.083C269.898 232.404 266.09 231.823 263.382 233.791L249.672 243.751C246.964 245.719 246.34 249.52 248.286 252.199L255.568 262.222C259.594 267.964 258.481 269.358 253.454 273.01L243.138 280.504C240.43 282.472 239.806 286.274 241.752 288.952L251.601 302.509C253.547 305.187 257.356 305.769 260.064 303.801L273.774 293.84C276.482 291.873 277.106 288.071 275.16 285.393L268.805 276.646C264.902 271.275 263.878 269.06 269.782 264.77Z" fill="white"/>
<path fill-rule="evenodd" clip-rule="evenodd" d="M297.295 276.751L288.505 283.137C286.768 284.399 284.315 284.01 283.053 282.273L276.666 273.481C275.404 271.744 275.792 269.291 277.528 268.03L286.318 261.643C288.055 260.382 290.508 260.771 291.77 262.508L298.157 271.299C299.419 273.036 299.031 275.49 297.295 276.751Z" fill="white"/>
<path fill-rule="evenodd" clip-rule="evenodd" d="M237.266 272.55L244.8 267.076C246.289 265.995 246.622 263.892 245.54 262.403L240.065 254.867C238.983 253.379 236.88 253.045 235.392 254.127L227.858 259.601C226.369 260.682 226.037 262.785 227.118 264.274L232.593 271.809C233.675 273.298 235.778 273.632 237.266 272.55Z" fill="white"/>
</g>
<g opacity="0.305131">
<path fill-rule="evenodd" clip-rule="evenodd" d="M470.476 266.534L482.354 261.246C485.412 259.884 486.828 256.257 485.481 253.232L478.666 237.924C477.319 234.899 473.715 233.539 470.656 234.901L455.176 241.793C452.117 243.155 450.717 246.743 452.063 249.768L457.102 261.086C459.847 267.539 458.468 268.671 452.791 271.199L441.143 276.385C438.085 277.746 436.684 281.335 438.03 284.359L444.846 299.668C446.193 302.692 449.797 304.053 452.855 302.691L468.336 295.799C471.395 294.437 472.795 290.848 471.448 287.824L467.051 277.946C464.351 271.882 463.809 269.502 470.476 266.534Z" fill="white"/>
<path fill-rule="evenodd" clip-rule="evenodd" d="M437.053 267.383L445.56 263.596C447.241 262.847 448.004 260.86 447.256 259.178L443.467 250.669C442.718 248.988 440.731 248.224 439.05 248.973L430.543 252.761C428.862 253.509 428.099 255.497 428.848 257.178L432.636 265.687C433.385 267.368 435.372 268.132 437.053 267.383Z" fill="white"/>
</g>
<g opacity="0.509313">
<path fill-rule="evenodd" clip-rule="evenodd" d="M2.16359 207.581L13.6433 213.685C16.5993 215.256 20.3293 214.139 21.8834 211.216L29.7505 196.42C31.3048 193.497 30.1577 189.819 27.2017 188.248L12.2394 180.292C9.28343 178.72 5.59339 179.826 4.03915 182.749L-1.77715 193.688C-5.1729 199.824 -6.91377 199.434 -12.4003 196.517L-23.6583 190.531C-26.6143 188.959 -30.3046 190.065 -31.8589 192.988L-39.7259 207.783C-41.2801 210.706 -40.1332 214.384 -37.1772 215.956L-22.2149 223.912C-19.2589 225.483 -15.5688 224.377 -14.0145 221.454L-8.93855 211.908C-5.82183 206.046 -4.28044 204.154 2.16359 207.581Z" fill="white"/>
<path fill-rule="evenodd" clip-rule="evenodd" d="M3.45566 237.561L-6.13739 232.46C-8.03257 231.453 -8.7583 229.077 -7.75037 227.181L-2.64854 217.586C-1.6406 215.691 0.734518 214.964 2.62969 215.972L12.2227 221.072C14.1179 222.08 14.8438 224.455 13.8359 226.351L8.73403 235.946C7.7261 237.842 5.35084 238.569 3.45566 237.561Z" fill="white"/>
</g>
<g opacity="0.01">
<path fill-rule="evenodd" clip-rule="evenodd" d="M68.4416 208.066L79.4676 214.956C82.3068 216.73 86.1056 215.875 87.8598 213.068L96.7399 198.857C98.4943 196.049 97.6065 192.301 94.7673 190.527L80.3965 181.547C77.5573 179.773 73.7992 180.618 72.0448 183.426L65.4796 193.932C61.6641 199.816 59.9547 199.306 54.685 196.013L43.872 189.257C41.0328 187.482 37.2744 188.328 35.52 191.135L26.64 205.346C24.8857 208.154 25.7733 211.903 28.6125 213.677L42.9833 222.657C45.8225 224.431 49.5808 223.585 51.3352 220.778L57.0647 211.608C60.5827 205.978 62.2523 204.199 68.4416 208.066Z" fill="white"/>
<path fill-rule="evenodd" clip-rule="evenodd" d="M67.6393 238.064L58.4254 232.306C56.6051 231.169 56.0469 228.748 57.1846 226.927L62.9433 217.712C64.081 215.891 66.501 215.332 68.3213 216.469L77.5352 222.227C79.3554 223.364 79.9139 225.784 78.7761 227.605L73.0174 236.821C71.8797 238.642 69.4595 239.201 67.6393 238.064Z" fill="white"/>
<path fill-rule="evenodd" clip-rule="evenodd" d="M49.0473 180.832L56.9448 185.767C58.5053 186.742 60.5795 186.263 61.5548 184.702L66.4908 176.803C67.466 175.242 66.9875 173.168 65.427 172.193L57.5295 167.258C55.9693 166.283 53.895 166.762 52.9198 168.323L47.9838 176.222C47.0085 177.783 47.4871 179.857 49.0473 180.832Z" fill="white"/>
</g>
<g opacity="0.0283725">
<path fill-rule="evenodd" clip-rule="evenodd" d="M134.687 208.523L145.205 216.165C147.914 218.133 151.763 217.545 153.709 214.867L163.559 201.31C165.504 198.631 164.88 194.83 162.172 192.862L148.462 182.902C145.754 180.934 141.946 181.515 140 184.194L132.718 194.216C128.501 199.82 126.832 199.192 121.804 195.539L111.489 188.045C108.781 186.077 104.972 186.658 103.026 189.337L93.1767 202.893C91.2308 205.572 91.8547 209.373 94.5632 211.341L108.273 221.302C110.981 223.27 114.789 222.688 116.735 220.01L123.09 211.263C126.993 205.892 128.782 204.233 134.687 208.523Z" fill="white"/>
<path fill-rule="evenodd" clip-rule="evenodd" d="M131.794 238.391L123.004 232.005C121.267 230.743 120.879 228.29 122.141 226.553L128.529 217.761C129.791 216.024 132.244 215.635 133.98 216.897L142.77 223.283C144.507 224.545 144.895 226.998 143.633 228.735L137.246 237.526C135.984 239.263 133.53 239.652 131.794 238.391Z" fill="white"/>
<path fill-rule="evenodd" clip-rule="evenodd" d="M117.239 180.002L124.773 185.476C126.262 186.557 128.365 186.224 129.447 184.735L134.922 177.2C136.003 175.711 135.671 173.608 134.182 172.526L126.648 167.053C125.16 165.971 123.057 166.305 121.975 167.793L116.5 175.329C115.418 176.818 115.751 178.921 117.239 180.002Z" fill="white"/>
</g>
<g opacity="0.395558">
<path fill-rule="evenodd" clip-rule="evenodd" d="M200.901 208.948L210.861 217.305C213.426 219.457 217.306 219.139 219.434 216.604L230.206 203.767C232.334 201.23 231.976 197.395 229.412 195.243L216.43 184.35C213.866 182.198 210.027 182.513 207.899 185.049L199.935 194.539C195.338 199.835 193.716 199.092 188.956 195.098L179.188 186.902C176.624 184.75 172.784 185.064 170.656 187.6L159.885 200.437C157.757 202.973 158.114 206.809 160.679 208.961L173.66 219.853C176.225 222.005 180.064 221.691 182.192 219.155L189.142 210.872C193.409 205.787 195.31 204.257 200.901 208.948Z" fill="white"/>
<path fill-rule="evenodd" clip-rule="evenodd" d="M195.932 238.541L187.609 231.558C185.965 230.178 185.749 227.703 187.129 226.059L194.114 217.734C195.494 216.089 197.968 215.873 199.612 217.252L207.935 224.236C209.58 225.616 209.796 228.09 208.416 229.735L201.43 238.059C200.05 239.704 197.576 239.921 195.932 238.541Z" fill="white"/>
<path fill-rule="evenodd" clip-rule="evenodd" d="M185.486 179.28L192.62 185.266C194.029 186.449 196.15 186.263 197.333 184.853L203.32 177.717C204.503 176.308 204.318 174.187 202.908 173.004L195.775 167.018C194.365 165.835 192.244 166.021 191.062 167.431L185.074 174.567C183.891 175.976 184.076 178.097 185.486 179.28Z" fill="white"/>
</g>
<g opacity="0.0138225">
<path fill-rule="evenodd" clip-rule="evenodd" d="M267.087 209.34L276.44 218.371C278.848 220.697 282.741 220.651 285.041 218.27L296.682 206.215C298.981 203.834 298.892 199.982 296.484 197.657L284.294 185.885C281.886 183.56 278.034 183.605 275.734 185.987L267.128 194.899C262.173 199.861 260.607 199.006 256.137 194.69L246.965 185.833C244.557 183.507 240.705 183.553 238.405 185.934L226.764 197.988C224.465 200.37 224.553 204.221 226.962 206.547L239.151 218.318C241.56 220.644 245.412 220.598 247.712 218.217L255.222 210.439C259.834 205.663 261.837 204.27 267.087 209.34Z" fill="white"/>
<path fill-rule="evenodd" clip-rule="evenodd" d="M260.065 238.515L252.25 230.967C250.706 229.476 250.663 226.993 252.154 225.448L259.703 217.631C261.195 216.087 263.678 216.043 265.222 217.534L273.038 225.081C274.582 226.572 274.625 229.056 273.133 230.6L265.584 238.417C264.093 239.962 261.609 240.006 260.065 238.515Z" fill="white"/>
<path fill-rule="evenodd" clip-rule="evenodd" d="M253.779 178.669L260.478 185.138C261.801 186.416 263.93 186.378 265.208 185.054L271.679 178.354C272.957 177.03 272.92 174.902 271.597 173.623L264.898 167.154C263.574 165.876 261.446 165.914 260.167 167.238L253.697 173.938C252.418 175.262 252.455 177.391 253.779 178.669Z" fill="white"/>
</g>
<g opacity="0.3">
<path fill-rule="evenodd" clip-rule="evenodd" d="M333.247 209.696L341.946 219.358C344.187 221.846 348.074 222.072 350.534 219.857L362.987 208.644C365.447 206.429 365.627 202.58 363.387 200.092L352.048 187.499C349.808 185.011 345.962 184.788 343.502 187.003L334.295 195.293C329.006 199.898 327.503 198.936 323.345 194.318L314.813 184.843C312.573 182.355 308.727 182.132 306.267 184.347L293.814 195.56C291.354 197.775 291.174 201.623 293.414 204.111L304.753 216.704C306.993 219.192 310.839 219.415 313.299 217.2L321.334 209.965C326.268 205.523 328.363 204.273 333.247 209.696Z" fill="white"/>
<path fill-rule="evenodd" clip-rule="evenodd" d="M324.207 238.31L316.937 230.236C315.501 228.641 315.631 226.161 317.227 224.724L325.303 217.452C326.898 216.016 329.379 216.145 330.815 217.741L338.085 225.815C339.521 227.41 339.391 229.89 337.795 231.327L329.719 238.598C328.124 240.035 325.643 239.905 324.207 238.31Z" fill="white"/>
<path fill-rule="evenodd" clip-rule="evenodd" d="M322.11 178.171L328.342 185.092C329.573 186.459 331.699 186.571 333.067 185.339L339.989 179.106C341.356 177.875 341.468 175.749 340.237 174.382L334.006 167.461C332.775 166.094 330.648 165.983 329.281 167.214L322.359 173.447C320.991 174.678 320.879 176.804 322.11 178.171Z" fill="white"/>
</g>
<g opacity="0.735277">
<path fill-rule="evenodd" clip-rule="evenodd" d="M-9.14173 143.402L-13.1594 155.767C-14.194 158.951 -12.4457 162.43 -9.29741 163.453L6.63996 168.631C9.78853 169.655 13.211 167.886 14.2456 164.702L19.4821 148.586C20.5167 145.402 18.7871 141.96 15.6385 140.937L3.85584 137.108C-2.77663 134.83 -2.69506 133.048 -0.774868 127.138L3.16526 115.011C4.19981 111.827 2.47032 108.385 -0.678263 107.362L-16.6153 102.184C-19.7639 101.161 -23.1867 102.929 -24.2213 106.113L-29.4578 122.229C-30.4924 125.413 -28.7625 128.855 -25.6139 129.879L-15.331 133.22C-9.01713 135.271 -6.88643 136.461 -9.14173 143.402Z" fill="white"/>
<path fill-rule="evenodd" clip-rule="evenodd" d="M12.5914 117.995L9.71364 126.852C9.14502 128.602 10.1117 130.498 11.8621 131.067L20.7209 133.946C22.471 134.514 24.3682 133.548 24.9368 131.798L27.8146 122.941C28.3831 121.192 27.4161 119.295 25.666 118.726L16.8072 115.848C15.0568 115.279 13.1599 116.245 12.5914 117.995Z" fill="white"/>
</g>
<g opacity="0.12358">
<path fill-rule="evenodd" clip-rule="evenodd" d="M56.9884 143.092L52.118 155.147C50.8638 158.251 52.3652 161.844 55.4344 163.084L70.9717 169.362C74.0413 170.602 77.5788 169.077 78.8329 165.972L85.181 150.261C86.4351 147.157 84.9498 143.602 81.8803 142.362L70.3934 137.721C63.936 134.985 64.1417 133.213 66.4694 127.452L71.2459 115.63C72.5 112.526 71.0148 108.971 67.9453 107.731L52.4083 101.454C49.3387 100.213 45.8009 101.739 44.5468 104.843L38.1988 120.555C36.9446 123.659 38.4302 127.213 41.4997 128.453L51.5245 132.503C57.6799 134.99 59.7224 136.326 56.9884 143.092Z" fill="white"/>
<path fill-rule="evenodd" clip-rule="evenodd" d="M27.3076 147.511L31.3776 137.438C32.1816 135.447 34.4683 134.477 36.459 135.282L46.5348 139.353C48.5255 140.157 49.4962 142.443 48.6922 144.433L44.6221 154.507C43.8181 156.497 41.5317 157.467 39.541 156.663L29.4652 152.592C27.4745 151.788 26.5035 149.501 27.3076 147.511Z" fill="white"/>
<path fill-rule="evenodd" clip-rule="evenodd" d="M80.4408 119.264L76.9523 127.898C76.263 129.604 77.095 131.564 78.8015 132.253L87.4379 135.742C89.1441 136.432 91.104 135.6 91.7934 133.894L95.2819 125.26C95.9711 123.554 95.1388 121.594 93.4326 120.905L84.7962 117.416C83.0897 116.726 81.13 117.558 80.4408 119.264Z" fill="white"/>
</g>
<g opacity="0.293905">
<path fill-rule="evenodd" clip-rule="evenodd" d="M123.141 142.746L117.442 154.432C115.974 157.441 117.221 161.129 120.197 162.58L135.258 169.926C138.234 171.378 141.869 170.103 143.337 167.094L150.765 151.863C152.233 148.854 150.999 145.205 148.024 143.754L136.888 138.323C130.638 135.143 130.966 133.39 133.69 127.805L139.28 116.345C140.747 113.336 139.514 109.686 136.538 108.235L121.477 100.889C118.501 99.4376 114.866 100.712 113.398 103.721L105.97 118.952C104.502 121.961 105.736 125.61 108.712 127.062L118.43 131.801C124.396 134.712 126.341 136.186 123.141 142.746Z" fill="white"/>
<path fill-rule="evenodd" clip-rule="evenodd" d="M93.2247 145.083L97.9875 135.318C98.9284 133.389 101.277 132.581 103.207 133.522L112.974 138.286C114.904 139.227 115.713 141.575 114.772 143.504L110.009 153.27C109.068 155.199 106.72 156.007 104.79 155.066L95.0226 150.302C93.093 149.361 92.2838 147.013 93.2247 145.083Z" fill="white"/>
<path fill-rule="evenodd" clip-rule="evenodd" d="M148.199 120.611L144.117 128.981C143.31 130.635 144.003 132.648 145.658 133.455L154.029 137.538C155.683 138.344 157.697 137.652 158.503 135.998L162.586 127.628C163.392 125.974 162.699 123.961 161.045 123.155L152.673 119.071C151.018 118.265 149.005 118.957 148.199 120.611Z" fill="white"/>
</g>
<g opacity="0.51512">
<path fill-rule="evenodd" clip-rule="evenodd" d="M189.32 142.363L182.819 153.623C181.145 156.522 182.132 160.289 184.999 161.944L199.511 170.323C202.378 171.978 206.094 170.96 207.768 168.061L216.24 153.385C217.914 150.486 216.938 146.76 214.071 145.104L203.342 138.91C197.328 135.302 197.779 133.576 200.885 128.194L207.261 117.152C208.935 114.253 207.959 110.526 205.092 108.871L190.579 100.492C187.712 98.837 183.997 99.8549 182.323 102.754L173.85 117.43C172.176 120.329 173.152 124.056 176.019 125.711L185.383 131.117C191.132 134.436 192.969 136.043 189.32 142.363Z" fill="white"/>
<path fill-rule="evenodd" clip-rule="evenodd" d="M159.313 142.608L164.745 133.199C165.819 131.34 168.218 130.698 170.077 131.771L179.489 137.205C181.348 138.278 181.991 140.677 180.918 142.536L175.485 151.946C174.412 153.804 172.013 154.447 170.154 153.373L160.742 147.94C158.883 146.866 158.24 144.467 159.313 142.608Z" fill="white"/>
<path fill-rule="evenodd" clip-rule="evenodd" d="M215.86 122.03L211.204 130.095C210.284 131.689 210.835 133.745 212.429 134.665L220.496 139.323C222.09 140.243 224.146 139.692 225.066 138.099L229.723 130.034C230.642 128.44 230.091 126.384 228.497 125.464L220.431 120.807C218.837 119.886 216.78 120.437 215.86 122.03Z" fill="white"/>
</g>
<g opacity="0.3">
<path fill-rule="evenodd" clip-rule="evenodd" d="M255.526 141.947L248.256 152.726C246.384 155.501 247.105 159.328 249.85 161.179L263.742 170.549C266.487 172.401 270.264 171.644 272.137 168.869L281.613 154.82C283.485 152.045 282.771 148.259 280.026 146.408L269.755 139.48C264.008 135.462 264.577 133.771 268.052 128.619L275.182 118.049C277.054 115.273 276.341 111.488 273.596 109.636L259.704 100.266C256.959 98.4146 253.181 99.1708 251.309 101.946L241.833 115.995C239.961 118.771 240.675 122.556 243.42 124.407L252.383 130.453C257.887 134.166 259.608 135.896 255.526 141.947Z" fill="white"/>
<path fill-rule="evenodd" clip-rule="evenodd" d="M225.575 140.098L231.651 131.091C232.851 129.311 235.29 128.838 237.069 130.039L246.079 136.115C247.859 137.316 248.333 139.754 247.133 141.533L241.057 150.541C239.857 152.32 237.419 152.794 235.639 151.593L226.629 145.516C224.85 144.316 224.375 141.878 225.575 140.098Z" fill="white"/>
<path fill-rule="evenodd" clip-rule="evenodd" d="M283.421 123.515L278.213 131.235C277.184 132.761 277.591 134.851 279.116 135.88L286.839 141.088C288.364 142.117 290.454 141.712 291.483 140.186L296.691 132.466C297.719 130.941 297.313 128.851 295.787 127.822L288.065 122.613C286.539 121.584 284.449 121.99 283.421 123.515Z" fill="white"/>
</g>
<g opacity="0.111808">
<path fill-rule="evenodd" clip-rule="evenodd" d="M321.763 141.499L313.758 151.744C311.697 154.382 312.15 158.25 314.759 160.288L327.964 170.605C330.573 172.643 334.393 172.152 336.455 169.514L346.888 156.16C348.949 153.522 348.501 149.696 345.892 147.658L336.129 140.031C330.676 135.621 331.362 133.974 335.188 129.078L343.038 119.03C345.099 116.392 344.651 112.566 342.042 110.527L328.837 100.211C326.229 98.1724 322.407 98.6633 320.346 101.301L309.913 114.655C307.852 117.293 308.301 121.119 310.909 123.157L319.429 129.814C324.661 133.901 326.256 135.748 321.763 141.499Z" fill="white"/>
<path fill-rule="evenodd" clip-rule="evenodd" d="M292.014 137.565L298.703 129.004C300.024 127.312 302.49 127.01 304.182 128.332L312.745 135.022C314.437 136.344 314.74 138.809 313.419 140.501L306.729 149.062C305.408 150.754 302.943 151.056 301.251 149.734L292.687 143.044C290.996 141.722 290.692 139.257 292.014 137.565Z" fill="white"/>
<path fill-rule="evenodd" clip-rule="evenodd" d="M350.875 125.058L345.142 132.396C344.009 133.846 344.268 135.959 345.719 137.092L353.059 142.827C354.509 143.96 356.622 143.701 357.755 142.251L363.488 134.912C364.621 133.462 364.361 131.349 362.911 130.216L355.571 124.482C354.121 123.349 352.008 123.608 350.875 125.058Z" fill="white"/>
</g>
<g opacity="0.0664139">
<path fill-rule="evenodd" clip-rule="evenodd" d="M388.032 141.021L379.332 150.683C377.092 153.171 377.274 157.061 379.734 159.276L392.187 170.489C394.648 172.704 398.493 172.48 400.734 169.992L412.073 157.399C414.313 154.911 414.133 151.063 411.672 148.848L402.466 140.558C397.333 135.779 398.133 134.184 402.291 129.566L410.822 120.091C413.062 117.603 412.883 113.755 410.422 111.54L397.969 100.327C395.509 98.1115 391.663 98.3347 389.423 100.823L378.084 113.416C375.844 115.904 376.024 119.752 378.484 121.967L386.519 129.202C391.453 133.644 392.915 135.597 388.032 141.021Z" fill="white"/>
<path fill-rule="evenodd" clip-rule="evenodd" d="M358.63 135.022L365.9 126.948C367.336 125.353 369.816 125.223 371.412 126.66L379.488 133.931C381.083 135.368 381.214 137.848 379.777 139.443L372.507 147.517C371.071 149.113 368.591 149.242 366.995 147.806L358.919 140.534C357.324 139.097 357.193 136.617 358.63 135.022Z" fill="white"/>
<path fill-rule="evenodd" clip-rule="evenodd" d="M418.22 126.65L411.989 133.571C410.757 134.938 410.869 137.064 412.237 138.296L419.159 144.529C420.526 145.76 422.653 145.649 423.884 144.282L430.115 137.361C431.346 135.994 431.234 133.868 429.867 132.636L422.945 126.404C421.577 125.172 419.451 125.283 418.22 126.65Z" fill="white"/>
</g>
<g opacity="0.220348">
<path fill-rule="evenodd" clip-rule="evenodd" d="M-13.5817 66.0107L-26.4568 64.2013C-29.7721 63.7353 -32.8948 66.0612 -33.3555 69.3393L-35.6877 85.9338C-36.1485 89.2122 -33.8127 92.2756 -30.4974 92.7415L-13.7166 95.0999C-10.4013 95.5659 -7.31192 93.2649 -6.85117 89.9865L-5.12695 77.718C-4.03463 70.7906 -2.26543 70.5615 3.88795 71.4263L16.5144 73.2008C19.8297 73.6668 22.9193 71.3658 23.3801 68.0874L25.7122 51.4933C26.173 48.2149 23.8373 45.1511 20.522 44.6852L3.74111 42.3268C0.425828 41.8608 -2.66357 44.1622 -3.12432 47.4405L-4.62907 58.1474C-5.55301 64.7216 -6.35442 67.0265 -13.5817 66.0107Z" fill="white"/>
<path fill-rule="evenodd" clip-rule="evenodd" d="M15.2129 83.0018L5.99101 81.7058C4.16884 81.4497 2.46885 82.731 2.2127 84.5536L0.916347 93.7776C0.660242 95.5999 1.94116 97.3005 3.76333 97.5566L12.9852 98.8527C14.8071 99.1087 16.5071 97.8271 16.7632 96.0048L18.0596 86.7807C18.3157 84.9582 17.0348 83.2579 15.2129 83.0018Z" fill="white"/>
</g>
<g opacity="0.831569">
<path fill-rule="evenodd" clip-rule="evenodd" d="M53.3054 65.4179L40.5879 62.7147C37.3132 62.0186 34.0358 64.121 33.3475 67.359L29.8635 83.7503C29.1751 86.9886 31.2915 90.2075 34.5662 90.9036L51.1417 94.4268C54.4164 95.1229 57.6587 93.043 58.3471 89.8047L60.9229 77.6864C62.4958 70.8521 64.2766 70.7469 70.3547 72.0389L82.8266 74.6899C86.1013 75.3859 89.344 73.3061 90.0323 70.0678L93.5163 53.6768C94.2046 50.4385 92.0883 47.2193 88.8136 46.5232L72.2381 43C68.9634 42.3039 65.721 44.3841 65.0327 47.6224L62.7847 58.1982C61.4045 64.6919 60.4442 66.9353 53.3054 65.4179Z" fill="white"/>
<path fill-rule="evenodd" clip-rule="evenodd" d="M43.7997 36.9552L54.4271 39.2141C56.5266 39.6604 57.879 41.7439 57.4326 43.844L55.1732 54.4737C54.7268 56.5737 52.644 57.9267 50.5445 57.4804L39.9171 55.2215C37.8176 54.7753 36.4651 52.692 36.9114 50.592L39.1709 39.9623C39.6172 37.8623 41.7002 36.509 43.7997 36.9552Z" fill="white"/>
<path fill-rule="evenodd" clip-rule="evenodd" d="M80.8447 84.3762L71.7356 82.44C69.9357 82.0574 68.1505 83.217 67.7678 85.0173L65.8312 94.1284C65.4486 95.9284 66.6078 97.7142 68.4077 98.0968L77.5167 100.033C79.3163 100.415 81.1016 99.2555 81.4842 97.4556L83.4208 88.3444C83.8035 86.5442 82.6442 84.7587 80.8447 84.3762Z" fill="white"/>
</g>
<g opacity="0.725993">
<path fill-rule="evenodd" clip-rule="evenodd" d="M120.233 64.841L107.735 61.2573C104.517 60.3345 101.101 62.2031 100.189 65.3852L95.5697 81.4936C94.6572 84.6759 96.5438 88.0347 99.762 88.9574L116.051 93.6283C119.27 94.5511 122.649 92.7025 123.562 89.5201L126.976 77.611C129.022 70.9031 130.806 70.9224 136.779 72.6352L149.036 76.1497C152.254 77.0725 155.634 75.2239 156.546 72.0415L161.165 55.9335C162.078 52.7511 160.191 49.3921 156.973 48.4693L140.684 43.7984C137.466 42.8756 134.086 44.7246 133.173 47.9069L130.193 58.3001C128.363 64.6818 127.249 66.8527 120.233 64.841Z" fill="white"/>
<path fill-rule="evenodd" clip-rule="evenodd" d="M112.736 35.7846L123.18 38.7793C125.243 39.3709 126.447 41.5437 125.856 43.6075L122.86 54.0537C122.268 56.1175 120.096 57.3219 118.033 56.7303L107.589 53.7355C105.526 53.1439 104.322 50.9714 104.914 48.9076L107.909 38.4614C108.501 36.3976 110.673 35.1929 112.736 35.7846Z" fill="white"/>
<path fill-rule="evenodd" clip-rule="evenodd" d="M146.383 85.6742L137.431 83.1073C135.662 82.6001 133.801 83.6324 133.293 85.4016L130.726 94.3554C130.219 96.1243 131.25 97.9866 133.019 98.4938L141.971 101.061C143.74 101.568 145.601 100.535 146.109 98.7663L148.676 89.8125C149.183 88.0433 148.152 86.1813 146.383 85.6742Z" fill="white"/>
</g>
<g opacity="0.01">
<path fill-rule="evenodd" clip-rule="evenodd" d="M187.201 64.283L174.983 59.8362C171.837 58.6911 168.299 60.3169 167.167 63.4276L161.436 79.1745C160.303 82.2855 161.951 85.7676 165.097 86.9127L181.021 92.7085C184.167 93.8535 187.667 92.2451 188.8 89.1342L193.037 77.4923C195.546 70.9434 197.324 71.0871 203.163 73.2123L215.144 77.5733C218.29 78.7183 221.791 77.11 222.923 73.9991L228.655 58.2524C229.787 55.1415 228.139 51.659 224.993 50.514L209.069 44.7182C205.923 43.5731 202.423 45.1819 201.291 48.2928L197.593 58.4528C195.322 64.6913 194.059 66.7791 187.201 64.283Z" fill="white"/>
<path fill-rule="evenodd" clip-rule="evenodd" d="M181.749 34.7744L191.959 38.4903C193.976 39.2245 195.025 41.4759 194.291 43.4934L190.574 53.7052C189.839 55.7227 187.589 56.7726 185.572 56.0385L175.362 52.3225C173.345 51.5884 172.296 49.3373 173.03 47.3198L176.747 37.108C177.481 35.0905 179.732 34.0402 181.749 34.7744Z" fill="white"/>
<path fill-rule="evenodd" clip-rule="evenodd" d="M211.834 86.8895L203.083 83.7044C201.354 83.0751 199.424 83.975 198.795 85.7045L195.609 94.4574C194.98 96.1866 195.879 98.1164 197.608 98.7457L206.359 101.931C208.088 102.56 210.017 101.66 210.647 99.9306L213.832 91.1777C214.462 89.4482 213.563 87.5187 211.834 86.8895Z" fill="white"/>
</g>
<g opacity="0.864108">
<path fill-rule="evenodd" clip-rule="evenodd" d="M-3.8185 -6.91354L-4.27225 -19.9072C-4.38909 -23.253 -7.22191 -25.9245 -10.5302 -25.809L-27.2775 -25.2241C-30.5861 -25.1086 -33.1974 -22.2764 -33.0806 -18.9305L-32.4892 -1.99506C-32.3724 1.35077 -29.5699 3.99362 -26.2613 3.87809L-13.8798 3.44571C-6.86794 3.31851 -6.33508 5.02104 -6.11822 11.2311L-5.67323 23.9739C-5.55639 27.3197 -2.75387 29.9629 0.554722 29.8473L17.3017 29.2625C20.6103 29.147 23.222 26.3147 23.1051 22.9689L22.5137 6.03343C22.3969 2.6876 19.5941 0.0447589 16.2855 0.160298L5.47999 0.537633C-1.15477 0.769324 -3.56379 0.380329 -3.8185 -6.91354Z" fill="white"/>
</g>
<g opacity="0.225614">
<path fill-rule="evenodd" clip-rule="evenodd" d="M63.4794 -6.81021L63.9332 -19.8039C64.05 -23.1497 61.4104 -26.0123 58.1021 -26.1278L41.3548 -26.7126C38.0462 -26.8282 35.2437 -24.185 35.1269 -20.8392L34.5355 -3.90368C34.4186 -0.557853 37.03 2.27406 40.3385 2.3896L52.72 2.82197C59.7237 3.18419 60.1365 4.91975 59.9196 11.1298L59.4746 23.8726C59.3578 27.2184 61.9691 30.0506 65.2777 30.1662L82.0247 30.751C85.3333 30.8665 88.1361 28.2234 88.253 24.8775L88.8444 7.94206C88.9612 4.59623 86.3496 1.76431 83.041 1.64877L72.2355 1.27144C65.6007 1.03975 63.2247 0.483655 63.4794 -6.81021Z" fill="white"/>
<path fill-rule="evenodd" clip-rule="evenodd" d="M49.5913 23.6027L49.9163 14.2958C49.9805 12.4569 48.5285 10.9001 46.6891 10.8359L37.3801 10.5108C35.541 10.4466 33.9837 11.8983 33.9194 13.7372L33.5944 23.0441C33.5302 24.8827 34.9826 26.4395 36.8216 26.5037L46.1306 26.8288C47.97 26.893 49.5271 25.4413 49.5913 23.6027Z" fill="white"/>
</g>
<g opacity="0.794542">
<path fill-rule="evenodd" clip-rule="evenodd" d="M130.769 -6.66392L132.128 -19.5943C132.478 -22.9238 130.044 -25.9635 126.752 -26.3095L110.086 -28.0612C106.794 -28.4072 103.814 -25.966 103.464 -22.6365L101.692 -5.7835C101.342 -2.45397 103.75 0.553196 107.042 0.89925L119.364 2.19426C126.325 3.04415 126.616 4.80427 125.966 10.9841L124.633 23.6648C124.283 26.9943 126.691 30.0018 129.983 30.3478L146.649 32.0994C149.941 32.4455 152.921 30.0043 153.271 26.6748L155.043 9.82178C155.393 6.49226 152.985 3.48506 149.692 3.139L138.94 2.00883C132.337 1.31489 130.006 0.594411 130.769 -6.66392Z" fill="white"/>
<path fill-rule="evenodd" clip-rule="evenodd" d="M114.793 22.7061L115.766 13.4446C115.959 11.6146 114.619 9.96038 112.788 9.76799L103.525 8.79434C101.695 8.60199 100.04 9.94147 99.8473 11.7715L98.8739 21.033C98.6816 22.8627 100.022 24.517 101.852 24.7093L111.116 25.683C112.946 25.8754 114.601 24.5358 114.793 22.7061Z" fill="white"/>
</g>
<g opacity="0.867934">
<path fill-rule="evenodd" clip-rule="evenodd" d="M198.046 -6.47525L200.304 -19.2793C200.885 -22.5763 198.67 -25.7784 195.41 -26.3532L178.907 -29.2631C175.646 -29.838 172.503 -27.6106 171.922 -24.3136L168.979 -7.62522C168.398 -4.32822 170.59 -1.16044 173.85 -0.585561L186.051 1.56577C192.936 2.89919 193.103 4.67531 192.024 10.7948L189.81 23.3516C189.229 26.6486 191.42 29.8167 194.681 30.3915L211.183 33.3014C214.444 33.8763 217.587 31.6489 218.168 28.3519L221.111 11.6636C221.692 8.36657 219.5 5.19874 216.24 4.62386L205.592 2.74636C199.054 1.59354 196.779 0.712187 198.046 -6.47525Z" fill="white"/>
<path fill-rule="evenodd" clip-rule="evenodd" d="M180.06 21.7089L181.678 12.5378C181.997 10.7257 180.776 8.98199 178.963 8.66239L169.79 7.04491C167.978 6.72537 166.234 7.94615 165.914 9.75827L164.297 18.9293C163.978 20.7412 165.199 22.4849 167.011 22.8044L176.184 24.4219C177.997 24.7415 179.741 23.5207 180.06 21.7089Z" fill="white"/>
</g>
<g opacity="0.20686">
<path fill-rule="evenodd" clip-rule="evenodd" d="M265.309 -6.24523L268.454 -18.8606C269.264 -22.109 267.278 -25.4578 264.066 -26.2587L247.806 -30.3127C244.594 -31.1136 241.303 -29.1109 240.493 -25.8624L236.393 -9.42C235.583 -6.17158 237.549 -2.85863 240.761 -2.05772L252.782 0.939461C259.557 2.74991 259.6 4.53336 258.097 10.5626L255.012 22.9344C254.203 26.1828 256.168 29.4961 259.38 30.297L275.64 34.3509C278.852 35.1519 282.143 33.1492 282.953 29.9008L287.053 13.4583C287.862 10.2099 285.897 6.89689 282.684 6.09598L272.194 3.48031C265.752 1.87423 263.543 0.836292 265.309 -6.24523Z" fill="white"/>
<path fill-rule="evenodd" clip-rule="evenodd" d="M245.401 20.6156L247.654 11.5797C248.099 9.79427 247.003 7.96965 245.217 7.52439L236.179 5.27097C234.393 4.82579 232.568 5.92192 232.123 7.70734L229.87 16.7433C229.425 18.5284 230.522 20.3531 232.307 20.7983L241.345 23.0517C243.131 23.4969 244.956 22.4007 245.401 20.6156Z" fill="white"/>
</g>
<g opacity="0.01">
<path fill-rule="evenodd" clip-rule="evenodd" d="M399.78 -5.66569L404.65 -17.7206C405.904 -20.8246 404.403 -24.4173 401.334 -25.6574L385.796 -31.9349C382.727 -33.1751 379.189 -31.6498 377.935 -28.5457L371.587 -12.8339C370.333 -9.72977 371.818 -6.17552 374.888 -4.93534L386.375 -0.294328C392.832 2.44143 392.626 4.21351 390.299 9.9749L385.522 21.797C384.268 24.9011 385.753 28.4556 388.823 29.6958L404.36 35.9731C407.429 37.2133 410.967 35.6882 412.221 32.5841L418.569 16.8722C419.823 13.7681 418.338 10.2138 415.268 8.9736L405.244 4.92333C399.088 2.43639 397.046 1.10119 399.78 -5.66569Z" fill="white"/>
<path fill-rule="evenodd" clip-rule="evenodd" d="M429.461 -10.0844L425.391 -0.0107636C424.586 1.97936 422.3 2.94944 420.309 2.14517L410.233 -1.92575C408.243 -2.73001 407.272 -5.01618 408.076 -7.00631L412.146 -17.08C412.95 -19.0701 415.236 -20.0403 417.227 -19.236L427.303 -15.1651C429.294 -14.3608 430.265 -12.0746 429.461 -10.0844Z" fill="white"/>
<path fill-rule="evenodd" clip-rule="evenodd" d="M376.327 18.1631L379.816 9.52863C380.505 7.82254 379.673 5.86306 377.967 5.1736L369.33 1.68426C367.624 0.994912 365.664 1.82637 364.975 3.53245L361.486 12.1669C360.797 13.8727 361.629 15.8323 363.336 16.5216L371.972 20.011C373.678 20.7004 375.638 19.8689 376.327 18.1631Z" fill="white"/>
</g>
<g opacity="0.523251">
<path fill-rule="evenodd" clip-rule="evenodd" d="M466.982 -5.31904L472.681 -17.0048C474.149 -20.0138 472.902 -23.7025 469.927 -25.1537L454.865 -32.4997C451.89 -33.951 448.254 -32.6762 446.787 -29.6671L439.358 -14.4364C437.89 -11.4273 439.124 -7.77812 442.1 -6.32684L453.235 -0.895843C459.486 2.2837 459.157 4.03711 456.433 9.62209L450.844 21.0822C449.376 24.0912 450.61 27.7407 453.585 29.192L468.646 36.5379C471.622 37.9891 475.257 36.7145 476.725 33.7055L484.154 18.4747C485.621 15.4656 484.387 11.8163 481.412 10.365L471.694 5.62533C465.727 2.71507 463.783 1.24064 466.982 -5.31904Z" fill="white"/>
<path fill-rule="evenodd" clip-rule="evenodd" d="M441.924 16.8157L446.007 8.44565C446.813 6.7918 446.12 4.77905 444.466 3.97223L436.094 -0.111052C434.44 -0.917737 432.427 -0.225029 431.62 1.42882L427.538 9.79888C426.731 11.4525 427.425 13.4653 429.079 14.272L437.451 18.3553C439.105 19.1621 441.118 18.4693 441.924 16.8157Z" fill="white"/>
</g>
</g>
</svg>
