<svg width="100" height="99" viewBox="0 0 100 99" fill="none" xmlns="http://www.w3.org/2000/svg">
<path fill-rule="evenodd" clip-rule="evenodd" d="M0 12.8C0 8.31958 0 6.07937 0.871948 4.36808C1.63893 2.86278 2.86278 1.63893 4.36808 0.871948C6.07937 0 8.31958 0 12.8 0H39.2C43.6804 0 45.9206 0 47.6319 0.871948C49.1372 1.63893 50.3611 2.86278 51.1281 4.36808C52 6.07937 52 8.31958 52 12.8V39.2V39.2C52 40.4142 52.48 41.5805 53.3386 42.439L55.8698 44.9702C57.1753 46.2757 58.9537 47 60.8 47V47H87.2C91.6804 47 93.9206 47 95.6319 47.8719C97.1372 48.6389 98.3611 49.8628 99.1281 51.3681C100 53.0794 100 55.3196 100 59.8V86.2C100 90.6804 100 92.9206 99.1281 94.6319C98.3611 96.1372 97.1372 97.3611 95.6319 98.1281C93.9206 99 91.6804 99 87.2 99H60.8C56.3196 99 54.0794 99 52.3681 98.1281C50.8628 97.3611 49.6389 96.1372 48.8719 94.6319C48 92.9206 48 90.6804 48 86.2V59.8V59.8C48 57.9537 47.2757 56.1752 45.9702 54.8696L45.569 54.4685C43.9721 52.8715 41.7853 51.9997 39.5269 52C39.4193 52 39.3103 52 39.2 52H12.8C8.31958 52 6.07937 52 4.36808 51.1281C2.86278 50.3611 1.63893 49.1372 0.871948 47.6319C0 45.9206 0 43.6804 0 39.2V12.8Z" fill="#000066"/>
<path fill-rule="evenodd" clip-rule="evenodd" d="M64.763 4.82207C64 6.31945 64 8.27963 64 12.2V23.8C64 27.7204 64 29.6806 64.763 31.1779C65.4341 32.4951 66.5049 33.5659 67.8221 34.237C69.3195 35 71.2796 35 75.2 35H86.8C90.7204 35 92.6805 35 94.1779 34.237C95.4951 33.5659 96.5659 32.4951 97.237 31.1779C98 29.6806 98 27.7204 98 23.8V12.2C98 8.27963 98 6.31945 97.237 4.82207C96.5659 3.50493 95.4951 2.43407 94.1779 1.76295C92.6805 1 90.7204 1 86.8 1H75.2C71.2796 1 69.3195 1 67.8221 1.76295C66.5049 2.43407 65.4341 3.50493 64.763 4.82207ZM7.65396 67.2761C7 68.5595 7 70.2397 7 73.6V83.4C7 86.7603 7 88.4405 7.65396 89.7239C8.2292 90.8529 9.14708 91.7708 10.2761 92.346C11.5595 93 13.2397 93 16.6 93H26.4C29.7603 93 31.4405 93 32.7239 92.346C33.8529 91.7708 34.7708 90.8529 35.346 89.7239C36 88.4405 36 86.7603 36 83.4V73.6C36 70.2397 36 68.5595 35.346 67.2761C34.7708 66.1471 33.8529 65.2292 32.7239 64.654C31.4405 64 29.7603 64 26.4 64H16.6C13.2397 64 11.5595 64 10.2761 64.654C9.14708 65.2292 8.2292 66.1471 7.65396 67.2761Z" fill="#748187"/>
</svg>
